<svg width="121" height="41" viewBox="0 0 121 41" fill="none" xmlns="http://www.w3.org/2000/svg">
<g clip-path="url(#clip0_5_52924)">
<path d="M111.074 0.50013H10.4741C10.1074 0.50013 9.74513 0.50013 9.3794 0.50213C9.07325 0.50413 8.76954 0.50994 8.46045 0.51483C7.78897 0.522732 7.11906 0.581806 6.45655 0.69154C5.79498 0.803663 5.15413 1.01505 4.55567 1.31854C3.95795 1.6246 3.4118 2.0223 2.93702 2.4972C2.45976 2.97077 2.06192 3.51815 1.7588 4.11829C1.45485 4.71724 1.24409 5.35907 1.1338 6.02161C1.02246 6.68332 0.962552 7.35265 0.954603 8.02361C0.945323 8.33021 0.944343 8.63783 0.939453 8.94447V32.0587C0.944343 32.3692 0.945323 32.67 0.954603 32.9806C0.962554 33.6516 1.02247 34.3209 1.1338 34.9825C1.24379 35.6455 1.45456 36.2877 1.7588 36.8868C2.06178 37.485 2.45967 38.0302 2.93702 38.5011C3.41 38.9781 3.95651 39.3761 4.55567 39.6798C5.15412 39.9841 5.7949 40.1968 6.45655 40.3106C7.11917 40.4195 7.78901 40.4786 8.46045 40.4874C8.76954 40.4942 9.07325 40.4981 9.3794 40.4981C9.74512 40.5001 10.1075 40.5001 10.4741 40.5001H111.074C111.434 40.5001 111.799 40.5001 112.158 40.4981C112.463 40.4981 112.775 40.4942 113.08 40.4874C113.75 40.4791 114.419 40.42 115.08 40.3106C115.744 40.196 116.387 39.9834 116.988 39.6798C117.587 39.3759 118.133 38.978 118.606 38.5011C119.082 38.0284 119.48 37.4836 119.787 36.8868C120.089 36.2872 120.298 35.6451 120.406 34.9825C120.518 34.3208 120.58 33.6516 120.592 32.9806C120.596 32.67 120.596 32.3692 120.596 32.0587C120.604 31.6954 120.604 31.3341 120.604 30.9649V10.0363C120.604 9.67005 120.604 9.30677 120.596 8.94447C120.596 8.63783 120.596 8.33021 120.592 8.02357C120.58 7.35255 120.518 6.68337 120.406 6.02157C120.298 5.35941 120.089 4.71763 119.787 4.11825C119.17 2.91533 118.191 1.93616 116.988 1.31845C116.387 1.0157 115.744 0.80437 115.08 0.69145C114.419 0.581233 113.75 0.522138 113.08 0.51469C112.775 0.50981 112.463 0.50395 112.158 0.502C111.799 0.5 111.434 0.5 111.074 0.5V0.50013Z" fill="#E0E0E0"/>
<path d="M9.38432 39.625C9.07964 39.625 8.78232 39.6211 8.48003 39.6143C7.85381 39.6061 7.22906 39.5516 6.61089 39.4512C6.03448 39.3519 5.47609 39.1673 4.95415 38.9033C4.43699 38.6415 3.9653 38.2983 3.55715 37.8867C3.14309 37.48 2.79837 37.0082 2.53664 36.4902C2.27203 35.9688 2.0889 35.4099 1.99364 34.833C1.89076 34.2131 1.8351 33.5863 1.82714 32.958C1.8208 32.7471 1.8125 32.0449 1.8125 32.0449V8.94434C1.8125 8.94434 1.82134 8.25293 1.82719 8.0498C1.83482 7.42248 1.89015 6.79665 1.99272 6.17773C2.08816 5.59925 2.27143 5.03875 2.53618 4.51563C2.79694 3.99794 3.13975 3.52586 3.55132 3.11768C3.96242 2.70562 4.43562 2.3606 4.95366 2.09521C5.4744 1.83209 6.03174 1.64873 6.60698 1.55127C7.22718 1.44984 7.8541 1.395 8.48249 1.38721L9.38481 1.375H112.153L113.066 1.3877C113.689 1.3951 114.31 1.44945 114.925 1.55029C115.506 1.64898 116.069 1.83362 116.596 2.09814C117.634 2.63299 118.478 3.47916 119.011 4.51807C119.271 5.03758 119.452 5.59351 119.546 6.16699C119.65 6.79099 119.708 7.42174 119.72 8.0542C119.723 8.3374 119.723 8.6416 119.723 8.94434C119.731 9.31934 119.731 9.67627 119.731 10.0361V30.9648C119.731 31.3281 119.731 31.6826 119.723 32.04C119.723 32.3652 119.723 32.6631 119.719 32.9697C119.707 33.5909 119.65 34.2104 119.548 34.8232C119.455 35.4043 119.272 35.9675 119.008 36.4932C118.744 37.0056 118.402 37.4733 117.992 37.8789C117.584 38.2927 117.111 38.6379 116.593 38.9014C116.068 39.1674 115.505 39.3527 114.925 39.4512C114.307 39.5522 113.682 39.6067 113.056 39.6143C112.763 39.6211 112.456 39.625 112.158 39.625L111.074 39.627L9.38432 39.625Z" fill="#539F80"/>
<path d="M25.7084 20.8008C25.7192 19.9662 25.9409 19.1478 26.3529 18.4218C26.765 17.6959 27.3539 17.0859 28.065 16.6488C27.6133 16.0036 27.0173 15.4727 26.3245 15.0981C25.6317 14.7236 24.861 14.5157 24.0738 14.4911C22.3946 14.3148 20.7667 15.4959 19.9109 15.4959C19.0387 15.4959 17.7212 14.5086 16.3024 14.5378C15.3848 14.5674 14.4904 14.8343 13.7065 15.3123C12.9227 15.7904 12.276 16.4633 11.8295 17.2656C9.89553 20.6141 11.3381 25.5351 13.1907 28.2417C14.1176 29.5671 15.2009 31.0475 16.6184 30.995C18.0054 30.9375 18.5235 30.1105 20.1978 30.1105C21.8565 30.1105 22.3425 30.995 23.7888 30.9616C25.2771 30.9375 26.2149 29.6304 27.1093 28.2925C27.7752 27.3481 28.2877 26.3044 28.6277 25.2C27.763 24.8343 27.0251 24.2221 26.5059 23.4398C25.9868 22.6575 25.7095 21.7397 25.7084 20.8008Z" fill="white"/>
<path d="M22.977 12.7108C23.7886 11.7366 24.1884 10.4844 24.0915 9.22021C22.8517 9.35044 21.7065 9.94299 20.884 10.8798C20.4818 11.3375 20.1738 11.8699 19.9776 12.4467C19.7813 13.0235 19.7007 13.6333 19.7403 14.2412C20.3604 14.2476 20.9739 14.1132 21.5346 13.8481C22.0952 13.583 22.5884 13.1942 22.977 12.7108Z" fill="white"/>
<path d="M43.2422 27.6397H38.5088L37.3721 30.9961H35.3672L39.8506 18.5781H41.9336L46.417 30.9961H44.3779L43.2422 27.6397ZM38.999 26.0908H42.751L40.9014 20.6436H40.8496L38.999 26.0908Z" fill="white"/>
<path d="M56.0996 26.4699C56.0996 29.2834 54.5938 31.091 52.3213 31.091C51.7457 31.1211 51.1732 30.9885 50.6694 30.7084C50.1656 30.4283 49.7509 30.0119 49.4727 29.507H49.4297V33.9914H47.5713V21.9426H49.3701V23.4485H49.4043C49.6953 22.946 50.117 22.5318 50.6246 22.2499C51.1323 21.9681 51.7068 21.8291 52.2871 21.8479C54.5849 21.8479 56.0996 23.6643 56.0996 26.4699ZM54.1895 26.4699C54.1895 24.6369 53.2422 23.4319 51.7969 23.4319C50.377 23.4319 49.4219 24.6623 49.4219 26.4699C49.4219 28.2942 50.377 29.5158 51.7969 29.5158C53.2422 29.5158 54.1895 28.3196 54.1895 26.4699Z" fill="white"/>
<path d="M66.0645 26.4699C66.0645 29.2834 64.5586 31.091 62.2862 31.091C61.7105 31.1211 61.138 30.9885 60.6342 30.7084C60.1304 30.4283 59.7157 30.0119 59.4375 29.507H59.3945V33.9914H57.5361V21.9426H59.335V23.4484H59.3691C59.6601 22.946 60.0818 22.5318 60.5895 22.2499C61.0971 21.9681 61.6716 21.8291 62.252 21.8479C64.5498 21.8479 66.0645 23.6643 66.0645 26.4699ZM64.1543 26.4699C64.1543 24.6369 63.2071 23.4318 61.7617 23.4318C60.3418 23.4318 59.3867 24.6623 59.3867 26.4699C59.3867 28.2942 60.3418 29.5158 61.7617 29.5158C63.2071 29.5158 64.1543 28.3195 64.1543 26.4699H64.1543Z" fill="white"/>
<path d="M72.6504 27.5362C72.7881 28.7676 73.9844 29.5762 75.6192 29.5762C77.1856 29.5762 78.3125 28.7676 78.3125 27.6572C78.3125 26.6934 77.6328 26.1162 76.0235 25.7207L74.4141 25.333C72.1338 24.7822 71.0752 23.7158 71.0752 21.9854C71.0752 19.8428 72.9424 18.3711 75.5938 18.3711C78.2178 18.3711 80.0166 19.8428 80.0772 21.9854H78.2012C78.0889 20.7461 77.0645 19.9981 75.5674 19.9981C74.0703 19.9981 73.0459 20.7549 73.0459 21.8565C73.0459 22.7344 73.7002 23.251 75.3008 23.6465L76.6689 23.9824C79.2168 24.5849 80.2754 25.6084 80.2754 27.4248C80.2754 29.748 78.4248 31.2031 75.4814 31.2031C72.7275 31.2031 70.8682 29.7822 70.748 27.5361L72.6504 27.5362Z" fill="white"/>
<path d="M84.2861 19.7998V21.9424H86.0078V23.4141H84.2861V28.4053C84.2861 29.1807 84.6309 29.542 85.3877 29.542C85.5921 29.5384 85.7961 29.5241 85.999 29.499V30.9619C85.6587 31.0255 85.3129 31.0543 84.9668 31.0478C83.1338 31.0478 82.4189 30.3593 82.4189 28.6035V23.4141H81.1025V21.9424H82.4189V19.7998H84.2861Z" fill="white"/>
<path d="M87.0049 26.4697C87.0049 23.6211 88.6826 21.8311 91.2988 21.8311C93.9238 21.8311 95.5938 23.6211 95.5938 26.4697C95.5938 29.3262 93.9326 31.1084 91.2988 31.1084C88.666 31.1084 87.0049 29.3262 87.0049 26.4697ZM93.7002 26.4697C93.7002 24.5156 92.8047 23.3623 91.2988 23.3623C89.793 23.3623 88.8984 24.5244 88.8984 26.4697C88.8984 28.4316 89.793 29.5762 91.2988 29.5762C92.8047 29.5762 93.7001 28.4316 93.7001 26.4697H93.7002Z" fill="white"/>
<path d="M97.126 21.9425H98.8984V23.4835H98.9414C99.0614 23.0022 99.3433 22.5769 99.7399 22.279C100.136 21.9811 100.624 21.8288 101.119 21.8478C101.333 21.847 101.547 21.8703 101.756 21.9171V23.6554C101.486 23.5728 101.203 23.5348 100.921 23.5431C100.651 23.5321 100.382 23.5797 100.132 23.6826C99.8821 23.7855 99.6575 23.9412 99.4735 24.1391C99.2895 24.337 99.1505 24.5724 99.0661 24.8291C98.9817 25.0857 98.9538 25.3576 98.9844 25.6261V30.9962H97.126L97.126 21.9425Z" fill="white"/>
<path d="M110.324 28.3369C110.074 29.9805 108.474 31.1084 106.426 31.1084C103.792 31.1084 102.157 29.3437 102.157 26.5127C102.157 23.6729 103.801 21.8311 106.348 21.8311C108.853 21.8311 110.428 23.5518 110.428 26.2969V26.9336H104.033V27.0459C104.004 27.3791 104.045 27.7148 104.156 28.0306C104.266 28.3464 104.442 28.6352 104.672 28.8778C104.903 29.1203 105.182 29.3111 105.492 29.4374C105.801 29.5637 106.134 29.6226 106.469 29.6103C106.908 29.6515 107.349 29.5498 107.725 29.3203C108.102 29.0909 108.395 28.746 108.56 28.3369L110.324 28.3369ZM104.042 25.6348H108.568C108.585 25.3352 108.54 25.0354 108.435 24.7541C108.33 24.4729 108.169 24.2164 107.96 24.0006C107.752 23.7849 107.501 23.6145 107.223 23.5003C106.946 23.3861 106.648 23.3305 106.348 23.3369C106.045 23.3351 105.745 23.3933 105.465 23.508C105.185 23.6227 104.93 23.7918 104.716 24.0054C104.502 24.2191 104.332 24.473 104.216 24.7527C104.1 25.0323 104.041 25.3321 104.042 25.6348V25.6348Z" fill="white"/>
<path d="M38.7656 9.23089C39.1552 9.20293 39.5462 9.26179 39.9103 9.40323C40.2744 9.54466 40.6026 9.76514 40.8712 10.0488C41.1398 10.3324 41.3421 10.6721 41.4635 11.0434C41.5849 11.4146 41.6224 11.8082 41.5732 12.1957C41.5732 14.102 40.543 15.1977 38.7656 15.1977H36.6104V9.23089H38.7656ZM37.5371 14.3539H38.6621C38.9405 14.3705 39.2191 14.3249 39.4777 14.2203C39.7362 14.1157 39.9682 13.9547 40.1567 13.7491C40.3451 13.5436 40.4854 13.2986 40.5673 13.032C40.6491 12.7653 40.6705 12.4838 40.6299 12.2079C40.6676 11.9331 40.644 11.6533 40.5609 11.3886C40.4778 11.124 40.3372 10.881 40.1491 10.677C39.961 10.4731 39.7302 10.3133 39.4731 10.2091C39.216 10.1048 38.9391 10.0587 38.6621 10.0741H37.5371V14.3539Z" fill="white"/>
<path d="M42.6204 12.9443C42.5921 12.6484 42.6259 12.3498 42.7198 12.0677C42.8136 11.7857 42.9654 11.5263 43.1653 11.3063C43.3653 11.0864 43.609 10.9106 43.8808 10.7903C44.1527 10.67 44.4467 10.6079 44.7439 10.6079C45.0412 10.6079 45.3352 10.67 45.607 10.7903C45.8789 10.9106 46.1226 11.0864 46.3225 11.3063C46.5225 11.5263 46.6742 11.7857 46.7681 12.0677C46.8619 12.3498 46.8958 12.6484 46.8675 12.9443C46.8963 13.2405 46.8629 13.5395 46.7693 13.822C46.6757 14.1045 46.524 14.3644 46.324 14.5848C46.124 14.8052 45.8801 14.9813 45.608 15.1019C45.3359 15.2224 45.0416 15.2847 44.7439 15.2847C44.4463 15.2847 44.152 15.2224 43.8799 15.1019C43.6077 14.9813 43.3638 14.8052 43.1638 14.5848C42.9638 14.3644 42.8122 14.1045 42.7186 13.822C42.625 13.5395 42.5916 13.2405 42.6204 12.9443ZM45.9534 12.9443C45.9534 11.9682 45.5149 11.3974 44.7454 11.3974C43.9729 11.3974 43.5384 11.9682 43.5384 12.9443C43.5384 13.9282 43.973 14.4946 44.7454 14.4946C45.5149 14.4946 45.9534 13.9243 45.9534 12.9443H45.9534Z" fill="white"/>
<path d="M52.5127 15.1978H51.5908L50.6602 11.8813H50.5899L49.6631 15.1978H48.75L47.5088 10.6948H48.4102L49.2168 14.1308H49.2832L50.209 10.6948H51.0615L51.9873 14.1308H52.0576L52.8604 10.6948H53.749L52.5127 15.1978Z" fill="white"/>
<path d="M54.793 10.6949H55.6484V11.4102H55.7148C55.8275 11.1533 56.0175 10.9379 56.2584 10.7941C56.4992 10.6503 56.779 10.5852 57.0586 10.6079C57.2777 10.5915 57.4977 10.6245 57.7023 10.7046C57.9069 10.7847 58.0908 10.9098 58.2405 11.0707C58.3902 11.2315 58.5018 11.424 58.567 11.6338C58.6322 11.8436 58.6493 12.0654 58.6172 12.2827V15.1977H57.7285V12.5059C57.7285 11.7823 57.4141 11.4224 56.7568 11.4224C56.6081 11.4155 56.4596 11.4408 56.3215 11.4966C56.1835 11.5525 56.0591 11.6375 55.957 11.7459C55.8549 11.8543 55.7774 11.9834 55.7299 12.1246C55.6823 12.2657 55.6659 12.4154 55.6816 12.5635V15.1978H54.793L54.793 10.6949Z" fill="white"/>
<path d="M60.0332 8.93701H60.9219V15.1978H60.0332V8.93701Z" fill="white"/>
<path d="M62.1575 12.9444C62.1292 12.6484 62.1631 12.3499 62.2569 12.0678C62.3508 11.7857 62.5026 11.5263 62.7025 11.3064C62.9025 11.0864 63.1462 10.9106 63.4181 10.7903C63.69 10.67 63.984 10.6079 64.2813 10.6079C64.5786 10.6079 64.8726 10.67 65.1444 10.7903C65.4163 10.9106 65.66 11.0864 65.86 11.3064C66.06 11.5263 66.2117 11.7857 66.3056 12.0678C66.3995 12.3499 66.4333 12.6484 66.405 12.9444C66.4338 13.2406 66.4004 13.5396 66.3068 13.8221C66.2131 14.1046 66.0614 14.3645 65.8614 14.5849C65.6614 14.8053 65.4175 14.9814 65.1454 15.1019C64.8732 15.2225 64.5789 15.2847 64.2813 15.2847C63.9836 15.2847 63.6893 15.2225 63.4172 15.1019C63.145 14.9814 62.9011 14.8053 62.7011 14.5849C62.5011 14.3645 62.3494 14.1046 62.2558 13.8221C62.1622 13.5396 62.1287 13.2406 62.1575 12.9444ZM65.4905 12.9444C65.4905 11.9683 65.052 11.3975 64.2825 11.3975C63.51 11.3975 63.0755 11.9683 63.0755 12.9444C63.0755 13.9283 63.5101 14.4947 64.2825 14.4947C65.052 14.4947 65.4905 13.9244 65.4905 12.9444H65.4905Z" fill="white"/>
<path d="M67.3398 13.9243C67.3398 13.1138 67.9434 12.6465 69.0146 12.5801L70.2344 12.5098V12.1211C70.2344 11.6455 69.9199 11.377 69.3125 11.377C68.8164 11.377 68.4727 11.5591 68.374 11.8774H67.5137C67.6045 11.104 68.332 10.6079 69.3535 10.6079C70.4824 10.6079 71.1191 11.1699 71.1191 12.1211V15.1978H70.2637V14.5649H70.1934C70.0506 14.7919 69.8502 14.977 69.6126 15.1012C69.375 15.2254 69.1087 15.2843 68.8408 15.2719C68.6518 15.2916 68.4607 15.2714 68.28 15.2127C68.0992 15.154 67.9328 15.0581 67.7913 14.9311C67.6499 14.8042 67.5367 14.649 67.4589 14.4756C67.3812 14.3021 67.3406 14.1144 67.3398 13.9243ZM70.2344 13.5395V13.1631L69.1348 13.2334C68.5146 13.2749 68.2334 13.4858 68.2334 13.8828C68.2334 14.2881 68.5849 14.5239 69.0684 14.5239C69.21 14.5382 69.3531 14.5239 69.4891 14.4819C69.6251 14.4398 69.7513 14.3707 69.8601 14.2789C69.9688 14.1871 70.058 14.0743 70.1224 13.9473C70.1867 13.8202 70.2248 13.6816 70.2344 13.5395Z" fill="white"/>
<path d="M72.2871 12.9444C72.2871 11.5215 73.0186 10.6201 74.1562 10.6201C74.4377 10.6072 74.717 10.6746 74.9615 10.8145C75.206 10.9544 75.4057 11.161 75.5371 11.4101H75.6035V8.93701H76.4922V15.1978H75.6406V14.4863H75.5703C75.4287 14.7338 75.2221 14.9378 74.9728 15.0763C74.7236 15.2148 74.4412 15.2825 74.1563 15.272C73.0107 15.272 72.2871 14.3706 72.2871 12.9444ZM73.2051 12.9444C73.2051 13.8994 73.6553 14.4741 74.4082 14.4741C75.1572 14.4741 75.6201 13.8911 75.6201 12.9483C75.6201 12.0098 75.1524 11.4185 74.4082 11.4185C73.6602 11.4185 73.2051 11.9971 73.2051 12.9444H73.2051Z" fill="white"/>
<path d="M80.1692 12.9443C80.1409 12.6484 80.1748 12.3498 80.2686 12.0677C80.3624 11.7857 80.5142 11.5263 80.7141 11.3063C80.9141 11.0864 81.1578 10.9106 81.4296 10.7903C81.7015 10.67 81.9955 10.6079 82.2928 10.6079C82.59 10.6079 82.884 10.67 83.1559 10.7903C83.4277 10.9106 83.6714 11.0864 83.8714 11.3063C84.0713 11.5263 84.2231 11.7857 84.3169 12.0677C84.4107 12.3498 84.4446 12.6484 84.4163 12.9443C84.4451 13.2405 84.4117 13.5395 84.3181 13.822C84.2245 14.1045 84.0728 14.3644 83.8728 14.5848C83.6729 14.8052 83.429 14.9813 83.1568 15.1019C82.8847 15.2224 82.5904 15.2847 82.2928 15.2847C81.9951 15.2847 81.7008 15.2224 81.4287 15.1019C81.1566 14.9813 80.9127 14.8052 80.7127 14.5848C80.5127 14.3644 80.361 14.1045 80.2674 13.822C80.1738 13.5395 80.1404 13.2405 80.1692 12.9443ZM83.5022 12.9443C83.5022 11.9682 83.0637 11.3974 82.2942 11.3974C81.5218 11.3974 81.0872 11.9682 81.0872 12.9443C81.0872 13.9282 81.5218 14.4946 82.2942 14.4946C83.0638 14.4946 83.5022 13.9243 83.5022 12.9443Z" fill="white"/>
<path d="M85.6084 10.6949H86.4639V11.4102H86.5303C86.6429 11.1533 86.8329 10.9379 87.0738 10.7941C87.3147 10.6503 87.5944 10.5852 87.874 10.6079C88.0931 10.5915 88.3131 10.6245 88.5177 10.7046C88.7223 10.7847 88.9063 10.9098 89.056 11.0707C89.2056 11.2315 89.3172 11.424 89.3824 11.6338C89.4476 11.8436 89.4648 12.0654 89.4326 12.2827V15.1977H88.544V12.5059C88.544 11.7823 88.2295 11.4224 87.5723 11.4224C87.4235 11.4155 87.275 11.4408 87.137 11.4966C86.9989 11.5525 86.8745 11.6375 86.7724 11.7459C86.6703 11.8543 86.5928 11.9834 86.5453 12.1246C86.4978 12.2657 86.4813 12.4154 86.4971 12.5635V15.1978H85.6084V10.6949Z" fill="white"/>
<path d="M94.4541 9.57373V10.7153H95.4297V11.4639H94.4541V13.7793C94.4541 14.251 94.6484 14.4575 95.0908 14.4575C95.2041 14.4572 95.3172 14.4503 95.4297 14.437V15.1772C95.2701 15.2058 95.1084 15.221 94.9463 15.2226C93.958 15.2226 93.5645 14.875 93.5645 14.0068V11.4638H92.8496V10.7153H93.5645V9.57373H94.4541Z" fill="white"/>
<path d="M96.6445 8.93701H97.5254V11.4185H97.5957C97.7138 11.1591 97.9091 10.9425 98.1547 10.7982C98.4004 10.6539 98.6847 10.5888 98.9687 10.6118C99.1867 10.6 99.4045 10.6364 99.6068 10.7184C99.8091 10.8004 99.9908 10.9261 100.139 11.0864C100.287 11.2468 100.398 11.4378 100.464 11.646C100.53 11.8541 100.549 12.0742 100.519 12.2905V15.1978H99.6299V12.5098C99.6299 11.7905 99.2949 11.4263 98.667 11.4263C98.5143 11.4137 98.3607 11.4347 98.2169 11.4878C98.0731 11.5408 97.9427 11.6247 97.8347 11.7334C97.7267 11.8421 97.6437 11.9732 97.5917 12.1173C97.5396 12.2614 97.5197 12.4152 97.5332 12.5679V15.1977H96.6446L96.6445 8.93701Z" fill="white"/>
<path d="M105.701 13.982C105.58 14.3935 105.319 14.7495 104.962 14.9877C104.605 15.2258 104.176 15.331 103.75 15.2847C103.453 15.2926 103.158 15.2357 102.886 15.1182C102.613 15.0007 102.37 14.8253 102.172 14.6041C101.974 14.383 101.826 14.1214 101.74 13.8376C101.653 13.5538 101.629 13.2545 101.67 12.9605C101.63 12.6656 101.654 12.3657 101.741 12.081C101.827 11.7964 101.974 11.5336 102.171 11.3105C102.368 11.0874 102.61 10.9093 102.882 10.7881C103.154 10.6669 103.448 10.6054 103.746 10.608C104.999 10.608 105.755 11.464 105.755 12.878V13.1881H102.575V13.2379C102.561 13.4031 102.582 13.5695 102.636 13.7262C102.69 13.883 102.776 14.0267 102.889 14.1481C103.002 14.2696 103.139 14.3661 103.291 14.4315C103.444 14.4969 103.608 14.5297 103.774 14.5279C103.987 14.5534 104.202 14.5151 104.393 14.4179C104.584 14.3207 104.741 14.169 104.845 13.982L105.701 13.982ZM102.575 12.5308H104.849C104.86 12.3797 104.84 12.2279 104.789 12.0852C104.738 11.9425 104.658 11.812 104.553 11.7021C104.449 11.5923 104.323 11.5055 104.183 11.4473C104.043 11.3891 103.892 11.3609 103.741 11.3643C103.587 11.3624 103.435 11.3913 103.292 11.4492C103.15 11.5072 103.021 11.593 102.912 11.7017C102.803 11.8104 102.717 11.9398 102.66 12.0822C102.602 12.2246 102.573 12.3771 102.575 12.5308H102.575Z" fill="white"/>
</g>
<defs>
<clipPath id="clip0_5_52924">
<rect width="119.664" height="40" fill="white" transform="translate(0.939453 0.5)"/>
</clipPath>
</defs>
</svg>
