<svg width="30" height="30" viewBox="0 0 30 30" fill="none" xmlns="http://www.w3.org/2000/svg">
<path d="M14 15H11.82C12.62 15.5 13.35 16.07 14 16.68V15ZM10 14C10.27 8.88 12.37 5 15 5C17.66 5 19.77 8.94 20 14.12C21.5 13.43 23.17 13 25 13C19.25 15.57 21.25 25 15 25C9 25 10.93 15.57 5 13C6.82 13 8.5 13.4 10 14ZM14 14V12H11.24L11.03 14H14ZM14 11V9H12.05C11.8 9.6 11.6 10.27 11.43 11H14ZM14 8V6.3C13.45 6.63 12.95 7.22 12.5 8H14ZM15 6V8H16V9H15V11H17V12H15V14H18V15H15V17H17V18H15.23C16.42 19.45 17.15 21 17.32 22.23C18.31 20.56 18.96 17.84 19 14.76C18.94 10 17.13 6 15 6Z" fill="#333333"/>
</svg>
