<svg width="30" height="30" viewBox="0 0 30 30" fill="none" xmlns="http://www.w3.org/2000/svg">
<path fill-rule="evenodd" clip-rule="evenodd" d="M11.6667 6.11111C11.6667 5.81643 11.7837 5.53381 11.9921 5.32544C12.2005 5.11706 12.4831 5 12.7778 5H17.2222C17.5169 5 17.7995 5.11706 18.0079 5.32544C18.2163 5.53381 18.3333 5.81643 18.3333 6.11111C18.3333 6.4058 18.2163 6.68841 18.0079 6.89679C17.7995 7.10516 17.5169 7.22222 17.2222 7.22222H16.1111V8.37222C22.1556 8.91667 26.1222 15.1856 23.81 20.9678C23.7276 21.1741 23.5851 21.351 23.4011 21.4756C23.2171 21.6002 23 21.6667 22.7778 21.6667H7.22222C7.0002 21.6665 6.78331 21.5999 6.59952 21.4753C6.41573 21.3507 6.27348 21.174 6.19111 20.9678C3.87778 15.1856 7.84444 8.91667 13.8889 8.37222V7.22222H12.7778C12.4831 7.22222 12.2005 7.10516 11.9921 6.89679C11.7837 6.68841 11.6667 6.4058 11.6667 6.11111ZM14.7444 10.5556C10.0489 10.5556 6.76222 15.0589 8.01444 19.4444H21.9856C23.2378 15.0589 19.9511 10.5556 15.2556 10.5556H14.7444ZM5 23.8889C5 23.5942 5.11706 23.3116 5.32544 23.1032C5.53381 22.8948 5.81643 22.7778 6.11111 22.7778H23.8889C24.1836 22.7778 24.4662 22.8948 24.6746 23.1032C24.8829 23.3116 25 23.5942 25 23.8889C25 24.1836 24.8829 24.4662 24.6746 24.6746C24.4662 24.8829 24.1836 25 23.8889 25H6.11111C5.81643 25 5.53381 24.8829 5.32544 24.6746C5.11706 24.4662 5 24.1836 5 23.8889Z" fill="#333333"/>
</svg>
