<svg width="28" height="28" viewBox="0 0 28 28" fill="none" xmlns="http://www.w3.org/2000/svg">
<rect x="0.5" y="0.5" width="27" height="27" rx="13.5" fill="white"/>
<rect x="0.5" y="0.5" width="27" height="27" rx="13.5" stroke="#539F80"/>
<path fill-rule="evenodd" clip-rule="evenodd" d="M15.8511 11.8068C15.3527 11.3314 14.6875 11.0724 13.9993 11.0831C12.7399 11.0831 11.6703 11.9327 11.2889 13.0768C11.0867 13.6764 11.0867 14.3256 11.2889 14.9252H11.2907C11.6738 16.0675 12.7417 16.9171 14.0011 16.9171C14.6512 16.9171 15.2093 16.7509 15.6418 16.4572V16.456C16.1509 16.1189 16.4986 15.5886 16.6068 14.989H13.9993V13.1301H18.5527C18.6094 13.4529 18.636 13.7828 18.636 14.111C18.636 15.5793 18.1113 16.8206 17.1983 17.6614L17.1992 17.6621C16.3993 18.4 15.3013 18.8275 13.9993 18.8275C12.174 18.8275 10.5049 17.7987 9.68539 16.1686C9.0007 14.8045 9.0007 13.1975 9.68539 11.8334C10.5049 10.2015 12.174 9.17269 13.9993 9.17269C15.1984 9.1585 16.3567 9.60905 17.2294 10.4285L15.8511 11.8068Z" fill="#539F80"/>
</svg>
