<svg width="136" height="41" viewBox="0 0 136 41" fill="none" xmlns="http://www.w3.org/2000/svg">
<g clip-path="url(#clip0_5_52877)">
<path fill-rule="evenodd" clip-rule="evenodd" d="M130.602 40.5H5.60536C2.84863 40.5 0.603516 38.2456 0.603516 35.5V5.5C0.603516 2.74439 2.84863 0.5 5.60536 0.5H130.602C133.356 0.5 135.604 2.74439 135.604 5.5V35.5C135.604 38.2456 133.356 40.5 130.602 40.5Z" fill="#539F80"/>
<path fill-rule="evenodd" clip-rule="evenodd" d="M130.602 1.3005C132.914 1.3005 134.806 3.18828 134.806 5.5V35.5C134.806 37.8117 132.926 39.6995 130.602 39.6995H5.60536C3.29318 39.6995 1.40073 37.8117 1.40073 35.5V5.5C1.40073 3.18828 3.28077 1.3005 5.60536 1.3005H130.602ZM130.602 0.5H5.60536C2.84863 0.5 0.603516 2.75436 0.603516 5.5V35.5C0.603516 38.2556 2.84863 40.5 5.60536 40.5H130.602C133.356 40.5 135.604 38.2556 135.604 35.5V5.5C135.604 2.75436 133.356 0.5 130.602 0.5Z" fill="#E0E0E0"/>
<path d="M71.7217 13.732C70.8202 13.732 70.0602 13.4153 69.4592 12.7918C68.8631 12.1858 68.5304 11.3504 68.5453 10.4975C68.5453 9.58732 68.8532 8.81675 69.4592 8.20577C70.0577 7.58233 70.8177 7.26562 71.7192 7.26562C72.6108 7.26562 73.3707 7.58233 73.9817 8.20577C74.5877 8.8367 74.8956 9.60727 74.8956 10.4975C74.8857 11.4103 74.5777 12.1808 73.9817 12.7893C73.3832 13.4177 72.6232 13.732 71.7217 13.732ZM44.8972 13.732C44.0155 13.732 43.2506 13.4202 42.6248 12.8043C42.0039 12.1908 41.6885 11.4153 41.6885 10.5C41.6885 9.58483 42.0039 8.80927 42.6248 8.1958C43.2382 7.57984 44.0031 7.26812 44.8972 7.26812C45.3343 7.26812 45.759 7.3554 46.1663 7.53246C46.5661 7.70453 46.8914 7.93894 47.1324 8.22572L47.192 8.29804L46.5189 8.96139L46.4494 8.87909C46.0694 8.42523 45.5603 8.20328 44.8872 8.20328C44.2862 8.20328 43.7622 8.41774 43.3301 8.84169C42.8955 9.26812 42.6744 9.82672 42.6744 10.5025C42.6744 11.1783 42.8955 11.7369 43.3301 12.1634C43.7622 12.5873 44.2862 12.8018 44.8872 12.8018C45.528 12.8018 46.0669 12.5873 46.4866 12.1634C46.735 11.914 46.889 11.5649 46.9436 11.1235H44.7854V10.1908H47.87L47.8824 10.2756C47.9047 10.4327 47.9271 10.5948 47.9271 10.7444C47.9271 11.6048 47.6688 12.3005 47.1572 12.8143C46.576 13.4227 45.8161 13.732 44.8972 13.732ZM80.563 13.5998H79.6118L76.6987 8.91899L76.7235 9.76188V13.5973H75.7723V7.40029H76.8576L76.8874 7.44767L79.6267 11.8566L79.6019 11.0162V7.40029H80.563V13.5998ZM64.5741 13.5998H63.6105V8.33296H61.9391V7.40029H66.243V8.33296H64.5716V13.5998H64.5741ZM61.1543 13.5998H60.1932V7.40029H61.1543V13.5998ZM55.7527 13.5998H54.7915V8.33296H53.1201V7.40029H57.4241V8.33296H55.7527V13.5998ZM52.5117 13.5898H48.8261V7.40029H52.5117V8.33296H49.7897V10.0337H52.2459V10.9564H49.7897V12.6571H52.5117V13.5898ZM70.1645 12.1509C70.5942 12.5823 71.1157 12.7993 71.7217 12.7993C72.345 12.7993 72.8542 12.5873 73.2789 12.1509C73.701 11.727 73.9146 11.1709 73.9146 10.5C73.9146 9.82922 73.701 9.27061 73.2813 8.84917C72.8517 8.41774 72.3277 8.20079 71.7242 8.20079C71.1008 8.20079 70.5917 8.41276 70.1695 8.84917C69.7473 9.27311 69.5337 9.82922 69.5337 10.5C69.5337 11.1709 69.7448 11.7295 70.1645 12.1509Z" fill="white"/>
<path fill-rule="evenodd" clip-rule="evenodd" d="M68.4563 22.2554C66.1094 22.2554 64.207 24.0434 64.207 26.5098C64.207 28.9537 66.1218 30.7641 68.4563 30.7641C70.8033 30.7641 72.7057 28.9636 72.7057 26.5098C72.7057 24.0434 70.8033 22.2554 68.4563 22.2554ZM68.4563 29.0784C67.1723 29.0784 66.0672 28.011 66.0672 26.4998C66.0672 24.9661 67.1748 23.9213 68.4563 23.9213C69.7403 23.9213 70.8455 24.9661 70.8455 26.4998C70.848 28.021 69.7403 29.0784 68.4563 29.0784ZM59.1853 22.2554C56.8383 22.2554 54.9359 24.0434 54.9359 26.5098C54.9359 28.9537 56.8508 30.7641 59.1853 30.7641C61.5322 30.7641 63.4346 28.9636 63.4346 26.5098C63.4346 24.0434 61.5297 22.2554 59.1853 22.2554ZM59.1853 29.0784C57.9013 29.0784 56.7961 28.011 56.7961 26.4998C56.7961 24.9661 57.9038 23.9213 59.1853 23.9213C60.4693 23.9213 61.5744 24.9661 61.5744 26.4998C61.5744 28.021 60.4693 29.0784 59.1853 29.0784ZM48.1534 23.5547V25.3552H52.4574C52.3257 26.3651 51.9929 27.1108 51.4838 27.622C50.853 28.2554 49.8795 28.9437 48.1633 28.9437C45.5184 28.9437 43.4496 26.7991 43.4496 24.1432C43.4496 21.4873 45.5184 19.3427 48.1633 19.3427C49.5914 19.3427 50.632 19.9088 51.4044 20.632L52.6759 19.3552C51.603 18.3227 50.175 17.5322 48.1733 17.5322C44.5448 17.5322 41.5 20.4998 41.5 24.1332C41.5 27.7766 44.5423 30.7342 48.1733 30.7342C50.1328 30.7342 51.603 30.0908 52.7653 28.8789C53.95 27.6893 54.325 26.011 54.325 24.6569C54.325 24.2355 54.2927 23.8564 54.2257 23.5347H48.1509C48.1534 23.5322 48.1534 23.5547 48.1534 23.5547ZM93.2768 24.9562C92.9217 24.0011 91.8488 22.2454 89.6484 22.2454C87.4678 22.2454 85.6548 23.9686 85.6548 26.4998C85.6548 28.8888 87.4479 30.7542 89.8595 30.7542C91.7966 30.7542 92.9241 29.5646 93.3886 28.8664L91.9506 27.8988C91.4738 28.6095 90.8107 29.0759 89.8694 29.0759C88.9182 29.0759 88.2526 28.642 87.8105 27.7866L93.4755 25.43C93.4755 25.4325 93.2768 24.9562 93.2768 24.9562ZM87.5001 26.3776C87.4554 24.7342 88.7717 23.8988 89.7129 23.8988C90.4555 23.8988 91.0739 24.2654 91.285 24.7991L87.5001 26.3776ZM82.8981 30.4998H84.7583V18.0011H82.8981V30.4998ZM79.8434 23.2006H79.7763C79.3566 22.6993 78.5594 22.2454 77.5411 22.2454C75.4276 22.2454 73.4805 24.1133 73.4805 26.5123C73.4805 28.9013 75.4177 30.7467 77.5411 30.7467C78.5469 30.7467 79.3566 30.2903 79.7763 29.7791H79.8434V30.3901C79.8434 32.0135 78.9791 32.8888 77.5858 32.8888C76.4459 32.8888 75.7381 32.0659 75.45 31.3776L73.8332 32.0559C74.2976 33.1781 75.5369 34.5671 77.5833 34.5671C79.7639 34.5671 81.6116 33.2779 81.6116 30.1332V22.4998H79.8533V23.2006C79.8558 23.2006 79.8434 23.2006 79.8434 23.2006ZM77.7075 29.0784C76.4235 29.0784 75.3506 28.0011 75.3506 26.5123C75.3506 25.011 76.4235 23.9237 77.7075 23.9237C78.9791 23.9237 79.965 25.0235 79.965 26.5123C79.9775 28.0011 78.9816 29.0784 77.7075 29.0784ZM101.987 18.0011H97.5386V30.4998H99.3987V25.7666H101.989C104.048 25.7666 106.072 24.2679 106.072 21.8888C106.072 19.5098 104.055 18.0011 101.987 18.0011ZM102.041 24.021H99.3962V19.7317H102.041C103.434 19.7317 104.222 20.8863 104.222 21.8764C104.222 22.8564 103.425 24.021 102.041 24.021ZM113.528 22.233C112.177 22.233 110.783 22.834 110.207 24.1432L111.856 24.8315C112.211 24.1432 112.862 23.9088 113.55 23.9088C114.514 23.9088 115.487 24.4873 115.509 25.5198V25.6519C115.177 25.4624 114.446 25.1731 113.572 25.1731C111.792 25.1731 109.986 26.1507 109.986 27.9836C109.986 29.6619 111.446 30.7392 113.073 30.7392C114.322 30.7392 115.01 30.1731 115.44 29.5173H115.507V30.4848H117.3V25.6968C117.3 23.4674 115.651 22.233 113.528 22.233ZM113.294 29.0784C112.686 29.0784 111.834 28.7791 111.834 28.011C111.834 27.0434 112.897 26.6769 113.803 26.6769C114.623 26.6769 115.01 26.8539 115.497 27.0983C115.363 28.2205 114.419 29.0684 113.294 29.0784ZM123.842 22.4998L121.706 27.9213H121.639L119.426 22.4998H117.424L120.745 30.0784L118.852 34.2903H120.789L125.898 22.4998H123.842ZM107.098 30.4998H108.958V18.0011H107.098V30.4998Z" fill="white"/>
<path fill-rule="evenodd" clip-rule="evenodd" d="M10.9945 8.03364C10.7064 8.34536 10.54 8.82167 10.54 9.44511V31.5573C10.54 32.1808 10.7064 32.6571 11.0045 32.9563L11.0814 33.0237L23.4197 20.6346V20.3578L11.0715 7.96631L10.9945 8.03364Z" fill="url(#paint0_linear_5_52877)"/>
<path fill-rule="evenodd" clip-rule="evenodd" d="M27.5254 24.7768L23.4102 20.6446V20.3553L27.5254 16.2231L27.6148 16.278L32.4826 19.0561C33.8758 19.8441 33.8758 21.1458 32.4826 21.9438L27.6148 24.7219L27.5254 24.7768Z" fill="url(#paint1_linear_5_52877)"/>
<path fill-rule="evenodd" clip-rule="evenodd" d="M27.614 24.7219L23.4093 20.5L10.9941 32.9663C11.4486 33.4551 12.2111 33.51 13.0629 33.0337L27.614 24.7219Z" fill="url(#paint2_linear_5_52877)"/>
<path fill-rule="evenodd" clip-rule="evenodd" d="M27.614 16.2779L13.0629 7.97869C12.2111 7.48992 11.4461 7.55725 10.9941 8.04603L23.4093 20.4999L27.614 16.2779Z" fill="url(#paint3_linear_5_52877)"/>
<path opacity="0.2" fill-rule="evenodd" clip-rule="evenodd" d="M27.5254 24.6323L13.0737 32.8767C12.2665 33.343 11.5463 33.3106 11.0819 32.8867L11.0049 32.964L11.0819 33.0313C11.5463 33.4527 12.2665 33.4877 13.0737 33.0213L27.6248 24.7221L27.5254 24.6323Z" fill="#539F80"/>
<path opacity="0.12" fill-rule="evenodd" clip-rule="evenodd" d="M32.4822 21.7993L27.5127 24.6322L27.6021 24.7219L32.4698 21.9439C33.1677 21.5449 33.5104 21.0212 33.5104 20.5C33.4682 20.9788 33.1131 21.4327 32.4822 21.7993Z" fill="#539F80"/>
<path opacity="0.25" fill-rule="evenodd" clip-rule="evenodd" d="M13.0633 8.12329L32.4821 19.2006C33.1129 19.5572 33.468 20.0235 33.5227 20.4999C33.5227 19.9787 33.1799 19.455 32.4821 19.056L13.0633 7.97866C11.67 7.17816 10.54 7.84649 10.54 9.44499V9.58963C10.54 7.98863 11.67 7.33277 13.0633 8.12329Z" fill="white"/>
</g>
<defs>
<linearGradient id="paint0_linear_5_52877" x1="22.3129" y1="9.20654" x2="2.53853" y2="14.4538" gradientUnits="userSpaceOnUse">
<stop stop-color="#00A0FF"/>
<stop offset="0.00657" stop-color="#00A1FF"/>
<stop offset="0.2601" stop-color="#00BEFF"/>
<stop offset="0.5122" stop-color="#00D2FF"/>
<stop offset="0.7604" stop-color="#00DFFF"/>
<stop offset="1" stop-color="#00E3FF"/>
</linearGradient>
<linearGradient id="paint1_linear_5_52877" x1="34.2995" y1="20.5" x2="10.2018" y2="20.5" gradientUnits="userSpaceOnUse">
<stop stop-color="#FFE000"/>
<stop offset="0.4087" stop-color="#FFBD00"/>
<stop offset="0.7754" stop-color="#FFA500"/>
<stop offset="1" stop-color="#FF9C00"/>
</linearGradient>
<linearGradient id="paint2_linear_5_52877" x1="25.3276" y1="22.7973" x2="9.36487" y2="49.5538" gradientUnits="userSpaceOnUse">
<stop stop-color="#FF3A44"/>
<stop offset="1" stop-color="#C31162"/>
</linearGradient>
<linearGradient id="paint3_linear_5_52877" x1="7.86786" y1="0.678683" x2="14.9895" y2="12.6286" gradientUnits="userSpaceOnUse">
<stop stop-color="#32A071"/>
<stop offset="0.0685" stop-color="#2DA771"/>
<stop offset="0.4762" stop-color="#15CF74"/>
<stop offset="0.8009" stop-color="#06E775"/>
<stop offset="1" stop-color="#00F076"/>
</linearGradient>
<clipPath id="clip0_5_52877">
<rect width="135" height="40" fill="white" transform="translate(0.603516 0.5)"/>
</clipPath>
</defs>
</svg>
