<svg width="28" height="30" viewBox="0 0 28 30" fill="none" xmlns="http://www.w3.org/2000/svg">
<path fill-rule="evenodd" clip-rule="evenodd" d="M22.05 7.9H6.85C6.59804 7.9 6.35641 8.00009 6.17825 8.17825C6.00009 8.35641 5.9 8.59804 5.9 8.85V22.15C5.9 22.402 6.00009 22.6436 6.17825 22.8218C6.35641 22.9999 6.59804 23.1 6.85 23.1H22.05C22.302 23.1 22.5436 22.9999 22.7218 22.8218C22.8999 22.6436 23 22.402 23 22.15V8.85C23 8.59804 22.8999 8.35641 22.7218 8.17825C22.5436 8.00009 22.302 7.9 22.05 7.9ZM6.85 6C6.09413 6 5.36922 6.30027 4.83475 6.83475C4.30027 7.36922 4 8.09413 4 8.85V22.15C4 22.9059 4.30027 23.6308 4.83475 24.1653C5.36922 24.6997 6.09413 25 6.85 25H22.05C22.8059 25 23.5308 24.6997 24.0653 24.1653C24.5997 23.6308 24.9 22.9059 24.9 22.15V8.85C24.9 8.09413 24.5997 7.36922 24.0653 6.83475C23.5308 6.30027 22.8059 6 22.05 6H6.85ZM8.75 10.75H10.65V12.65H8.75V10.75ZM13.5 10.75C13.248 10.75 13.0064 10.8501 12.8282 11.0282C12.6501 11.2064 12.55 11.448 12.55 11.7C12.55 11.952 12.6501 12.1936 12.8282 12.3718C13.0064 12.5499 13.248 12.65 13.5 12.65H19.2C19.452 12.65 19.6936 12.5499 19.8718 12.3718C20.0499 12.1936 20.15 11.952 20.15 11.7C20.15 11.448 20.0499 11.2064 19.8718 11.0282C19.6936 10.8501 19.452 10.75 19.2 10.75H13.5ZM10.65 14.55H8.75V16.45H10.65V14.55ZM12.55 15.5C12.55 15.248 12.6501 15.0064 12.8282 14.8282C13.0064 14.6501 13.248 14.55 13.5 14.55H19.2C19.452 14.55 19.6936 14.6501 19.8718 14.8282C20.0499 15.0064 20.15 15.248 20.15 15.5C20.15 15.752 20.0499 15.9936 19.8718 16.1718C19.6936 16.3499 19.452 16.45 19.2 16.45H13.5C13.248 16.45 13.0064 16.3499 12.8282 16.1718C12.6501 15.9936 12.55 15.752 12.55 15.5ZM10.65 18.35H8.75V20.25H10.65V18.35ZM12.55 19.3C12.55 19.048 12.6501 18.8064 12.8282 18.6282C13.0064 18.4501 13.248 18.35 13.5 18.35H19.2C19.452 18.35 19.6936 18.4501 19.8718 18.6282C20.0499 18.8064 20.15 19.048 20.15 19.3C20.15 19.552 20.0499 19.7936 19.8718 19.9718C19.6936 20.1499 19.452 20.25 19.2 20.25H13.5C13.248 20.25 13.0064 20.1499 12.8282 19.9718C12.6501 19.7936 12.55 19.552 12.55 19.3Z" fill="#333333"/>
</svg>
