<svg width="35" height="30" viewBox="0 0 35 30" fill="none" xmlns="http://www.w3.org/2000/svg">
<path d="M10.3125 7.85714C10.3125 6.28125 11.6018 5 13.1875 5H26.125C27.7107 5 29 6.28125 29 7.85714V22.1429C29 23.7188 27.7107 25 26.125 25H9.59375C7.6082 25 6 23.4018 6 21.4286V9.28571C6 8.49554 6.64238 7.85714 7.4375 7.85714C8.23262 7.85714 8.875 8.49554 8.875 9.28571V21.4286C8.875 21.8214 9.19844 22.1429 9.59375 22.1429C9.98906 22.1429 10.3125 21.8214 10.3125 21.4286V7.85714ZM13.1875 8.92857V12.5C13.1875 13.0938 13.6682 13.5714 14.2656 13.5714H19.2969C19.8943 13.5714 20.375 13.0938 20.375 12.5V8.92857C20.375 8.33482 19.8943 7.85714 19.2969 7.85714H14.2656C13.6682 7.85714 13.1875 8.33482 13.1875 8.92857ZM22.5312 8.57143C22.5312 8.96429 22.8547 9.28571 23.25 9.28571H25.4062C25.8016 9.28571 26.125 8.96429 26.125 8.57143C26.125 8.17857 25.8016 7.85714 25.4062 7.85714H23.25C22.8547 7.85714 22.5312 8.17857 22.5312 8.57143ZM22.5312 12.8571C22.5312 13.25 22.8547 13.5714 23.25 13.5714H25.4062C25.8016 13.5714 26.125 13.25 26.125 12.8571C26.125 12.4643 25.8016 12.1429 25.4062 12.1429H23.25C22.8547 12.1429 22.5312 12.4643 22.5312 12.8571ZM13.1875 17.1429C13.1875 17.5357 13.5109 17.8571 13.9062 17.8571H25.4062C25.8016 17.8571 26.125 17.5357 26.125 17.1429C26.125 16.75 25.8016 16.4286 25.4062 16.4286H13.9062C13.5109 16.4286 13.1875 16.75 13.1875 17.1429ZM13.1875 21.4286C13.1875 21.8214 13.5109 22.1429 13.9062 22.1429H25.4062C25.8016 22.1429 26.125 21.8214 26.125 21.4286C26.125 21.0357 25.8016 20.7143 25.4062 20.7143H13.9062C13.5109 20.7143 13.1875 21.0357 13.1875 21.4286Z" fill="#333333"/>
</svg>
