<svg width="30" height="30" viewBox="0 0 30 30" fill="none" xmlns="http://www.w3.org/2000/svg">
<path d="M23.9682 5L17.6311 7.37197L19.9054 8.80116C15.8426 13.9008 9.96561 17.042 5 18.2376L6.40671 20.7917C11.9862 18.979 17.8934 15.7092 21.6982 9.9325L23.4308 11.021L23.9682 5ZM24.2992 10.0011L24.0929 12.3495L21.8874 10.961C21.81 11.0767 21.7283 11.1881 21.6466 11.3038V25H25V10.0011H24.2992ZM17.8246 15.4864C17.2786 15.9578 16.7154 16.4035 16.1436 16.8234V25H19.497V15.4864H17.8246ZM12.5064 19.0861C11.8874 19.4118 11.2683 19.7118 10.6406 19.9946V25H13.994V19.0861H12.5064ZM5.13758 20.9717V25H8.49097V20.9717H8.24678C7.60963 21.2074 6.97291 21.426 6.34007 21.6274L6.03654 21.7217L5.62382 20.9717H5.13758Z" fill="#333333"/>
</svg>
