<svg width="16" height="16" viewBox="0 0 16 16" fill="none" xmlns="http://www.w3.org/2000/svg">
<path d="M15.0005 15L10.3338 10.3333M1.00049 6.44444C1.00049 7.15942 1.14131 7.86739 1.41492 8.52794C1.68853 9.18849 2.08957 9.78868 2.59513 10.2942C3.10069 10.7998 3.70088 11.2008 4.36143 11.4745C5.02198 11.7481 5.72996 11.8889 6.44493 11.8889C7.15991 11.8889 7.86788 11.7481 8.52843 11.4745C9.18898 11.2008 9.78917 10.7998 10.2947 10.2942C10.8003 9.78868 11.2013 9.18849 11.4749 8.52794C11.7486 7.86739 11.8894 7.15942 11.8894 6.44444C11.8894 5.72947 11.7486 5.0215 11.4749 4.36095C11.2013 3.7004 10.8003 3.1002 10.2947 2.59464C9.78917 2.08908 9.18898 1.68804 8.52843 1.41443C7.86788 1.14082 7.15991 1 6.44493 1C5.72996 1 5.02198 1.14082 4.36143 1.41443C3.70088 1.68804 3.10069 2.08908 2.59513 2.59464C2.08957 3.1002 1.68853 3.7004 1.41492 4.36095C1.14131 5.0215 1.00049 5.72947 1.00049 6.44444Z" stroke="#539F80" stroke-width="2" stroke-linecap="round" stroke-linejoin="round"/>
</svg>
