<svg width="28" height="28" viewBox="0 0 28 28" fill="none" xmlns="http://www.w3.org/2000/svg">
<rect x="0.5" y="0.5" width="27" height="27" rx="13.5" fill="white"/>
<rect x="0.5" y="0.5" width="27" height="27" rx="13.5" stroke="#539F80"/>
<path fill-rule="evenodd" clip-rule="evenodd" d="M8.52455 13.3289C11.652 11.9663 13.7374 11.068 14.7809 10.634C17.7601 9.39481 18.3792 9.17955 18.7827 9.17244C18.8715 9.17088 19.0699 9.19287 19.1984 9.29717C19.307 9.38523 19.3368 9.5042 19.3511 9.58769C19.3654 9.67119 19.3832 9.8614 19.369 10.01C19.2076 11.7064 18.509 15.8229 18.1536 17.7229C18.0032 18.5268 17.7071 18.7964 17.4205 18.8228C16.7975 18.8801 16.3244 18.411 15.721 18.0155C14.7768 17.3966 14.2434 17.0113 13.3269 16.4073C12.2677 15.7093 12.9543 15.3257 13.5579 14.6987C13.7159 14.5347 16.4608 12.0379 16.514 11.8115C16.5206 11.7831 16.5268 11.6775 16.464 11.6218C16.4013 11.566 16.3087 11.5851 16.2419 11.6003C16.1472 11.6218 14.6388 12.6187 11.7168 14.5912C11.2886 14.8852 10.9008 15.0284 10.5534 15.0209C10.1703 15.0127 9.43352 14.8044 8.88577 14.6263C8.21392 14.4079 7.67996 14.2924 7.72646 13.9216C7.75067 13.7284 8.01671 13.5308 8.52455 13.3289Z" fill="#539F80"/>
</svg>
