<svg width="474" height="203" viewBox="0 0 474 203" fill="none" xmlns="http://www.w3.org/2000/svg">
<path d="M35.0793 3.32764V190.354" stroke="#F0F0F0" stroke-width="0.946428"/>
<path d="M103.847 3.32764V190.354" stroke="#F0F0F0" stroke-width="0.946428"/>
<path d="M170.617 3.32764V190.354" stroke="#F0F0F0" stroke-width="0.946428"/>
<path d="M239.384 3.32764V190.354" stroke="#F0F0F0" stroke-width="0.946428"/>
<path d="M307.205 3.32764V190.354" stroke="#F0F0F0" stroke-width="0.946428"/>
<path d="M374.972 3.32764V190.354" stroke="#F0F0F0" stroke-width="0.946428"/>
<path d="M442.685 3.32764V190.354" stroke="#F0F0F0" stroke-width="0.946428"/>
<path d="M25.5537 190.687H473.214" stroke="#F0F0F0" stroke-width="0.946428"/>
<path d="M25.5537 153.415H473.214" stroke="#F0F0F0" stroke-width="0.946428"/>
<path d="M25.5537 116.143H473.214" stroke="#F0F0F0" stroke-width="0.946428"/>
<path d="M25.5537 78.2051H473.214" stroke="#F0F0F0" stroke-width="0.946428"/>
<path d="M25.5537 40.9326H473.214" stroke="#F0F0F0" stroke-width="0.946428"/>
<path d="M25.5537 2.99512H473.214" stroke="#F0F0F0" stroke-width="0.946428"/>
<path d="M25.5537 190.687H473.214" stroke="#F0F0F0" stroke-width="0.946428"/>
<path d="M15.8695 192.126V193.151C15.8695 193.703 15.8202 194.168 15.7216 194.547C15.623 194.926 15.4813 195.231 15.2964 195.462C15.1116 195.693 14.8882 195.861 14.6264 195.966C14.3676 196.067 14.0749 196.118 13.7483 196.118C13.4895 196.118 13.2508 196.086 13.032 196.021C12.8133 195.957 12.6161 195.853 12.4405 195.712C12.268 195.567 12.1201 195.379 11.9969 195.148C11.8736 194.917 11.7797 194.636 11.715 194.307C11.6503 193.977 11.6179 193.592 11.6179 193.151V192.126C11.6179 191.574 11.6672 191.112 11.7658 190.739C11.8675 190.366 12.0107 190.068 12.1956 189.843C12.3804 189.615 12.6023 189.451 12.8611 189.353C13.1229 189.254 13.4156 189.205 13.7391 189.205C14.001 189.205 14.2413 189.237 14.46 189.302C14.6818 189.364 14.879 189.464 15.0515 189.602C15.224 189.738 15.3704 189.92 15.4905 190.148C15.6138 190.373 15.7077 190.648 15.7724 190.975C15.8371 191.301 15.8695 191.685 15.8695 192.126ZM15.0099 193.29V191.982C15.0099 191.68 14.9914 191.415 14.9545 191.187C14.9206 190.956 14.8697 190.759 14.802 190.596C14.7342 190.433 14.6479 190.3 14.5432 190.199C14.4415 190.097 14.3229 190.023 14.1873 189.977C14.0549 189.927 13.9054 189.903 13.7391 189.903C13.5358 189.903 13.3555 189.941 13.1984 190.018C13.0413 190.092 12.9088 190.211 12.801 190.374C12.6962 190.537 12.6161 190.752 12.5607 191.016C12.5052 191.281 12.4775 191.603 12.4775 191.982V193.29C12.4775 193.592 12.4944 193.859 12.5283 194.09C12.5653 194.321 12.6192 194.521 12.6901 194.69C12.7609 194.857 12.8472 194.994 12.9489 195.102C13.0505 195.209 13.1676 195.29 13.3001 195.342C13.4356 195.391 13.585 195.416 13.7483 195.416C13.9578 195.416 14.1411 195.376 14.2983 195.296C14.4554 195.216 14.5863 195.091 14.6911 194.921C14.7989 194.749 14.879 194.529 14.9314 194.261C14.9837 193.989 15.0099 193.666 15.0099 193.29Z" fill="#A3A3A3"/>
<path d="M10.0515 157.385V158.088H5.64743V157.473L7.85176 155.019C8.12287 154.717 8.33237 154.462 8.48025 154.252C8.63121 154.04 8.73596 153.85 8.79449 153.684C8.85611 153.514 8.88692 153.342 8.88692 153.166C8.88692 152.944 8.8407 152.744 8.74828 152.566C8.65894 152.384 8.52646 152.239 8.35085 152.131C8.17525 152.023 7.96267 151.969 7.71312 151.969C7.41428 151.969 7.16474 152.028 6.96448 152.145C6.76731 152.259 6.61943 152.419 6.52085 152.626C6.42226 152.832 6.37297 153.069 6.37297 153.337H5.51804C5.51804 152.958 5.60122 152.612 5.76759 152.297C5.93395 151.983 6.18042 151.734 6.50698 151.549C6.83355 151.361 7.2356 151.267 7.71312 151.267C8.13828 151.267 8.50181 151.342 8.80373 151.493C9.10565 151.641 9.33672 151.851 9.49692 152.122C9.6602 152.39 9.74184 152.704 9.74184 153.065C9.74184 153.262 9.70795 153.462 9.64018 153.665C9.57548 153.866 9.48459 154.066 9.36752 154.266C9.25353 154.466 9.11952 154.664 8.96548 154.858C8.81452 155.052 8.65277 155.243 8.48025 155.431L6.67797 157.385H10.0515ZM12.0478 154.885L11.3639 154.71L11.7012 151.359H15.1533V152.15H12.4268L12.2234 153.98C12.3467 153.909 12.5023 153.843 12.6902 153.781C12.8812 153.719 13.0999 153.688 13.3464 153.688C13.6576 153.688 13.9364 153.742 14.1828 153.85C14.4293 153.955 14.6388 154.106 14.8113 154.303C14.9869 154.5 15.121 154.737 15.2134 155.015C15.3058 155.292 15.352 155.602 15.352 155.944C15.352 156.267 15.3073 156.564 15.218 156.836C15.1317 157.107 15.0008 157.344 14.8252 157.547C14.6496 157.747 14.4278 157.903 14.1597 158.014C13.8948 158.125 13.5821 158.18 13.2216 158.18C12.9505 158.18 12.6933 158.143 12.4499 158.069C12.2096 157.992 11.9939 157.877 11.8029 157.723C11.615 157.566 11.4609 157.372 11.3408 157.141C11.2237 156.906 11.1498 156.632 11.119 156.318H11.9323C11.9693 156.571 12.0432 156.783 12.1541 156.956C12.265 157.128 12.4098 157.259 12.5885 157.348C12.7703 157.435 12.9813 157.478 13.2216 157.478C13.425 157.478 13.6052 157.442 13.7623 157.372C13.9194 157.301 14.0519 157.199 14.1597 157.067C14.2676 156.934 14.3492 156.774 14.4047 156.586C14.4632 156.398 14.4925 156.187 14.4925 155.953C14.4925 155.74 14.4632 155.543 14.4047 155.361C14.3461 155.18 14.2583 155.021 14.1413 154.885C14.0273 154.75 13.8871 154.645 13.7207 154.571C13.5544 154.494 13.3633 154.456 13.1477 154.456C12.8612 154.456 12.644 154.494 12.4961 154.571C12.3513 154.648 12.2019 154.753 12.0478 154.885Z" fill="#A3A3A3"/>
<path d="M6.72418 117.613L6.04024 117.438L6.37759 114.087H9.82965V114.878H7.10312L6.89979 116.708C7.02302 116.637 7.1786 116.571 7.36653 116.509C7.55754 116.447 7.77628 116.417 8.02275 116.417C8.33391 116.417 8.61272 116.47 8.85919 116.578C9.10565 116.683 9.31515 116.834 9.48768 117.031C9.66328 117.228 9.7973 117.466 9.88972 117.743C9.98215 118.02 10.0284 118.33 10.0284 118.672C10.0284 118.995 9.98369 119.292 9.89434 119.564C9.80808 119.835 9.67715 120.072 9.50154 120.275C9.32593 120.475 9.10411 120.631 8.83608 120.742C8.57113 120.853 8.25843 120.908 7.89797 120.908C7.62686 120.908 7.36961 120.871 7.12623 120.797C6.88592 120.72 6.67027 120.605 6.47926 120.451C6.29133 120.294 6.13728 120.1 6.01713 119.869C5.90006 119.634 5.82612 119.36 5.79531 119.046H6.60865C6.64562 119.299 6.71956 119.511 6.83047 119.684C6.94138 119.856 7.08618 119.987 7.26486 120.077C7.44663 120.163 7.65767 120.206 7.89797 120.206C8.10131 120.206 8.28153 120.17 8.43866 120.1C8.59578 120.029 8.72825 119.927 8.83608 119.795C8.94391 119.662 9.02555 119.502 9.08101 119.314C9.13954 119.126 9.16881 118.915 9.16881 118.681C9.16881 118.468 9.13954 118.271 9.08101 118.089C9.02247 117.908 8.93467 117.749 8.8176 117.613C8.70361 117.478 8.56343 117.373 8.39707 117.299C8.2307 117.222 8.03969 117.184 7.82403 117.184C7.53752 117.184 7.32032 117.222 7.17244 117.299C7.02764 117.376 6.87822 117.481 6.72418 117.613ZM15.1903 116.916V117.942C15.1903 118.493 15.141 118.958 15.0424 119.337C14.9438 119.716 14.8021 120.021 14.6172 120.252C14.4324 120.483 14.209 120.651 13.9472 120.756C13.6884 120.858 13.3957 120.908 13.0691 120.908C12.8103 120.908 12.5716 120.876 12.3528 120.811C12.1341 120.747 11.9369 120.643 11.7613 120.502C11.5888 120.357 11.4409 120.169 11.3177 119.938C11.1944 119.707 11.1005 119.426 11.0358 119.097C10.9711 118.767 10.9387 118.382 10.9387 117.942V116.916C10.9387 116.364 10.988 115.902 11.0866 115.529C11.1883 115.156 11.3315 114.858 11.5164 114.633C11.7012 114.405 11.9231 114.241 12.1819 114.143C12.4437 114.044 12.7364 113.995 13.0599 113.995C13.3218 113.995 13.5621 114.027 13.7808 114.092C14.0026 114.154 14.1998 114.254 14.3723 114.392C14.5448 114.528 14.6912 114.71 14.8113 114.938C14.9346 115.163 15.0285 115.438 15.0932 115.765C15.1579 116.091 15.1903 116.475 15.1903 116.916ZM14.3307 118.08V116.772C14.3307 116.47 14.3122 116.205 14.2753 115.977C14.2414 115.746 14.1905 115.549 14.1228 115.386C14.055 115.223 13.9687 115.09 13.864 114.989C13.7623 114.887 13.6437 114.813 13.5081 114.767C13.3757 114.717 13.2263 114.693 13.0599 114.693C12.8566 114.693 12.6763 114.731 12.5192 114.808C12.3621 114.882 12.2296 115.001 12.1218 115.164C12.017 115.327 11.9369 115.542 11.8815 115.807C11.826 116.071 11.7983 116.393 11.7983 116.772V118.08C11.7983 118.382 11.8152 118.649 11.8491 118.88C11.8861 119.111 11.94 119.311 12.0109 119.48C12.0817 119.647 12.168 119.784 12.2697 119.892C12.3713 120 12.4884 120.08 12.6209 120.132C12.7564 120.181 12.9058 120.206 13.0691 120.206C13.2786 120.206 13.4619 120.166 13.6191 120.086C13.7762 120.006 13.9071 119.881 14.0119 119.711C14.1197 119.539 14.1998 119.319 14.2522 119.051C14.3045 118.779 14.3307 118.456 14.3307 118.08Z" fill="#A3A3A3"/>
<path d="M9.99139 76.8154V77.296L7.20479 83.5439H6.30365L9.08563 77.5179H5.4441V76.8154H9.99139ZM12.0478 80.3414L11.3639 80.1658L11.7012 76.8154H15.1533V77.6057H12.4268L12.2234 79.4357C12.3467 79.3648 12.5023 79.2986 12.6902 79.237C12.8812 79.1753 13.0999 79.1445 13.3464 79.1445C13.6576 79.1445 13.9364 79.1984 14.1828 79.3063C14.4293 79.411 14.6388 79.562 14.8113 79.7592C14.9869 79.9563 15.121 80.1936 15.2134 80.4708C15.3058 80.7481 15.352 81.0577 15.352 81.3997C15.352 81.7232 15.3073 82.0205 15.218 82.2916C15.1317 82.5627 15.0008 82.7999 14.8252 83.0033C14.6496 83.2035 14.4278 83.3591 14.1597 83.47C13.8948 83.5809 13.5821 83.6364 13.2216 83.6364C12.9505 83.6364 12.6933 83.5994 12.4499 83.5255C12.2096 83.4484 11.9939 83.3329 11.8029 83.1789C11.615 83.0217 11.4609 82.8277 11.3408 82.5966C11.2237 82.3625 11.1498 82.0883 11.119 81.774H11.9323C11.9693 82.0266 12.0432 82.2392 12.1541 82.4117C12.265 82.5843 12.4098 82.7152 12.5885 82.8045C12.7703 82.8908 12.9813 82.9339 13.2216 82.9339C13.425 82.9339 13.6052 82.8985 13.7623 82.8277C13.9194 82.7568 14.0519 82.6551 14.1597 82.5227C14.2676 82.3902 14.3492 82.23 14.4047 82.042C14.4632 81.8541 14.4925 81.6431 14.4925 81.4089C14.4925 81.1964 14.4632 80.9992 14.4047 80.8174C14.3461 80.6357 14.2583 80.477 14.1413 80.3414C14.0273 80.2059 13.8871 80.1011 13.7207 80.0272C13.5544 79.9502 13.3633 79.9117 13.1477 79.9117C12.8612 79.9117 12.644 79.9502 12.4961 80.0272C12.3513 80.1042 12.2019 80.209 12.0478 80.3414Z" fill="#A3A3A3"/>
<path d="M3.39791 39.5065V46.272H2.54298V40.574L0.81926 41.2025V40.4307L3.26389 39.5065H3.39791ZM10.1357 42.3717V43.3976C10.1357 43.949 10.0864 44.4142 9.98778 44.7932C9.88919 45.1721 9.74748 45.4771 9.56263 45.7082C9.37778 45.9392 9.15442 46.1071 8.89255 46.2119C8.63376 46.3136 8.34108 46.3644 8.01451 46.3644C7.75573 46.3644 7.51696 46.332 7.29822 46.2674C7.07949 46.2027 6.88231 46.0994 6.70671 45.9577C6.53418 45.8129 6.3863 45.625 6.26307 45.3939C6.13984 45.1629 6.04587 44.8825 5.98117 44.5529C5.91648 44.2232 5.88413 43.8381 5.88413 43.3976V42.3717C5.88413 41.8202 5.93342 41.3581 6.03201 40.9853C6.13367 40.6125 6.27693 40.3137 6.46178 40.0888C6.64663 39.8608 6.86845 39.6975 7.12724 39.5989C7.38911 39.5003 7.68179 39.451 8.00527 39.451C8.26714 39.451 8.50745 39.4834 8.72618 39.5481C8.948 39.6097 9.14518 39.7098 9.3177 39.8485C9.49023 39.984 9.63657 40.1658 9.75672 40.3938C9.87995 40.6187 9.97392 40.8944 10.0386 41.221C10.1033 41.5475 10.1357 41.9311 10.1357 42.3717ZM9.27611 43.5362V42.2284C9.27611 41.9265 9.25763 41.6615 9.22066 41.4335C9.18677 41.2025 9.13593 41.0053 9.06816 40.842C9.00038 40.6787 8.91411 40.5463 8.80937 40.4446C8.7077 40.3429 8.58909 40.269 8.45353 40.2228C8.32106 40.1735 8.17164 40.1488 8.00527 40.1488C7.80194 40.1488 7.62171 40.1874 7.46459 40.2644C7.30747 40.3383 7.17499 40.4569 7.06716 40.6202C6.96241 40.7835 6.88231 40.9976 6.82686 41.2626C6.7714 41.5275 6.74368 41.8495 6.74368 42.2284V43.5362C6.74368 43.8381 6.76062 44.1046 6.79451 44.3357C6.83148 44.5667 6.88539 44.767 6.95625 44.9364C7.02711 45.1028 7.11337 45.2399 7.21504 45.3477C7.31671 45.4556 7.43378 45.5357 7.56626 45.588C7.70181 45.6373 7.85123 45.662 8.01451 45.662C8.22401 45.662 8.40732 45.6219 8.56444 45.5418C8.72156 45.4617 8.8525 45.3369 8.95725 45.1675C9.06507 44.995 9.14518 44.7747 9.19755 44.5067C9.24992 44.2356 9.27611 43.9121 9.27611 43.5362ZM15.4593 42.3717V43.3976C15.4593 43.949 15.41 44.4142 15.3114 44.7932C15.2129 45.1721 15.0711 45.4771 14.8863 45.7082C14.7014 45.9392 14.4781 46.1071 14.2162 46.2119C13.9574 46.3136 13.6647 46.3644 13.3382 46.3644C13.0794 46.3644 12.8406 46.332 12.6219 46.2674C12.4031 46.2027 12.206 46.0994 12.0304 45.9577C11.8578 45.8129 11.71 45.625 11.5867 45.3939C11.4635 45.1629 11.3695 44.8825 11.3048 44.5529C11.2401 44.2232 11.2078 43.8381 11.2078 43.3976V42.3717C11.2078 41.8202 11.2571 41.3581 11.3557 40.9853C11.4573 40.6125 11.6006 40.3137 11.7854 40.0888C11.9703 39.8608 12.1921 39.6975 12.4509 39.5989C12.7128 39.5003 13.0054 39.451 13.3289 39.451C13.5908 39.451 13.8311 39.4834 14.0498 39.5481C14.2717 39.6097 14.4688 39.7098 14.6414 39.8485C14.8139 39.984 14.9602 40.1658 15.0804 40.3938C15.2036 40.6187 15.2976 40.8944 15.3623 41.221C15.427 41.5475 15.4593 41.9311 15.4593 42.3717ZM14.5998 43.5362V42.2284C14.5998 41.9265 14.5813 41.6615 14.5443 41.4335C14.5104 41.2025 14.4596 41.0053 14.3918 40.842C14.324 40.6787 14.2378 40.5463 14.133 40.4446C14.0314 40.3429 13.9127 40.269 13.7772 40.2228C13.6447 40.1735 13.4953 40.1488 13.3289 40.1488C13.1256 40.1488 12.9454 40.1874 12.7882 40.2644C12.6311 40.3383 12.4986 40.4569 12.3908 40.6202C12.2861 40.7835 12.206 40.9976 12.1505 41.2626C12.0951 41.5275 12.0673 41.8495 12.0673 42.2284V43.5362C12.0673 43.8381 12.0843 44.1046 12.1182 44.3357C12.1551 44.5667 12.2091 44.767 12.2799 44.9364C12.3508 45.1028 12.437 45.2399 12.5387 45.3477C12.6404 45.4556 12.7574 45.5357 12.8899 45.588C13.0255 45.6373 13.1749 45.662 13.3382 45.662C13.5477 45.662 13.731 45.6219 13.8881 45.5418C14.0452 45.4617 14.1762 45.3369 14.2809 45.1675C14.3887 44.995 14.4688 44.7747 14.5212 44.5067C14.5736 44.2356 14.5998 43.9121 14.5998 43.5362Z" fill="#A3A3A3"/>
<path d="M3.39791 2.23452V9H2.54298V3.30202L0.81926 3.93051V3.15877L3.26389 2.23452H3.39791ZM10.3205 8.29757V9H5.91648V8.38538L8.1208 5.9315C8.39192 5.62958 8.60141 5.37388 8.74929 5.16438C8.90025 4.9518 9.005 4.76233 9.06353 4.59597C9.12515 4.42652 9.15596 4.254 9.15596 4.07839C9.15596 3.85657 9.10975 3.65632 9.01732 3.47763C8.92798 3.29586 8.7955 3.15106 8.6199 3.04324C8.44429 2.93541 8.23171 2.88149 7.98217 2.88149C7.68333 2.88149 7.43378 2.94003 7.23353 3.0571C7.03635 3.17109 6.88848 3.33129 6.78989 3.53771C6.6913 3.74412 6.64201 3.98134 6.64201 4.24938H5.78708C5.78708 3.87044 5.87026 3.52384 6.03663 3.2096C6.20299 2.89536 6.44946 2.64581 6.77603 2.46096C7.10259 2.27303 7.50464 2.17907 7.98217 2.17907C8.40732 2.17907 8.77086 2.25455 9.07278 2.40551C9.3747 2.55338 9.60576 2.76288 9.76596 3.03399C9.92924 3.30202 10.0109 3.61627 10.0109 3.97672C10.0109 4.1739 9.977 4.37415 9.90922 4.57748C9.84452 4.77774 9.75364 4.97799 9.63657 5.17824C9.52258 5.3785 9.38856 5.57567 9.23452 5.76976C9.08356 5.96385 8.92182 6.15486 8.74929 6.34279L6.94701 8.29757H10.3205ZM12.3169 5.79749L11.6329 5.62188L11.9703 2.27149H15.4223V3.06172H12.6958L12.4925 4.89173C12.6157 4.82087 12.7713 4.75463 12.9592 4.69301C13.1502 4.6314 13.369 4.60059 13.6154 4.60059C13.9266 4.60059 14.2054 4.6545 14.4519 4.76233C14.6984 4.86708 14.9078 5.01804 15.0804 5.21521C15.256 5.41239 15.39 5.64961 15.4824 5.92688C15.5748 6.20416 15.6211 6.51378 15.6211 6.85575C15.6211 7.17924 15.5764 7.47653 15.487 7.74765C15.4008 8.01876 15.2698 8.25598 15.0942 8.45932C14.9186 8.65957 14.6968 8.81515 14.4288 8.92606C14.1638 9.03697 13.8511 9.09242 13.4907 9.09242C13.2196 9.09242 12.9623 9.05545 12.7189 8.98152C12.4786 8.90449 12.263 8.78896 12.072 8.63492C11.884 8.4778 11.73 8.28371 11.6098 8.05265C11.4928 7.81851 11.4188 7.54431 11.388 7.23007H12.2013C12.2383 7.4827 12.3123 7.69527 12.4232 7.8678C12.5341 8.04032 12.6789 8.17126 12.8576 8.2606C13.0393 8.34687 13.2504 8.39 13.4907 8.39C13.694 8.39 13.8742 8.35457 14.0314 8.28371C14.1885 8.21285 14.321 8.11118 14.4288 7.97871C14.5366 7.84623 14.6183 7.68603 14.6737 7.4981C14.7322 7.31017 14.7615 7.09913 14.7615 6.86499C14.7615 6.65242 14.7322 6.45524 14.6737 6.27347C14.6152 6.09171 14.5274 5.93304 14.4103 5.79749C14.2963 5.66193 14.1561 5.55718 13.9898 5.48324C13.8234 5.40622 13.6324 5.36771 13.4167 5.36771C13.1302 5.36771 12.913 5.40622 12.7651 5.48324C12.6203 5.56026 12.4709 5.66501 12.3169 5.79749Z" fill="#A3A3A3"/>
<path d="M34.5 59.0731C34.5 59.0731 74.656 149.792 104.5 149.792C134.344 149.792 141.156 149.896 171 136.43C200.844 122.964 209.656 51.3374 239.5 51.3374" stroke="#539F80" stroke-width="1.89286"/>
<path d="M34.7857 62.288C33.7818 62.288 32.8191 62.0076 32.1091 61.5084C31.3992 61.0093 31.0003 60.3323 31 59.6263C30.9997 58.9204 31.3982 58.2432 32.1078 57.7439C32.8174 57.2445 33.7799 56.9637 34.7838 56.9634C35.7877 56.963 36.7507 57.2431 37.4609 57.742C38.1712 58.2409 38.5707 58.9177 38.5714 59.6237C38.5722 60.3296 38.1742 61.0069 37.465 61.5065C36.7557 62.0062 35.7934 62.2873 34.7895 62.288H34.7857Z" fill="#539F80"/>
<path d="M103.786 152.303C102.782 152.303 101.819 152.023 101.109 151.524C100.399 151.024 100 150.347 100 149.641C99.9997 148.936 100.398 148.258 101.108 147.759C101.817 147.26 102.78 146.979 103.784 146.979C104.788 146.978 105.751 147.258 106.461 147.757C107.171 148.256 107.571 148.933 107.571 149.639C107.572 150.345 107.174 151.022 106.465 151.522C105.756 152.021 104.793 152.302 103.789 152.303H103.786Z" fill="#539F80"/>
<path d="M170.786 138.941C169.782 138.941 168.819 138.661 168.109 138.162C167.399 137.663 167 136.986 167 136.28C167 135.574 167.398 134.897 168.108 134.397C168.817 133.898 169.78 133.617 170.784 133.617C171.788 133.616 172.751 133.896 173.461 134.395C174.171 134.894 174.571 135.571 174.571 136.277C174.572 136.983 174.174 137.66 173.465 138.16C172.756 138.66 171.793 138.941 170.789 138.941H170.786Z" fill="#539F80"/>
<path d="M238.786 53.8485C237.782 53.8485 236.819 53.5681 236.109 53.069C235.399 52.5698 235 51.8929 235 51.1869C235 50.4809 235.398 49.8038 236.108 49.3044C236.817 48.805 237.78 48.5243 238.784 48.5239C239.788 48.5236 240.751 48.8036 241.461 49.3025C242.171 49.8014 242.571 50.4783 242.571 51.1842C242.572 51.8902 242.174 52.5675 241.465 53.0671C240.756 53.5667 239.793 53.8478 238.789 53.8485H238.786Z" fill="#539F80"/>
</svg>
