<svg width="77" height="78" viewBox="0 0 77 78" fill="none" xmlns="http://www.w3.org/2000/svg">
<path d="M72.4544 21.252C74.43 24.2038 76.0878 31.9644 66.9142 39.3917" stroke="#4A2120" stroke-width="4.74014" stroke-linecap="round" stroke-linejoin="round"/>
<path d="M12.7783 44.3516C9.80227 45.4853 3.68012 49.6234 2.99988 57.1061" stroke="#4A2120" stroke-width="4.74014" stroke-linecap="round" stroke-linejoin="round"/>
<path d="M66.4893 68.3019L57.4194 70.7111L53.1679 59.0903" stroke="#4A2120" stroke-width="4.74014" stroke-linecap="round" stroke-linejoin="round"/>
<path d="M28.9343 74.8209L22.557 68.0185L32.9023 59.0903" stroke="#4A2120" stroke-width="4.74014" stroke-linecap="round" stroke-linejoin="round"/>
<path d="M53.8767 11.6151C46.224 0.986551 37.0124 0.702911 32.6192 1.41149C26.6671 2.37167 21.4173 4.62637 16.3218 14.3079C7.81882 30.4636 13.0623 53.3309 14.6212 56.0235C16.1801 58.7161 26.1002 67.4514 45.5154 65.0423C64.9306 62.6331 69.4655 53.1381 69.1821 47.3277C68.8986 41.5173 62.4894 23.5769 53.8767 11.6151Z" fill="#FFE886" stroke="#4A2120" stroke-width="1.74637" stroke-linecap="round" stroke-linejoin="round"/>
<g opacity="0.2">
<path d="M37.7207 1.604C44.4759 7.22543 58.0146 25.0156 58.1279 51.2048" stroke="#4A2120" stroke-width="0.748444" stroke-linecap="round" stroke-linejoin="round"/>
<path d="M34.7453 1.4624C39.8943 16.9095 49.5972 49.8728 47.2163 58.149" stroke="#4A2120" stroke-width="0.748444"/>
<path d="M31.2017 1.74609C30.871 17.9018 31.4851 51.4603 36.5869 56.4487" stroke="#4A2120" stroke-width="0.748444"/>
<path d="M28.084 3.02148C24.5411 9.39873 18.3906 27.7085 22.1319 49.9297" stroke="#4A2120" stroke-width="0.748444"/>
<path d="M49.4834 6.56445C41.3111 6.94236 23.7193 8.40677 18.7309 11.2411" stroke="#4A2120" stroke-width="0.748444"/>
<path d="M58.9785 18.0434C47.7357 17.8072 22.9542 18.9221 13.7709 25.271" stroke="#4A2120" stroke-width="0.748444"/>
<path d="M65.7812 30.0893C54.4912 28.058 28.1413 26.6881 13.0627 37.4585" stroke="#4A2120" stroke-width="0.748444"/>
<path d="M67.4814 41.9935C59.0729 39.915 37.3525 37.9688 17.7389 46.8119" stroke="#4A2120" stroke-width="0.748444"/>
</g>
<path d="M58.6949 39.9587C65.639 36.9827 66.6783 28.6686 66.0642 24.6533C87.4634 61.2162 40.13 71.2781 39.2797 64.6174C38.4294 57.9567 48.0662 44.5139 58.6949 39.9587Z" fill="#539F80" stroke="#4A2120" stroke-width="1.74637" stroke-linejoin="round"/>
<path d="M10.6338 48.1497C10.6338 34.6945 8.77294 30.2571 5.51679 26.3921C2.26065 22.5271 20.1061 38.2342 30.6367 43.7125C38.286 47.6919 46.2984 48.436 50.95 51.8714C55.6017 55.3068 54.941 59.1719 54.2062 61.1759C50.3074 71.8095 10.6338 66.4721 10.6338 48.1497Z" fill="#539F80" stroke="#4A2120" stroke-width="1.74637" stroke-linejoin="round"/>
<ellipse cx="2.26746" cy="2.94882" rx="2.26746" ry="2.94882" transform="matrix(-0.99408 0.108646 0.108646 0.99408 52.1016 22.1025)" fill="#4A2120"/>
<ellipse cx="2.26746" cy="2.94882" rx="2.26746" ry="2.94882" transform="matrix(-0.99408 0.108646 0.108646 0.99408 38.2139 23.5195)" fill="#4A2120"/>
<circle cx="3.68463" cy="3.68463" r="3.68463" transform="matrix(-1 0 0 1 59.2617 26.6377)" fill="#FF927C"/>
<circle cx="3.68463" cy="3.68463" r="3.68463" transform="matrix(-1 0 0 1 35.4531 28.6211)" fill="#FF927C"/>
<path d="M48.2076 30.3218C48.3493 31.7389 47.6407 33.8647 44.8064 34.2898C42.6497 34.6133 40.6966 32.4475 40.4132 31.1721" stroke="#4A2120" stroke-width="1.74637" stroke-linecap="round" stroke-linejoin="round"/>
</svg>
