<svg width="307" height="25" viewBox="0 0 307 25" fill="none" xmlns="http://www.w3.org/2000/svg">
<path d="M163.808 21.1626C162.833 21.0437 161.95 20.8197 161.159 20.4905C160.377 20.1623 159.682 19.7617 159.074 19.2886C158.476 18.8084 157.965 18.2681 157.539 17.6676C157.114 17.0672 156.775 16.4357 156.523 15.7734C156.273 15.1028 156.107 14.4176 156.026 13.7179C155.945 13.0182 155.946 12.3284 156.029 11.6487C156.114 10.9525 156.283 10.2792 156.537 9.62859C156.8 8.97081 157.145 8.36038 157.571 7.79728C158.005 7.23519 158.52 6.73273 159.114 6.28989C159.708 5.84705 160.384 5.48481 161.141 5.20318C161.907 4.92254 162.749 4.73429 163.666 4.63843C164.593 4.53538 165.597 4.54978 166.678 4.68164C167.628 4.79751 168.483 5.00986 169.244 5.31869C170.012 5.62852 170.693 6.01076 171.286 6.46541C171.879 6.91187 172.383 7.41795 172.796 7.98366C173.217 8.55036 173.551 9.15212 173.798 9.78893C174.044 10.4257 174.205 11.0853 174.279 11.7677C174.362 12.451 174.363 13.1285 174.281 13.8001C174.196 14.4962 174.025 15.1818 173.768 15.857C173.511 16.5322 173.168 17.1636 172.739 17.7512C172.318 18.3399 171.813 18.8725 171.223 19.3491C170.633 19.8257 169.961 20.2217 169.208 20.5371C168.464 20.8453 167.639 21.0606 166.735 21.183C165.832 21.2973 164.856 21.2905 163.808 21.1626ZM164.744 18.0851C165.014 18.1181 165.249 18.0678 165.448 17.9341C165.657 17.7933 165.837 17.5784 165.988 17.2894C166.14 17.0003 166.266 16.6459 166.367 16.226C166.469 15.7979 166.553 15.3177 166.618 14.7854C166.675 14.3186 166.731 13.8267 166.785 13.3097C166.841 12.7846 166.883 12.2702 166.911 11.7666C166.94 11.2549 166.946 10.7652 166.928 10.2976C166.911 9.82994 166.854 9.41156 166.757 9.04242C166.669 8.67427 166.535 8.37534 166.355 8.14563C166.176 7.91591 165.938 7.78307 165.644 7.74711C165.357 7.71214 165.101 7.76407 164.877 7.9029C164.661 8.03453 164.47 8.23568 164.304 8.50634C164.138 8.777 163.998 9.10898 163.884 9.50229C163.777 9.8966 163.695 10.3354 163.636 10.8186C163.581 11.269 163.53 11.7573 163.482 12.2834C163.434 12.8096 163.403 13.3377 163.388 13.8679C163.375 14.3898 163.383 14.8979 163.414 15.3921C163.454 15.8872 163.521 16.3276 163.615 16.7131C163.717 17.0996 163.857 17.416 164.035 17.6621C164.221 17.9092 164.458 18.0502 164.744 18.0851Z" fill="white"/>
<path d="M158.309 15.6094C155.993 14.6166 155.646 11.8433 155.851 10.5039C148.713 22.7003 164.502 26.0567 164.786 23.8348C165.069 21.613 161.855 17.1289 158.309 15.6094Z" fill="#539F80" stroke="#776868" stroke-width="0.661819" stroke-linejoin="round"/>
<path d="M174.341 18.3414C174.341 13.8531 174.962 12.3729 176.048 11.0836C177.134 9.79437 171.181 15.0338 167.669 16.8613C165.117 18.1887 162.444 18.4369 160.893 19.5829C159.341 20.7288 159.561 22.0181 159.806 22.6866C161.107 26.2337 174.341 24.4533 174.341 18.3414Z" fill="#539F80" stroke="#776868" stroke-width="0.661819" stroke-linejoin="round"/>
<path d="M300.404 19.0802C300.404 19.4185 300.45 19.6825 300.54 19.8723C300.631 20.062 300.743 20.2064 300.875 20.3054C301.015 20.3962 301.163 20.4622 301.32 20.5034C301.477 20.5364 301.621 20.5736 301.753 20.6148C301.893 20.6561 302.009 20.7179 302.1 20.8004C302.191 20.8747 302.236 21.0026 302.236 21.1841C302.236 22.1246 301.749 22.8053 300.776 23.2261C299.802 23.6386 298.395 23.8449 296.555 23.8449C295.664 23.8449 294.876 23.7954 294.192 23.6964C293.507 23.5974 292.929 23.4406 292.459 23.2261C291.989 23.0033 291.63 22.7269 291.382 22.3969C291.143 22.0586 291.023 21.6544 291.023 21.1841C291.023 21.0026 291.069 20.8747 291.16 20.8004C291.25 20.7179 291.362 20.6561 291.494 20.6148C291.626 20.5736 291.77 20.5364 291.927 20.5034C292.084 20.4704 292.228 20.4085 292.36 20.3178C292.492 20.2188 292.603 20.0826 292.694 19.9094C292.785 19.7279 292.83 19.468 292.83 19.1297V12.5211C292.83 12.191 292.785 11.9353 292.694 11.7538C292.603 11.5723 292.492 11.4361 292.36 11.3454C292.228 11.2464 292.084 11.1804 291.927 11.1474C291.77 11.1144 291.626 11.0772 291.494 11.036C291.362 10.9947 291.25 10.937 291.16 10.8627C291.069 10.7802 291.023 10.6482 291.023 10.4667C291.023 9.99641 291.143 9.59626 291.382 9.26624C291.63 8.92797 291.989 8.65158 292.459 8.43707C292.929 8.2143 293.507 8.05342 294.192 7.95441C294.876 7.85541 295.664 7.8059 296.555 7.8059C297.372 7.8059 298.024 7.88841 298.511 8.05342C299.006 8.21018 299.394 8.44532 299.674 8.75884C299.905 8.61033 300.144 8.47007 300.392 8.33806C300.639 8.1978 300.903 8.07817 301.184 7.97916C301.464 7.87191 301.77 7.7894 302.1 7.73165C302.43 7.6739 302.793 7.64502 303.189 7.64502C303.684 7.64502 304.158 7.69865 304.612 7.8059C305.074 7.90491 305.482 8.07405 305.837 8.31331C306.192 8.54432 306.473 8.84959 306.679 9.22911C306.893 9.60039 307.001 10.0624 307.001 10.6152C307.001 10.9782 306.939 11.333 306.815 11.6795C306.691 12.026 306.506 12.3354 306.258 12.6077C306.019 12.8717 305.713 13.0862 305.342 13.2512C304.979 13.4162 304.558 13.4988 304.08 13.4988C303.601 13.4988 303.226 13.4286 302.954 13.2884C302.681 13.1481 302.471 12.9748 302.323 12.7686C302.174 12.5623 302.063 12.3396 301.988 12.1003C301.922 11.8528 301.848 11.6259 301.766 11.4196C301.691 11.2134 301.588 11.0401 301.456 10.8998C301.332 10.7596 301.143 10.6895 300.887 10.6895C300.631 10.6895 300.462 10.7225 300.38 10.7885C300.297 10.8462 300.256 10.9328 300.256 11.0484C300.256 11.1969 300.285 11.3866 300.342 11.6176C300.4 11.8486 300.429 12.1292 300.429 12.4592L300.404 19.0802Z" fill="#539F80"/>
<path d="M280.739 24.154C279.757 24.154 278.853 24.0385 278.028 23.8075C277.212 23.5765 276.473 23.263 275.813 22.867C275.161 22.4627 274.588 21.9883 274.093 21.4438C273.598 20.8992 273.185 20.3134 272.855 19.6864C272.525 19.0511 272.278 18.3911 272.113 17.7063C271.948 17.0215 271.865 16.3367 271.865 15.6519C271.865 14.9506 271.952 14.2617 272.125 13.5851C272.307 12.9004 272.575 12.2527 272.93 11.6422C273.293 11.0316 273.742 10.4706 274.279 9.95905C274.815 9.44752 275.442 9.00612 276.16 8.63485C276.886 8.26358 277.698 7.97481 278.598 7.76855C279.505 7.55403 280.504 7.44678 281.593 7.44678C282.55 7.44678 283.424 7.55403 284.216 7.76855C285.017 7.98306 285.738 8.28008 286.382 8.6596C287.026 9.03087 287.587 9.47228 288.065 9.98381C288.552 10.4953 288.956 11.0522 289.278 11.6545C289.6 12.2568 289.839 12.8921 289.996 13.5604C290.161 14.2287 290.243 14.9011 290.243 15.5776C290.243 16.2789 290.157 16.9802 289.983 17.6815C289.81 18.3828 289.546 19.0511 289.191 19.6864C288.845 20.3217 288.407 20.9116 287.879 21.4561C287.351 22.0007 286.733 22.4751 286.023 22.8793C285.322 23.2754 284.53 23.5889 283.647 23.8199C282.764 24.0427 281.795 24.154 280.739 24.154ZM281.296 20.9858C281.568 20.9858 281.795 20.9075 281.976 20.7507C282.166 20.5857 282.319 20.3506 282.434 20.0453C282.55 19.74 282.632 19.3729 282.682 18.9439C282.731 18.5066 282.756 18.0198 282.756 17.4835C282.756 17.0132 282.752 16.5182 282.744 15.9984C282.735 15.4704 282.715 14.9547 282.682 14.4515C282.649 13.9399 282.595 13.4531 282.521 12.9911C282.446 12.5291 282.339 12.1207 282.199 11.7659C282.067 11.4111 281.898 11.1306 281.692 10.9244C281.485 10.7181 281.234 10.615 280.937 10.615C280.648 10.615 280.4 10.6975 280.194 10.8625C279.996 11.0192 279.831 11.242 279.699 11.5308C279.567 11.8195 279.468 12.1661 279.402 12.5703C279.344 12.9746 279.315 13.4201 279.315 13.9069C279.315 14.3607 279.324 14.8516 279.34 15.3796C279.357 15.9077 279.39 16.4357 279.439 16.9637C279.489 17.4835 279.559 17.9868 279.65 18.4736C279.749 18.9603 279.868 19.3894 280.008 19.7606C280.157 20.1319 280.334 20.4289 280.541 20.6517C280.755 20.8745 281.007 20.9858 281.296 20.9858Z" fill="#539F80"/>
<path d="M265.418 12.0629C265.475 11.9392 265.508 11.8402 265.517 11.7659C265.533 11.6916 265.541 11.6174 265.541 11.5431V11.3699C265.541 11.2626 265.455 11.1554 265.282 11.0481C265.117 10.9409 264.931 10.8295 264.725 10.714C264.527 10.5985 264.341 10.4747 264.168 10.3427C264.003 10.2107 263.92 10.0663 263.92 9.90954C263.92 9.47226 264.081 9.11749 264.403 8.84523C264.725 8.56471 265.125 8.3502 265.603 8.20169C266.09 8.04493 266.61 7.9418 267.163 7.89229C267.715 7.83454 268.223 7.80566 268.685 7.80566C269.757 7.80566 270.583 7.97067 271.16 8.30069C271.746 8.62246 272.039 9.15875 272.039 9.90954C272.039 10.0993 271.981 10.2478 271.865 10.3551C271.758 10.4541 271.614 10.5407 271.432 10.615C271.251 10.681 271.049 10.7428 270.826 10.8006C270.603 10.8584 270.38 10.9367 270.158 11.0357C269.935 11.1265 269.72 11.2544 269.514 11.4194C269.316 11.5761 269.151 11.7907 269.019 12.0629L263.772 22.9288C263.631 23.2176 263.487 23.461 263.339 23.659C263.198 23.857 263.054 24.0138 262.905 24.1293C262.757 24.253 262.613 24.3397 262.472 24.3892C262.332 24.4469 262.2 24.4758 262.076 24.4758C261.969 24.4758 261.849 24.4511 261.717 24.4015C261.585 24.352 261.445 24.2654 261.297 24.1417C261.148 24.0179 260.991 23.8488 260.826 23.6343C260.661 23.4197 260.492 23.1516 260.319 22.8298L254.49 12.0629C254.333 11.7742 254.156 11.5514 253.958 11.3946C253.76 11.2296 253.558 11.1059 253.351 11.0234C253.153 10.9326 252.959 10.8666 252.77 10.8253C252.58 10.7758 252.407 10.7222 252.25 10.6645C252.101 10.5985 251.982 10.5118 251.891 10.4046C251.8 10.2891 251.755 10.1241 251.755 9.90954C251.755 9.45576 251.924 9.09274 252.262 8.82048C252.609 8.53996 253.054 8.32545 253.599 8.17694C254.152 8.02843 254.77 7.92942 255.455 7.87992C256.14 7.83042 256.825 7.80566 257.51 7.80566C258.45 7.80566 259.271 7.83454 259.972 7.89229C260.682 7.95005 261.268 8.0573 261.73 8.21406C262.192 8.36257 262.538 8.57709 262.769 8.8576C263 9.12987 263.116 9.48052 263.116 9.90954C263.116 10.0663 263.042 10.2024 262.893 10.3179C262.745 10.4334 262.58 10.5407 262.398 10.6397C262.225 10.7387 262.064 10.8377 261.915 10.9367C261.767 11.0357 261.693 11.1471 261.693 11.2709C261.709 11.3616 261.746 11.4689 261.804 11.5926C261.87 11.7164 261.961 11.8732 262.076 12.0629L263.846 15.5034L265.418 12.0629Z" fill="#539F80"/>
<path d="M242.164 21.3076C242.436 21.3076 242.654 21.2664 242.819 21.1839C242.993 21.0931 243.125 20.9693 243.215 20.8126C243.306 20.6476 243.364 20.4496 243.389 20.2186C243.422 19.9793 243.438 19.7111 243.438 19.4141C243.438 19.1584 243.434 18.8325 243.426 18.4364C243.418 18.0404 243.409 17.6526 243.401 17.2731C243.385 16.8276 243.372 16.3656 243.364 15.887C243.248 15.8705 243.137 15.8582 243.03 15.8499C242.931 15.8334 242.832 15.8252 242.733 15.8252C242.312 15.8252 241.957 15.9118 241.669 16.085C241.388 16.2501 241.161 16.4852 240.988 16.7905C240.815 17.0875 240.691 17.4423 240.617 17.8548C240.551 18.2591 240.518 18.7005 240.518 19.179C240.518 19.4678 240.534 19.7441 240.567 20.0082C240.6 20.2639 240.674 20.4908 240.79 20.6888C240.905 20.8786 241.07 21.0312 241.285 21.1467C241.508 21.254 241.801 21.3076 242.164 21.3076ZM248.129 23.8446C247.708 23.8446 247.287 23.824 246.866 23.7828C246.454 23.7333 246.058 23.6384 245.678 23.4981C245.307 23.3579 244.965 23.1557 244.651 22.8917C244.338 22.6277 244.069 22.2771 243.847 21.8398C243.682 22.2275 243.414 22.5658 243.042 22.8546C242.679 23.1434 242.263 23.3867 241.792 23.5848C241.33 23.7745 240.839 23.9148 240.32 24.0055C239.808 24.1045 239.317 24.154 238.847 24.154C238.014 24.154 237.283 24.055 236.656 23.857C236.029 23.659 235.501 23.3785 235.072 23.0155C234.643 22.6442 234.321 22.2028 234.107 21.6913C233.892 21.1797 233.785 20.6063 233.785 19.971C233.785 19.2202 233.909 18.5107 234.156 17.8424C234.412 17.1659 234.841 16.576 235.444 16.0727C236.054 15.5694 236.867 15.1734 237.882 14.8846C238.896 14.5876 240.167 14.4391 241.693 14.4391H243.389C243.389 13.5233 243.356 12.7642 243.29 12.1619C243.232 11.5597 243.137 11.0811 243.005 10.7264C242.873 10.3716 242.708 10.1241 242.51 9.98381C242.312 9.84355 242.073 9.77342 241.792 9.77342C241.479 9.77342 241.215 9.8683 241 10.0581C240.794 10.2478 240.625 10.5242 240.493 10.8872C240.369 11.242 240.278 11.6752 240.221 12.1867C240.171 12.69 240.146 13.2634 240.146 13.9069C239.792 13.9069 239.416 13.9028 239.02 13.8945C238.632 13.878 238.245 13.845 237.857 13.7955C237.477 13.746 237.114 13.6718 236.768 13.5728C236.429 13.4655 236.128 13.3253 235.864 13.152C235.6 12.9705 235.39 12.7436 235.233 12.4713C235.076 12.1991 234.998 11.869 234.998 11.4813C234.998 10.9367 235.138 10.4211 235.419 9.9343C235.708 9.44752 236.145 9.02262 236.731 8.6596C237.325 8.28833 238.075 7.99544 238.983 7.78092C239.891 7.55816 240.971 7.44678 242.225 7.44678C243.686 7.44678 244.944 7.59529 246 7.8923C247.056 8.18932 247.922 8.63485 248.599 9.22889C249.284 9.82292 249.787 10.5737 250.109 11.4813C250.439 12.3806 250.604 13.4366 250.604 14.6495V19.0305C250.604 19.3853 250.649 19.6616 250.74 19.8597C250.839 20.0577 250.954 20.2103 251.086 20.3176C251.227 20.4166 251.379 20.4867 251.544 20.5279C251.709 20.5692 251.858 20.6146 251.99 20.6641C252.13 20.7053 252.246 20.7672 252.336 20.8497C252.435 20.924 252.485 21.0519 252.485 21.2334C252.485 22.0584 252.114 22.702 251.371 23.164C250.637 23.6178 249.556 23.8446 248.129 23.8446Z" fill="#539F80"/>
<path d="M230.74 19.0799C230.74 19.4182 230.786 19.6822 230.876 19.872C230.967 20.0617 231.078 20.2061 231.21 20.3051C231.342 20.3959 231.487 20.4619 231.644 20.5031C231.809 20.5361 231.957 20.5732 232.089 20.6145C232.221 20.6558 232.333 20.7176 232.423 20.8001C232.514 20.8744 232.559 21.0023 232.559 21.1838C232.559 22.1243 232.073 22.805 231.099 23.2258C230.126 23.6383 228.719 23.8446 226.879 23.8446C225.996 23.8446 225.212 23.7951 224.528 23.6961C223.843 23.5971 223.265 23.4403 222.795 23.2258C222.325 23.003 221.966 22.7266 221.718 22.3966C221.479 22.0583 221.359 21.6541 221.359 21.1838C221.359 21.0023 221.401 20.8744 221.483 20.8001C221.574 20.7176 221.685 20.6558 221.817 20.6145C221.958 20.5732 222.102 20.5361 222.25 20.5031C222.407 20.4701 222.552 20.4082 222.684 20.3175C222.824 20.2185 222.935 20.0823 223.018 19.9091C223.108 19.7276 223.154 19.4677 223.154 19.1294V5.21907C223.154 4.8808 223.108 4.62503 223.018 4.45177C222.935 4.27026 222.824 4.13413 222.684 4.04337C222.552 3.94437 222.407 3.87836 222.25 3.84536C222.102 3.81236 221.958 3.77523 221.817 3.73398C221.685 3.69272 221.574 3.63497 221.483 3.56072C221.401 3.47821 221.359 3.3462 221.359 3.16469C221.359 2.69441 221.479 2.29427 221.718 1.96424C221.966 1.62597 222.325 1.34958 222.795 1.13507C223.265 0.912306 223.843 0.751421 224.528 0.652415C225.212 0.553409 225.996 0.503906 226.879 0.503906C227.77 0.503906 228.471 0.549284 228.983 0.640039C229.494 0.730795 229.878 0.887554 230.134 1.11032C230.398 1.32483 230.563 1.61772 230.629 1.989C230.703 2.36027 230.74 2.82642 230.74 3.38746V19.0799Z" fill="#539F80"/>
<path d="M212.659 12.4093C212.825 12.0792 212.973 11.774 213.105 11.4935C213.237 11.2129 213.373 10.9737 213.513 10.7757C213.654 10.5694 213.815 10.4126 213.996 10.3054C214.178 10.1899 214.4 10.1321 214.664 10.1321C215.11 10.1321 215.494 10.2311 215.815 10.4291C216.145 10.6189 216.413 10.8705 216.62 11.1841C216.826 11.4976 216.979 11.8606 217.078 12.2731C217.177 12.6774 217.226 13.0941 217.226 13.5231C217.226 13.9604 217.177 14.3853 217.078 14.7978C216.979 15.2103 216.826 15.5775 216.62 15.8992C216.413 16.2127 216.145 16.4685 215.815 16.6665C215.494 16.8563 215.11 16.9512 214.664 16.9512C214.4 16.9512 214.178 16.8975 213.996 16.7903C213.815 16.6748 213.654 16.518 213.513 16.32C213.373 16.1137 213.237 15.8745 213.105 15.6022C212.973 15.3217 212.825 15.0123 212.659 14.674L211.372 14.5379V18.6466C211.372 19.0097 211.422 19.2943 211.521 19.5006C211.62 19.6986 211.744 19.8512 211.892 19.9585C212.041 20.0575 212.202 20.1276 212.375 20.1689C212.548 20.2101 212.709 20.2555 212.858 20.305C213.006 20.3462 213.13 20.4122 213.229 20.503C213.328 20.5855 213.377 20.7258 213.377 20.9238C213.377 21.4353 213.241 21.8767 212.969 22.248C212.705 22.6193 212.313 22.9245 211.793 23.1638C211.273 23.3948 210.634 23.5681 209.875 23.6836C209.124 23.7908 208.262 23.8445 207.288 23.8445C206.315 23.8445 205.449 23.7908 204.689 23.6836C203.939 23.5681 203.303 23.3948 202.784 23.1638C202.272 22.9245 201.88 22.6193 201.608 22.248C201.344 21.8767 201.212 21.4353 201.212 20.9238C201.212 20.7258 201.261 20.5855 201.36 20.503C201.459 20.4122 201.579 20.3462 201.719 20.305C201.868 20.2555 202.025 20.2101 202.19 20.1689C202.363 20.1276 202.52 20.0575 202.66 19.9585C202.808 19.8512 202.932 19.6986 203.031 19.5006C203.13 19.3026 203.18 19.0179 203.18 18.6466V9.31532C203.18 8.9523 203.13 8.67178 203.031 8.47377C202.932 8.26751 202.808 8.11487 202.66 8.01587C202.52 7.90861 202.363 7.83436 202.19 7.7931C202.025 7.75185 201.868 7.7106 201.719 7.66935C201.579 7.61984 201.459 7.55384 201.36 7.47133C201.261 7.38058 201.212 7.2362 201.212 7.03818C201.212 6.52665 201.344 6.08938 201.608 5.72635C201.88 5.35508 202.272 5.05394 202.784 4.82292C203.303 4.58366 203.939 4.4104 204.689 4.30314C205.449 4.18764 206.315 4.12988 207.288 4.12988H217.449C218.051 4.12988 218.575 4.29489 219.021 4.62491C219.466 4.95493 219.833 5.37158 220.122 5.87486C220.419 6.36989 220.638 6.90618 220.778 7.48371C220.926 8.06125 221.001 8.59753 221.001 9.09256C221.001 9.42258 220.947 9.7196 220.84 9.98361C220.741 10.2476 220.596 10.4704 220.407 10.6519C220.225 10.8334 220.007 10.9737 219.751 11.0727C219.503 11.1717 219.235 11.2212 218.946 11.2212C218.691 11.2212 218.439 11.1799 218.191 11.0974C217.944 11.0067 217.709 10.8664 217.486 10.6767C217.263 10.4786 217.057 10.227 216.867 9.92173C216.686 9.60822 216.533 9.22869 216.409 8.78316V6.71641H211.372V12.5454L212.659 12.4093Z" fill="#539F80"/>
<path d="M178.41 7.8061C178.41 7.21206 178.468 6.6304 178.584 6.06111C178.699 5.48358 178.881 4.93905 179.128 4.42752C179.376 3.90773 179.693 3.4292 180.081 2.99193C180.477 2.5464 180.952 2.16688 181.504 1.85336C182.065 1.53159 182.709 1.27995 183.435 1.09844C184.161 0.916928 184.986 0.826172 185.91 0.826172C186.76 0.826172 187.564 0.896301 188.323 1.03656C189.082 1.16857 189.747 1.39133 190.316 1.70485C190.885 2.01012 191.335 2.41852 191.665 2.93005C192.003 3.43333 192.172 4.05212 192.172 4.78641C192.172 5.01743 192.127 5.27319 192.036 5.55371C191.954 5.82598 191.809 6.08587 191.603 6.33338C191.397 6.57265 191.12 6.77478 190.774 6.93979C190.436 7.1048 190.015 7.18731 189.511 7.18731C188.975 7.18731 188.521 7.11718 188.15 6.97692C187.787 6.83666 187.486 6.65515 187.247 6.43239C187.016 6.20962 186.847 5.96211 186.739 5.68984C186.64 5.40933 186.591 5.13293 186.591 4.86067C186.591 4.70391 186.607 4.51415 186.64 4.29138C186.682 4.06862 186.76 3.82935 186.875 3.57359C186.529 3.57359 186.24 3.59009 186.009 3.62309C185.786 3.65609 185.605 3.70972 185.465 3.78398C185.333 3.84998 185.238 3.93249 185.18 4.03149C185.122 4.1305 185.093 4.24601 185.093 4.37801C185.093 4.55127 185.13 4.75753 185.205 4.9968C185.279 5.22781 185.361 5.48771 185.452 5.77647C185.543 6.06524 185.625 6.37876 185.7 6.71703C185.774 7.0553 185.811 7.41832 185.811 7.8061H187.123C187.222 7.8061 187.342 7.81435 187.482 7.83085C187.622 7.8391 187.754 7.88035 187.878 7.95461C188.002 8.02886 188.105 8.14849 188.187 8.3135C188.278 8.47026 188.323 8.69715 188.323 8.99417C188.323 9.27468 188.29 9.50157 188.224 9.67483C188.158 9.83984 188.072 9.96773 187.964 10.0585C187.865 10.141 187.754 10.1946 187.63 10.2194C187.515 10.2441 187.403 10.2565 187.296 10.2565H185.91V19.1052C185.91 19.4434 185.955 19.7074 186.046 19.8972C186.137 20.087 186.248 20.2313 186.38 20.3304C186.512 20.4211 186.657 20.4871 186.814 20.5284C186.979 20.5614 187.127 20.5985 187.259 20.6397C187.391 20.681 187.502 20.7429 187.593 20.8254C187.684 20.8996 187.729 21.0275 187.729 21.209C187.729 22.1496 187.243 22.8261 186.269 23.2387C185.304 23.6429 183.901 23.8451 182.061 23.8451C181.17 23.8451 180.382 23.7956 179.697 23.6966C179.013 23.5976 178.435 23.4449 177.965 23.2387C177.495 23.0241 177.136 22.7519 176.888 22.4219C176.649 22.0836 176.529 21.6793 176.529 21.209C176.529 21.0275 176.575 20.8996 176.665 20.8254C176.756 20.7429 176.868 20.681 177 20.6397C177.132 20.5985 177.276 20.5614 177.433 20.5284C177.589 20.4954 177.734 20.4335 177.866 20.3427C177.998 20.2437 178.109 20.1076 178.2 19.9343C178.291 19.7528 178.336 19.4929 178.336 19.1547V10.2812H177.73C177.622 10.2812 177.499 10.2771 177.358 10.2689C177.218 10.2524 177.086 10.2029 176.962 10.1204C176.839 10.0379 176.736 9.90997 176.653 9.73671C176.571 9.56345 176.529 9.31594 176.529 8.99417C176.529 8.69715 176.571 8.47026 176.653 8.3135C176.744 8.14849 176.851 8.02886 176.975 7.95461C177.099 7.88035 177.231 7.8391 177.371 7.83085C177.511 7.81435 177.631 7.8061 177.73 7.8061H178.41Z" fill="#539F80"/>
<path d="M130.613 8.96899C130.754 8.87824 130.935 8.75036 131.158 8.58535C131.389 8.41209 131.727 8.24295 132.173 8.07794C132.618 7.90468 133.208 7.75617 133.942 7.63241C134.677 7.50866 135.621 7.44678 136.776 7.44678C137.643 7.44678 138.398 7.54991 139.041 7.75617C139.685 7.96243 140.233 8.24295 140.687 8.59772C141.149 8.95249 141.529 9.37327 141.826 9.86005C142.123 10.3386 142.358 10.8584 142.531 11.4194C142.704 11.9722 142.824 12.5497 142.89 13.152C142.956 13.7543 142.989 14.3524 142.989 14.9465V15.0702C142.981 16.052 142.973 16.8111 142.964 17.3474C142.964 17.8754 142.964 18.2632 142.964 18.5107C142.964 18.7582 142.964 18.9067 142.964 18.9562C142.964 18.9975 142.964 19.0181 142.964 19.0181C142.964 19.3646 143.01 19.6369 143.1 19.8349C143.191 20.0247 143.303 20.1732 143.435 20.2804C143.575 20.3794 143.723 20.4496 143.88 20.4908C144.045 20.5238 144.194 20.5651 144.326 20.6146C144.466 20.6558 144.581 20.7177 144.672 20.8002C144.763 20.8745 144.808 21.0023 144.808 21.1839C144.808 21.6541 144.689 22.0584 144.449 22.3967C144.218 22.7267 143.876 23.0031 143.422 23.2259C142.968 23.4404 142.407 23.5971 141.739 23.6961C141.079 23.7951 140.32 23.8446 139.462 23.8446C138.629 23.8446 137.886 23.7951 137.234 23.6961C136.591 23.5971 136.046 23.4404 135.601 23.2259C135.155 23.0031 134.817 22.7267 134.586 22.3967C134.355 22.0584 134.239 21.6541 134.239 21.1839C134.239 21.0023 134.268 20.8745 134.326 20.8002C134.392 20.7177 134.47 20.6558 134.561 20.6146C134.652 20.5733 134.751 20.5362 134.858 20.5032C134.965 20.4702 135.064 20.4083 135.155 20.3176C135.246 20.2186 135.32 20.0824 135.378 19.9092C135.444 19.7276 135.477 19.4678 135.477 19.1295V13.8079C135.477 13.3046 135.444 12.855 135.378 12.459C135.32 12.0629 135.221 11.7288 135.081 11.4565C134.941 11.1843 134.751 10.978 134.512 10.8377C134.281 10.6892 133.988 10.615 133.633 10.615C133.088 10.615 132.692 10.7882 132.445 11.1348C132.206 11.473 132.086 11.9144 132.086 12.459V18.981C132.086 19.3357 132.119 19.6121 132.185 19.8102C132.251 20.0082 132.334 20.1608 132.433 20.2681C132.54 20.3671 132.651 20.4372 132.767 20.4784C132.89 20.5197 133.002 20.5651 133.101 20.6146C133.208 20.6558 133.295 20.7177 133.361 20.8002C133.427 20.8745 133.46 21.0023 133.46 21.1839C133.46 21.6541 133.365 22.0584 133.175 22.3967C132.994 22.7267 132.705 23.0031 132.309 23.2259C131.921 23.4404 131.418 23.5971 130.799 23.6961C130.188 23.7951 129.45 23.8446 128.584 23.8446C127.75 23.8446 127.008 23.7951 126.356 23.6961C125.712 23.5971 125.168 23.4404 124.722 23.2259C124.277 23.0031 123.939 22.7267 123.708 22.3967C123.477 22.0584 123.361 21.6541 123.361 21.1839C123.361 21.0023 123.39 20.8745 123.448 20.8002C123.514 20.7177 123.592 20.6558 123.683 20.6146C123.774 20.5733 123.873 20.5362 123.98 20.5032C124.095 20.4702 124.199 20.4083 124.289 20.3176C124.38 20.2186 124.454 20.0824 124.512 19.9092C124.578 19.7276 124.611 19.4678 124.611 19.1295V13.8079C124.611 12.8014 124.487 12.0217 124.24 11.4689C124 10.9161 123.567 10.6397 122.94 10.6397C122.693 10.6397 122.458 10.6851 122.235 10.7759C122.012 10.8666 121.814 10.9986 121.641 11.1719C121.468 11.3369 121.331 11.5349 121.232 11.7659C121.133 11.9969 121.084 12.2486 121.084 12.5208V19.08C121.084 19.4183 121.117 19.6823 121.183 19.872C121.257 20.0618 121.348 20.2062 121.455 20.3052C121.562 20.3959 121.678 20.4619 121.802 20.5032C121.934 20.5362 122.053 20.5733 122.161 20.6146C122.268 20.6558 122.355 20.7177 122.421 20.8002C122.495 20.8745 122.532 21.0023 122.532 21.1839C122.532 22.1244 122.062 22.8051 121.121 23.2259C120.189 23.6384 118.844 23.8446 117.087 23.8446C116.237 23.8446 115.478 23.7951 114.809 23.6961C114.141 23.5971 113.576 23.4404 113.114 23.2259C112.66 23.0031 112.31 22.7267 112.062 22.3967C111.823 22.0584 111.703 21.6541 111.703 21.1839C111.703 21.0023 111.749 20.8745 111.839 20.8002C111.93 20.7177 112.041 20.6558 112.173 20.6146C112.305 20.5733 112.45 20.5362 112.607 20.5032C112.763 20.4702 112.908 20.4083 113.04 20.3176C113.172 20.2186 113.283 20.0824 113.374 19.9092C113.465 19.7276 113.51 19.4678 113.51 19.1295V12.5208C113.51 12.1908 113.465 11.935 113.374 11.7535C113.283 11.572 113.172 11.4359 113.04 11.3451C112.908 11.2461 112.763 11.1801 112.607 11.1471C112.45 11.1141 112.305 11.077 112.173 11.0357C112.041 10.9945 111.93 10.9367 111.839 10.8625C111.749 10.78 111.703 10.648 111.703 10.4665C111.703 9.99618 111.823 9.59603 112.062 9.26601C112.301 8.92774 112.648 8.65135 113.102 8.43684C113.564 8.21407 114.125 8.05319 114.785 7.95418C115.445 7.85518 116.191 7.80567 117.025 7.80567C117.404 7.80567 117.747 7.8263 118.052 7.86755C118.357 7.90056 118.625 7.95006 118.856 8.01606C119.096 8.07382 119.302 8.14394 119.475 8.22645C119.648 8.3007 119.797 8.37908 119.921 8.46159C120.209 8.6596 120.412 8.87824 120.527 9.1175C120.931 8.81223 121.418 8.53584 121.987 8.28833C122.474 8.07382 123.068 7.87993 123.769 7.70667C124.471 7.53341 125.292 7.44678 126.232 7.44678C127.206 7.44678 128.068 7.58704 128.819 7.86755C129.57 8.13982 130.168 8.50697 130.613 8.96899Z" fill="#539F80"/>
<path d="M101.134 24.154C100.152 24.154 99.2489 24.0385 98.4239 23.8075C97.6071 23.5765 96.8687 23.263 96.2086 22.867C95.5568 22.4627 94.9834 21.9883 94.4884 21.4438C93.9934 20.8992 93.5808 20.3134 93.2508 19.6864C92.9208 19.0511 92.6733 18.3911 92.5083 17.7063C92.3432 17.0215 92.2607 16.3367 92.2607 15.6519C92.2607 14.9506 92.3474 14.2617 92.5206 13.5851C92.7021 12.9004 92.9703 12.2527 93.3251 11.6422C93.6881 11.0316 94.1377 10.4706 94.674 9.95905C95.2103 9.44752 95.8373 9.00612 96.5551 8.63485C97.2812 8.26358 98.0938 7.97481 98.9932 7.76855C99.9007 7.55403 100.899 7.44678 101.988 7.44678C102.945 7.44678 103.82 7.55403 104.612 7.76855C105.412 7.98306 106.134 8.28008 106.778 8.6596C107.421 9.03087 107.982 9.47228 108.461 9.98381C108.947 10.4953 109.352 11.0522 109.673 11.6545C109.995 12.2568 110.234 12.8921 110.391 13.5604C110.556 14.2287 110.639 14.9011 110.639 15.5776C110.639 16.2789 110.552 16.9802 110.379 17.6815C110.206 18.3828 109.942 19.0511 109.587 19.6864C109.24 20.3217 108.803 20.9116 108.275 21.4561C107.747 22.0007 107.128 22.4751 106.419 22.8793C105.717 23.2754 104.925 23.5889 104.042 23.8199C103.16 24.0427 102.19 24.154 101.134 24.154ZM101.691 20.9858C101.963 20.9858 102.19 20.9075 102.372 20.7507C102.561 20.5857 102.714 20.3506 102.83 20.0453C102.945 19.74 103.028 19.3729 103.077 18.9439C103.127 18.5066 103.151 18.0198 103.151 17.4835C103.151 17.0132 103.147 16.5182 103.139 15.9984C103.131 15.4704 103.11 14.9547 103.077 14.4515C103.044 13.9399 102.991 13.4531 102.916 12.9911C102.842 12.5291 102.735 12.1207 102.594 11.7659C102.462 11.4111 102.293 11.1306 102.087 10.9244C101.881 10.7181 101.629 10.615 101.332 10.615C101.043 10.615 100.796 10.6975 100.59 10.8625C100.392 11.0192 100.227 11.242 100.095 11.5308C99.9626 11.8195 99.8636 12.1661 99.7976 12.5703C99.7398 12.9746 99.7109 13.4201 99.7109 13.9069C99.7109 14.3607 99.7192 14.8516 99.7357 15.3796C99.7522 15.9077 99.7852 16.4357 99.8347 16.9637C99.8842 17.4835 99.9543 17.9868 100.045 18.4736C100.144 18.9603 100.264 19.3894 100.404 19.7606C100.552 20.1319 100.73 20.4289 100.936 20.6517C101.151 20.8745 101.402 20.9858 101.691 20.9858Z" fill="#539F80"/>
<path d="M89.4394 19.0799C89.4394 19.4182 89.4848 19.6822 89.5756 19.872C89.6663 20.0617 89.7777 20.2061 89.9097 20.3051C90.0417 20.3959 90.1861 20.4619 90.3429 20.5031C90.5079 20.5361 90.6564 20.5732 90.7884 20.6145C90.9204 20.6558 91.0318 20.7176 91.1226 20.8001C91.2133 20.8744 91.2587 21.0023 91.2587 21.1838C91.2587 22.1243 90.7719 22.805 89.7983 23.2258C88.8248 23.6383 87.4181 23.8446 85.5782 23.8446C85.0832 23.8446 84.65 23.8074 84.2788 23.7332C83.9075 23.6589 83.5857 23.5558 83.3135 23.4238C83.0494 23.2835 82.8308 23.1185 82.6575 22.9288C82.4843 22.7308 82.344 22.5121 82.2368 22.2729C82.0222 22.4709 81.7582 22.6813 81.4447 22.904C81.1394 23.1268 80.764 23.333 80.3185 23.5228C79.8812 23.7043 79.3738 23.8528 78.7963 23.9683C78.227 24.0921 77.5752 24.154 76.8409 24.154C76.0076 24.154 75.2692 24.0385 74.6257 23.8074C73.9904 23.5764 73.4376 23.2629 72.9673 22.8669C72.5053 22.4626 72.1175 21.9923 71.804 21.4561C71.4905 20.9198 71.2388 20.3464 71.0491 19.7358C70.8593 19.1253 70.7232 18.4941 70.6407 17.8423C70.5664 17.1905 70.5293 16.547 70.5293 15.9117C70.5293 15.2599 70.5747 14.5999 70.6654 13.9316C70.7644 13.2633 70.9212 12.6156 71.1357 11.9886C71.3585 11.3616 71.639 10.7717 71.9773 10.2189C72.3238 9.66609 72.7404 9.18756 73.2272 8.78328C73.7222 8.37076 74.2957 8.04486 74.9474 7.8056C75.6075 7.56633 76.3542 7.4467 77.1875 7.4467C77.7732 7.4467 78.3054 7.49208 78.7839 7.58284C79.2625 7.66534 79.6915 7.77672 80.071 7.91698C80.4588 8.05724 80.797 8.21812 81.0858 8.39964C81.3828 8.58115 81.6386 8.76266 81.8531 8.94417V5.21907C81.8531 4.8808 81.8077 4.62503 81.717 4.45177C81.6345 4.27026 81.5231 4.13413 81.3828 4.04337C81.2508 3.94437 81.1064 3.87836 80.9497 3.84536C80.8012 3.81236 80.6568 3.77523 80.5165 3.73398C80.3845 3.69272 80.2731 3.63497 80.1824 3.56072C80.0999 3.47821 80.0586 3.3462 80.0586 3.16469C80.0586 2.69441 80.1783 2.29427 80.4175 1.96424C80.665 1.62597 81.0239 1.34958 81.4942 1.13507C81.9645 0.912306 82.542 0.751421 83.2268 0.652415C83.9116 0.553409 84.6954 0.503906 85.5782 0.503906C86.4693 0.503906 87.1706 0.549284 87.6821 0.640039C88.2019 0.730795 88.5938 0.887554 88.8578 1.11032C89.1301 1.32483 89.3033 1.61772 89.3776 1.989C89.4518 2.36027 89.489 2.82642 89.489 3.38746L89.4394 19.0799ZM80.0586 21.0105C80.3886 21.0105 80.7145 20.9528 81.0363 20.8373C81.3581 20.7218 81.6386 20.5939 81.8779 20.4536C81.8614 20.2391 81.8531 20.0246 81.8531 19.8101C81.8531 19.5873 81.8531 19.3604 81.8531 19.1294V11.2956C81.5726 11.1306 81.2632 10.9779 80.9249 10.8377C80.5867 10.6891 80.2401 10.6149 79.8854 10.6149C79.5058 10.6149 79.1923 10.7015 78.9448 10.8748C78.7055 11.048 78.5158 11.3409 78.3755 11.7535C78.2353 12.1577 78.1363 12.7064 78.0785 13.3994C78.029 14.0842 78.0043 14.9382 78.0043 15.9612C78.0043 16.58 78.0249 17.1905 78.0661 17.7928C78.1074 18.3951 78.1981 18.9355 78.3384 19.4141C78.4787 19.8843 78.6849 20.268 78.9572 20.565C79.2295 20.862 79.5966 21.0105 80.0586 21.0105Z" fill="#539F80"/>
<path d="M63.1777 10.615C62.9137 10.615 62.6662 10.6768 62.4352 10.8006C62.2041 10.9161 62.002 11.0976 61.8287 11.3451C61.6637 11.5927 61.5317 11.9103 61.4327 12.2981C61.342 12.6776 61.2966 13.1314 61.2966 13.6594H65.2444C65.2444 13.0819 65.1991 12.5992 65.1083 12.2114C65.0176 11.8154 64.8855 11.5019 64.7123 11.2709C64.539 11.0316 64.3204 10.8625 64.0564 10.7635C63.8006 10.6645 63.5077 10.615 63.1777 10.615ZM62.2619 7.44678C63.3675 7.44678 64.3616 7.61179 65.2444 7.94181C66.1355 8.27183 66.8904 8.7256 67.5092 9.30314C68.1362 9.88068 68.6148 10.5613 68.9448 11.3451C69.2831 12.1207 69.4522 12.9581 69.4522 13.8574C69.4522 14.2287 69.3986 14.5175 69.2913 14.7237C69.1923 14.93 69.0479 15.0826 68.8582 15.1816C68.6684 15.2806 68.4333 15.3425 68.1527 15.3673C67.8722 15.392 67.5546 15.4044 67.1998 15.4044H61.2471C61.2471 16.3119 61.3378 17.0504 61.5193 17.6196C61.7091 18.1807 61.969 18.618 62.299 18.9315C62.629 19.245 63.0251 19.4595 63.4871 19.575C63.9491 19.6823 64.4606 19.7359 65.0217 19.7359C65.3187 19.7359 65.624 19.707 65.9375 19.6493C66.2593 19.5915 66.5645 19.5173 66.8533 19.4265C67.1503 19.3357 67.4226 19.2409 67.6701 19.1419C67.9176 19.0429 68.1239 18.948 68.2889 18.8572C68.4209 18.783 68.5488 18.7458 68.6725 18.7458C68.8623 18.7458 69.0108 18.8283 69.1181 18.9934C69.2253 19.1501 69.2789 19.3275 69.2789 19.5255C69.2789 19.5915 69.2748 19.6534 69.2666 19.7111C69.2583 19.7689 69.2418 19.8267 69.2171 19.8844C68.9778 20.4949 68.6519 21.0601 68.2394 21.5799C67.8269 22.0997 67.3236 22.5534 66.7295 22.9412C66.1438 23.3207 65.4631 23.6178 64.6875 23.8323C63.912 24.0468 63.0416 24.154 62.0763 24.154C61.1522 24.154 60.3065 24.0468 59.5392 23.8323C58.7802 23.6095 58.0913 23.3042 57.4725 22.9165C56.8619 22.5204 56.3257 22.0584 55.8636 21.5304C55.4016 21.0023 55.0179 20.4289 54.7127 19.8102C54.4074 19.1831 54.1764 18.5313 54.0196 17.8548C53.8711 17.17 53.7969 16.4811 53.7969 15.788C53.7969 15.0867 53.8753 14.3937 54.032 13.7089C54.1888 13.0159 54.4239 12.36 54.7374 11.7412C55.051 11.1224 55.4429 10.5531 55.9131 10.0333C56.3834 9.50528 56.9321 9.0515 57.5591 8.67198C58.1861 8.2842 58.8916 7.98306 59.6754 7.76855C60.4592 7.55403 61.3213 7.44678 62.2619 7.44678Z" fill="#539F80"/>
<path d="M46.5205 10.615C46.2565 10.615 46.0089 10.6768 45.7779 10.8006C45.5469 10.9161 45.3448 11.0976 45.1715 11.3451C45.0065 11.5927 44.8745 11.9103 44.7755 12.2981C44.6847 12.6776 44.6394 13.1314 44.6394 13.6594H48.5872C48.5872 13.0819 48.5418 12.5992 48.4511 12.2114C48.3603 11.8154 48.2283 11.5019 48.0551 11.2709C47.8818 11.0316 47.6632 10.8625 47.3991 10.7635C47.1434 10.6645 46.8505 10.615 46.5205 10.615ZM45.6047 7.44678C46.7102 7.44678 47.7044 7.61179 48.5872 7.94181C49.4783 8.27183 50.2332 8.7256 50.852 9.30314C51.479 9.88068 51.9575 10.5613 52.2876 11.3451C52.6258 12.1207 52.795 12.9581 52.795 13.8574C52.795 14.2287 52.7413 14.5175 52.6341 14.7237C52.5351 14.93 52.3907 15.0826 52.2009 15.1816C52.0112 15.2806 51.776 15.3425 51.4955 15.3673C51.215 15.392 50.8974 15.4044 50.5426 15.4044H44.5898C44.5898 16.3119 44.6806 17.0504 44.8621 17.6196C45.0519 18.1807 45.3118 18.618 45.6418 18.9315C45.9718 19.245 46.3678 19.4595 46.8299 19.575C47.2919 19.6823 47.8034 19.7359 48.3645 19.7359C48.6615 19.7359 48.9667 19.707 49.2803 19.6493C49.602 19.5915 49.9073 19.5173 50.1961 19.4265C50.4931 19.3357 50.7653 19.2409 51.0129 19.1419C51.2604 19.0429 51.4666 18.948 51.6316 18.8572C51.7637 18.783 51.8915 18.7458 52.0153 18.7458C52.2051 18.7458 52.3536 18.8283 52.4608 18.9934C52.5681 19.1501 52.6217 19.3275 52.6217 19.5255C52.6217 19.5915 52.6176 19.6534 52.6093 19.7111C52.6011 19.7689 52.5846 19.8267 52.5598 19.8844C52.3206 20.4949 51.9947 21.0601 51.5821 21.5799C51.1696 22.0997 50.6663 22.5534 50.0723 22.9412C49.4865 23.3207 48.8059 23.6178 48.0303 23.8323C47.2548 24.0468 46.3843 24.154 45.419 24.154C44.495 24.154 43.6493 24.0468 42.882 23.8323C42.123 23.6095 41.434 23.3042 40.8152 22.9165C40.2047 22.5204 39.6684 22.0584 39.2064 21.5304C38.7444 21.0023 38.3607 20.4289 38.0555 19.8102C37.7502 19.1831 37.5192 18.5313 37.3624 17.8548C37.2139 17.17 37.1396 16.4811 37.1396 15.788C37.1396 15.0867 37.218 14.3937 37.3748 13.7089C37.5315 13.0159 37.7667 12.36 38.0802 11.7412C38.3937 11.1224 38.7856 10.5531 39.2559 10.0333C39.7262 9.50528 40.2748 9.0515 40.9019 8.67198C41.5289 8.2842 42.2343 7.98306 43.0181 7.76855C43.8019 7.55403 44.6641 7.44678 45.6047 7.44678Z" fill="#539F80"/>
<path d="M29.8623 19.0802C29.8623 19.4185 29.9076 19.6825 29.9984 19.8723C30.0892 20.062 30.2005 20.2064 30.3325 20.3054C30.4728 20.3962 30.6213 20.4622 30.7781 20.5034C30.9348 20.5364 31.0792 20.5736 31.2112 20.6148C31.3515 20.6561 31.467 20.7179 31.5577 20.8004C31.6485 20.8747 31.6939 21.0026 31.6939 21.1841C31.6939 22.1246 31.2071 22.8053 30.2335 23.2261C29.26 23.6386 27.8533 23.8449 26.0134 23.8449C25.1224 23.8449 24.3344 23.7954 23.6496 23.6964C22.9648 23.5974 22.3873 23.4406 21.917 23.2261C21.4468 23.0033 21.0879 22.7269 20.8403 22.3969C20.6011 22.0586 20.4814 21.6544 20.4814 21.1841C20.4814 21.0026 20.5268 20.8747 20.6176 20.8004C20.7083 20.7179 20.8197 20.6561 20.9517 20.6148C21.0837 20.5736 21.2281 20.5364 21.3849 20.5034C21.5416 20.4704 21.686 20.4085 21.818 20.3178C21.95 20.2188 22.0614 20.0826 22.1522 19.9094C22.2429 19.7279 22.2883 19.468 22.2883 19.1297V12.5211C22.2883 12.191 22.2429 11.9353 22.1522 11.7538C22.0614 11.5723 21.95 11.4361 21.818 11.3454C21.686 11.2464 21.5416 11.1804 21.3849 11.1474C21.2281 11.1144 21.0837 11.0772 20.9517 11.036C20.8197 10.9947 20.7083 10.937 20.6176 10.8627C20.5268 10.7802 20.4814 10.6482 20.4814 10.4667C20.4814 9.99641 20.6011 9.59626 20.8403 9.26624C21.0879 8.92797 21.4468 8.65158 21.917 8.43707C22.3873 8.2143 22.9648 8.05342 23.6496 7.95441C24.3344 7.85541 25.1224 7.8059 26.0134 7.8059C26.8302 7.8059 27.482 7.88841 27.9688 8.05342C28.4638 8.21018 28.8516 8.44532 29.1321 8.75884C29.3631 8.61033 29.6024 8.47007 29.8499 8.33806C30.0974 8.1978 30.3614 8.07817 30.6419 7.97916C30.9225 7.87191 31.2277 7.7894 31.5577 7.73165C31.8878 7.6739 32.2508 7.64502 32.6468 7.64502C33.1418 7.64502 33.6162 7.69865 34.07 7.8059C34.532 7.90491 34.9404 8.07405 35.2952 8.31331C35.65 8.54432 35.9305 8.84959 36.1368 9.22911C36.3513 9.60039 36.4585 10.0624 36.4585 10.6152C36.4585 10.9782 36.3967 11.333 36.2729 11.6795C36.1491 12.026 35.9635 12.3354 35.716 12.6077C35.4767 12.8717 35.1715 13.0862 34.8002 13.2512C34.4372 13.4162 34.0164 13.4988 33.5379 13.4988C33.0593 13.4988 32.6839 13.4286 32.4117 13.2884C32.1394 13.1481 31.929 12.9748 31.7805 12.7686C31.632 12.5623 31.5206 12.3396 31.4464 12.1003C31.3804 11.8528 31.3061 11.6259 31.2236 11.4196C31.1493 11.2134 31.0462 11.0401 30.9142 10.8998C30.7904 10.7596 30.6007 10.6895 30.3449 10.6895C30.0892 10.6895 29.92 10.7225 29.8375 10.7885C29.755 10.8462 29.7138 10.9328 29.7138 11.0484C29.7138 11.1969 29.7426 11.3866 29.8004 11.6176C29.8581 11.8486 29.887 12.1292 29.887 12.4592L29.8623 19.0802Z" fill="#539F80"/>
<path d="M11.4476 12.4093C11.6126 12.0792 11.7611 11.774 11.8931 11.4935C12.0251 11.2129 12.1612 10.9737 12.3015 10.7757C12.4418 10.5694 12.6026 10.4126 12.7842 10.3054C12.9657 10.1899 13.1884 10.1321 13.4524 10.1321C13.898 10.1321 14.2816 10.2311 14.6034 10.4291C14.9334 10.6189 15.2015 10.8705 15.4078 11.1841C15.6141 11.4976 15.7667 11.8606 15.8657 12.2731C15.9647 12.6774 16.0142 13.0941 16.0142 13.5231C16.0142 13.9604 15.9647 14.3853 15.8657 14.7978C15.7667 15.2103 15.6141 15.5775 15.4078 15.8992C15.2015 16.2127 14.9334 16.4685 14.6034 16.6665C14.2816 16.8563 13.898 16.9512 13.4524 16.9512C13.1884 16.9512 12.9657 16.8975 12.7842 16.7903C12.6026 16.6748 12.4418 16.518 12.3015 16.32C12.1612 16.1137 12.0251 15.8745 11.8931 15.6022C11.7611 15.3217 11.6126 15.0123 11.4476 14.674L10.1605 14.5379V18.6466C10.1605 19.0097 10.21 19.2943 10.309 19.5006C10.408 19.6986 10.5318 19.8512 10.6803 19.9585C10.8288 20.0575 10.9897 20.1276 11.1629 20.1689C11.3362 20.2101 11.4971 20.2555 11.6456 20.305C11.7941 20.3462 11.9178 20.4122 12.0169 20.503C12.1159 20.5855 12.1654 20.7258 12.1654 20.9238C12.1654 21.4353 12.0292 21.8767 11.757 22.248C11.4929 22.6193 11.101 22.9245 10.5813 23.1638C10.0615 23.3948 9.42207 23.5681 8.66303 23.6836C7.91223 23.7908 7.05005 23.8445 6.07649 23.8445C5.10294 23.8445 4.23663 23.7908 3.47759 23.6836C2.72679 23.5681 2.0915 23.3948 1.57172 23.1638C1.06019 22.9245 0.668291 22.6193 0.396024 22.248C0.132008 21.8767 0 21.4353 0 20.9238C0 20.7258 0.049503 20.5855 0.148509 20.503C0.247515 20.4122 0.367147 20.3462 0.507406 20.305C0.655915 20.2555 0.812674 20.2101 0.977684 20.1689C1.15094 20.1276 1.3077 20.0575 1.44796 19.9585C1.59647 19.8512 1.72023 19.6986 1.81924 19.5006C1.91824 19.3026 1.96774 19.0179 1.96774 18.6466V9.31532C1.96774 8.9523 1.91824 8.67178 1.81924 8.47377C1.72023 8.26751 1.59647 8.11487 1.44796 8.01587C1.3077 7.90861 1.15094 7.83436 0.977684 7.7931C0.812674 7.75185 0.655915 7.7106 0.507406 7.66935C0.367147 7.61984 0.247515 7.55384 0.148509 7.47133C0.049503 7.38058 0 7.2362 0 7.03818C0 6.52665 0.132008 6.08938 0.396024 5.72635C0.668291 5.35508 1.06019 5.05394 1.57172 4.82292C2.0915 4.58366 2.72679 4.4104 3.47759 4.30314C4.23663 4.18764 5.10294 4.12988 6.07649 4.12988H16.237C16.8393 4.12988 17.3632 4.29489 17.8087 4.62491C18.2542 4.95493 18.6214 5.37158 18.9101 5.87486C19.2072 6.36989 19.4258 6.90618 19.5661 7.48371C19.7146 8.06125 19.7888 8.59753 19.7888 9.09256C19.7888 9.42258 19.7352 9.7196 19.6279 9.98361C19.5289 10.2476 19.3846 10.4704 19.1948 10.6519C19.0133 10.8334 18.7946 10.9737 18.5389 11.0727C18.2914 11.1717 18.0232 11.2212 17.7345 11.2212C17.4787 11.2212 17.227 11.1799 16.9795 11.0974C16.732 11.0067 16.4969 10.8664 16.2741 10.6767C16.0513 10.4786 15.8451 10.227 15.6553 9.92173C15.4738 9.60822 15.3212 9.22869 15.1974 8.78316V6.71641H10.1605V12.5454L11.4476 12.4093Z" fill="#539F80"/>
</svg>
