<svg width="370" height="167" viewBox="0 0 370 167" fill="none" xmlns="http://www.w3.org/2000/svg">
<path d="M108.201 56.6948H138.841" stroke="#4A2120" stroke-width="2.70351" stroke-linecap="round"/>
<path d="M108.201 73.3667H138.841" stroke="#4A2120" stroke-width="2.70351" stroke-linecap="round"/>
<path d="M158.067 51.7461C156.5 54.0876 155.185 60.2434 162.461 66.1349" stroke="#4A2120" stroke-width="4.27168" stroke-linecap="round" stroke-linejoin="round"/>
<path d="M205.403 70.0693C207.764 70.9686 212.62 74.2511 213.16 80.1865" stroke="#4A2120" stroke-width="4.27168" stroke-linecap="round" stroke-linejoin="round"/>
<path d="M162.799 89.0671L169.993 90.9781L173.366 81.7603" stroke="#4A2120" stroke-width="4.27168" stroke-linecap="round" stroke-linejoin="round"/>
<path d="M192.588 94.2381L197.647 88.8423L189.44 81.7603" stroke="#4A2120" stroke-width="4.27168" stroke-linecap="round" stroke-linejoin="round"/>
<path d="M172.804 44.1017C178.874 35.6709 186.181 35.4459 189.666 36.008C194.387 36.7696 198.551 38.5581 202.593 46.2377C209.338 59.0527 205.178 77.1916 203.942 79.3274C202.705 81.4633 194.837 88.3923 179.436 86.4813C164.035 84.5703 160.438 77.0387 160.663 72.4297C160.888 67.8208 165.972 53.5901 172.804 44.1017Z" fill="#FFE886" stroke="#4A2120" stroke-width="1.57378" stroke-linecap="round" stroke-linejoin="round"/>
<g opacity="0.2">
<path d="M185.619 36.1606C180.26 40.6197 169.521 54.7312 169.431 75.5051" stroke="#4A2120" stroke-width="0.674476" stroke-linecap="round" stroke-linejoin="round"/>
<path d="M187.979 36.0483C183.895 48.3013 176.198 74.4485 178.087 81.0134" stroke="#4A2120" stroke-width="0.674476"/>
<path d="M190.789 36.2734C191.052 49.0885 190.564 75.7078 186.518 79.6647" stroke="#4A2120" stroke-width="0.674476"/>
<path d="M193.262 37.2852C196.073 42.3437 200.951 56.8674 197.984 74.4938" stroke="#4A2120" stroke-width="0.674476"/>
<path d="M176.288 40.0957C182.771 40.3955 196.725 41.5571 200.682 43.8053" stroke="#4A2120" stroke-width="0.674476"/>
<path d="M168.757 49.201C177.675 49.0137 197.332 49.898 204.616 54.9341" stroke="#4A2120" stroke-width="0.674476"/>
<path d="M163.361 58.756C172.316 57.1447 193.218 56.0581 205.178 64.6014" stroke="#4A2120" stroke-width="0.674476"/>
<path d="M162.012 68.1983C168.682 66.5496 185.911 65.0058 201.469 72.0203" stroke="#4A2120" stroke-width="0.674476"/>
</g>
<path d="M168.981 66.5839C163.473 64.2233 162.649 57.6284 163.136 54.4434C146.162 83.4458 183.708 91.4271 184.382 86.1437C185.057 80.8603 177.412 70.1972 168.981 66.5839Z" fill="#539F80" stroke="#4A2120" stroke-width="1.57378" stroke-linejoin="round"/>
<path d="M207.104 73.0818C207.104 62.4088 208.58 58.8889 211.163 55.8231C213.746 52.7573 199.591 65.2166 191.238 69.5621C185.17 72.7186 178.814 73.3088 175.125 76.0339C171.435 78.7589 171.959 81.8248 172.542 83.4144C175.634 91.8492 207.104 87.6155 207.104 73.0818Z" fill="#539F80" stroke="#4A2120" stroke-width="1.57378" stroke-linejoin="round"/>
<ellipse cx="175.745" cy="54.941" rx="1.7986" ry="2.33907" transform="rotate(6.23729 175.745 54.941)" fill="#4A2120"/>
<ellipse cx="186.761" cy="56.0646" rx="1.7986" ry="2.33907" transform="rotate(6.23729 186.761 56.0646)" fill="#4A2120"/>
<circle cx="171.454" cy="58.9403" r="2.92273" fill="#FF927C"/>
<circle cx="190.34" cy="60.514" r="2.92273" fill="#FF927C"/>
<path d="M177.3 58.9404C177.188 60.0646 177.75 61.7507 179.998 62.088C181.709 62.3446 183.258 60.6266 183.483 59.6149" stroke="#4A2120" stroke-width="1.57378" stroke-linecap="round" stroke-linejoin="round"/>
<path d="M231.159 56.6948H261.799" stroke="#4A2120" stroke-width="2.70351" stroke-linecap="round"/>
<path d="M231.159 73.3667H261.799" stroke="#4A2120" stroke-width="2.70351" stroke-linecap="round"/>
<path d="M361.709 124.438C361.709 124.861 361.766 125.19 361.879 125.427C361.993 125.664 362.132 125.845 362.297 125.968C362.472 126.082 362.657 126.164 362.853 126.216C363.049 126.257 363.229 126.303 363.394 126.355C363.569 126.406 363.714 126.484 363.827 126.587C363.94 126.679 363.997 126.839 363.997 127.066C363.997 128.24 363.389 129.09 362.173 129.616C360.957 130.131 359.2 130.389 356.903 130.389C355.79 130.389 354.806 130.327 353.95 130.203C353.095 130.08 352.374 129.884 351.787 129.616C351.199 129.338 350.751 128.993 350.442 128.58C350.143 128.158 349.994 127.653 349.994 127.066C349.994 126.839 350.05 126.679 350.164 126.587C350.277 126.484 350.416 126.406 350.581 126.355C350.746 126.303 350.926 126.257 351.122 126.216C351.318 126.174 351.498 126.097 351.663 125.984C351.828 125.86 351.967 125.69 352.08 125.474C352.194 125.247 352.25 124.922 352.25 124.5V116.246C352.25 115.834 352.194 115.515 352.08 115.288C351.967 115.061 351.828 114.891 351.663 114.778C351.498 114.654 351.318 114.572 351.122 114.531C350.926 114.49 350.746 114.443 350.581 114.392C350.416 114.34 350.277 114.268 350.164 114.175C350.05 114.072 349.994 113.907 349.994 113.681C349.994 113.093 350.143 112.594 350.442 112.181C350.751 111.759 351.199 111.414 351.787 111.146C352.374 110.868 353.095 110.667 353.95 110.543C354.806 110.419 355.79 110.358 356.903 110.358C357.923 110.358 358.737 110.461 359.345 110.667C359.963 110.863 360.447 111.156 360.797 111.548C361.086 111.362 361.385 111.187 361.694 111.022C362.003 110.847 362.333 110.698 362.683 110.574C363.033 110.44 363.415 110.337 363.827 110.265C364.239 110.193 364.692 110.157 365.187 110.157C365.805 110.157 366.398 110.224 366.964 110.358C367.541 110.481 368.052 110.693 368.495 110.991C368.938 111.28 369.288 111.661 369.546 112.135C369.813 112.599 369.947 113.176 369.947 113.866C369.947 114.32 369.87 114.763 369.716 115.195C369.561 115.628 369.329 116.015 369.02 116.355C368.721 116.684 368.34 116.952 367.876 117.158C367.423 117.364 366.897 117.467 366.3 117.467C365.702 117.467 365.233 117.38 364.893 117.205C364.553 117.03 364.291 116.813 364.105 116.556C363.92 116.298 363.78 116.02 363.688 115.721C363.605 115.412 363.513 115.128 363.41 114.871C363.317 114.613 363.188 114.397 363.023 114.222C362.869 114.047 362.632 113.959 362.312 113.959C361.993 113.959 361.782 114 361.678 114.083C361.575 114.155 361.524 114.263 361.524 114.407C361.524 114.593 361.56 114.83 361.632 115.118C361.704 115.407 361.74 115.757 361.74 116.169L361.709 124.438Z" fill="#4A2120"/>
<path d="M337.149 130.774C335.923 130.774 334.795 130.63 333.765 130.342C332.744 130.053 331.822 129.662 330.998 129.167C330.184 128.662 329.468 128.07 328.849 127.39C328.231 126.709 327.716 125.978 327.304 125.195C326.892 124.401 326.583 123.577 326.377 122.722C326.17 121.867 326.067 121.011 326.067 120.156C326.067 119.28 326.176 118.42 326.392 117.575C326.619 116.72 326.954 115.911 327.397 115.148C327.85 114.386 328.412 113.685 329.081 113.046C329.751 112.407 330.534 111.856 331.431 111.392C332.337 110.929 333.352 110.568 334.475 110.311C335.609 110.043 336.856 109.909 338.216 109.909C339.411 109.909 340.503 110.043 341.493 110.311C342.492 110.578 343.394 110.949 344.197 111.423C345.001 111.887 345.702 112.438 346.299 113.077C346.907 113.716 347.412 114.412 347.814 115.164C348.216 115.916 348.515 116.709 348.711 117.544C348.917 118.379 349.02 119.218 349.02 120.063C349.02 120.939 348.911 121.815 348.695 122.691C348.479 123.567 348.149 124.401 347.706 125.195C347.273 125.988 346.727 126.725 346.068 127.405C345.408 128.085 344.635 128.678 343.749 129.182C342.873 129.677 341.884 130.069 340.782 130.357C339.679 130.635 338.468 130.774 337.149 130.774ZM337.845 126.818C338.185 126.818 338.468 126.72 338.695 126.524C338.932 126.318 339.123 126.024 339.267 125.643C339.411 125.262 339.514 124.803 339.576 124.267C339.638 123.721 339.669 123.113 339.669 122.444C339.669 121.856 339.664 121.238 339.653 120.589C339.643 119.929 339.617 119.285 339.576 118.657C339.535 118.018 339.468 117.41 339.375 116.833C339.282 116.256 339.148 115.746 338.973 115.303C338.808 114.86 338.597 114.509 338.34 114.252C338.082 113.994 337.768 113.865 337.397 113.865C337.036 113.865 336.727 113.968 336.469 114.175C336.222 114.37 336.016 114.649 335.851 115.009C335.686 115.37 335.563 115.803 335.48 116.308C335.408 116.812 335.372 117.369 335.372 117.977C335.372 118.543 335.382 119.157 335.403 119.816C335.423 120.475 335.465 121.135 335.527 121.794C335.588 122.444 335.676 123.072 335.789 123.68C335.913 124.288 336.062 124.824 336.237 125.287C336.423 125.751 336.644 126.122 336.902 126.4C337.17 126.679 337.484 126.818 337.845 126.818Z" fill="#4A2120"/>
<path d="M318.015 115.674C318.087 115.519 318.128 115.396 318.138 115.303C318.159 115.21 318.169 115.117 318.169 115.025V114.808C318.169 114.674 318.061 114.54 317.845 114.406C317.639 114.272 317.407 114.133 317.149 113.989C316.902 113.845 316.67 113.69 316.454 113.525C316.248 113.361 316.144 113.18 316.144 112.984C316.144 112.438 316.345 111.995 316.747 111.655C317.149 111.305 317.649 111.037 318.247 110.852C318.854 110.656 319.504 110.527 320.194 110.465C320.884 110.393 321.518 110.357 322.095 110.357C323.435 110.357 324.465 110.563 325.186 110.975C325.918 111.377 326.284 112.047 326.284 112.984C326.284 113.221 326.212 113.407 326.067 113.541C325.933 113.665 325.753 113.773 325.526 113.865C325.3 113.948 325.047 114.025 324.769 114.097C324.491 114.169 324.213 114.267 323.934 114.391C323.656 114.504 323.388 114.664 323.131 114.87C322.883 115.066 322.677 115.334 322.512 115.674L315.959 129.244C315.784 129.605 315.604 129.909 315.418 130.156C315.243 130.403 315.063 130.599 314.877 130.743C314.692 130.898 314.511 131.006 314.336 131.068C314.161 131.14 313.996 131.176 313.842 131.176C313.708 131.176 313.558 131.145 313.393 131.084C313.228 131.022 313.053 130.914 312.868 130.759C312.682 130.604 312.487 130.393 312.28 130.125C312.074 129.857 311.863 129.522 311.647 129.121L304.367 115.674C304.171 115.313 303.95 115.035 303.702 114.839C303.455 114.633 303.203 114.479 302.945 114.376C302.698 114.262 302.456 114.18 302.219 114.128C301.982 114.066 301.765 113.999 301.569 113.927C301.384 113.845 301.235 113.737 301.121 113.603C301.008 113.458 300.951 113.252 300.951 112.984C300.951 112.418 301.162 111.964 301.585 111.624C302.018 111.274 302.574 111.006 303.254 110.821C303.944 110.635 304.717 110.511 305.573 110.45C306.428 110.388 307.283 110.357 308.138 110.357C309.313 110.357 310.338 110.393 311.214 110.465C312.1 110.537 312.832 110.671 313.409 110.867C313.986 111.052 314.419 111.32 314.707 111.671C314.996 112.011 315.14 112.449 315.14 112.984C315.14 113.18 315.047 113.35 314.862 113.495C314.676 113.639 314.47 113.773 314.243 113.896C314.027 114.02 313.826 114.144 313.641 114.267C313.455 114.391 313.362 114.53 313.362 114.685C313.383 114.798 313.429 114.932 313.502 115.086C313.584 115.241 313.697 115.437 313.842 115.674L316.052 119.971L318.015 115.674Z" fill="#4A2120"/>
<path d="M288.973 127.219C289.313 127.219 289.586 127.168 289.792 127.065C290.009 126.952 290.173 126.797 290.287 126.601C290.4 126.395 290.472 126.148 290.503 125.859C290.544 125.561 290.565 125.226 290.565 124.855C290.565 124.535 290.56 124.128 290.55 123.634C290.539 123.139 290.529 122.655 290.519 122.181C290.498 121.624 290.483 121.047 290.472 120.45C290.328 120.429 290.189 120.414 290.055 120.403C289.931 120.383 289.808 120.372 289.684 120.372C289.159 120.372 288.715 120.481 288.355 120.697C288.004 120.903 287.721 121.197 287.505 121.578C287.288 121.949 287.134 122.392 287.041 122.907C286.959 123.412 286.917 123.963 286.917 124.561C286.917 124.922 286.938 125.267 286.979 125.597C287.02 125.916 287.113 126.199 287.257 126.447C287.402 126.684 287.608 126.874 287.876 127.019C288.154 127.153 288.52 127.219 288.973 127.219ZM296.423 130.388C295.897 130.388 295.372 130.362 294.846 130.311C294.331 130.249 293.837 130.13 293.363 129.955C292.899 129.78 292.471 129.528 292.08 129.198C291.688 128.868 291.353 128.43 291.075 127.884C290.869 128.368 290.534 128.791 290.07 129.152C289.617 129.512 289.097 129.816 288.509 130.063C287.932 130.3 287.319 130.476 286.67 130.589C286.031 130.713 285.418 130.774 284.831 130.774C283.79 130.774 282.878 130.651 282.095 130.403C281.312 130.156 280.653 129.806 280.117 129.352C279.581 128.889 279.179 128.337 278.911 127.699C278.643 127.06 278.509 126.344 278.509 125.55C278.509 124.613 278.664 123.726 278.973 122.892C279.292 122.047 279.828 121.31 280.58 120.682C281.343 120.053 282.358 119.558 283.625 119.198C284.893 118.827 286.479 118.641 288.386 118.641H290.503C290.503 117.498 290.462 116.55 290.38 115.797C290.307 115.045 290.189 114.448 290.024 114.005C289.859 113.561 289.653 113.252 289.406 113.077C289.159 112.902 288.86 112.814 288.509 112.814C288.118 112.814 287.788 112.933 287.52 113.17C287.263 113.407 287.051 113.752 286.886 114.205C286.732 114.649 286.619 115.19 286.546 115.828C286.485 116.457 286.454 117.173 286.454 117.977C286.011 117.977 285.542 117.972 285.047 117.961C284.563 117.941 284.079 117.899 283.594 117.838C283.12 117.776 282.667 117.683 282.234 117.559C281.812 117.425 281.436 117.25 281.106 117.034C280.776 116.807 280.513 116.524 280.318 116.184C280.122 115.844 280.024 115.432 280.024 114.947C280.024 114.267 280.199 113.623 280.549 113.015C280.91 112.407 281.456 111.877 282.188 111.423C282.93 110.96 283.867 110.594 285.001 110.326C286.134 110.048 287.484 109.909 289.05 109.909C290.874 109.909 292.446 110.094 293.764 110.465C295.083 110.836 296.165 111.392 297.01 112.134C297.865 112.876 298.494 113.814 298.896 114.947C299.308 116.071 299.514 117.389 299.514 118.904V124.376C299.514 124.819 299.571 125.164 299.684 125.411C299.808 125.658 299.952 125.849 300.117 125.983C300.292 126.107 300.483 126.194 300.689 126.246C300.895 126.297 301.08 126.354 301.245 126.416C301.42 126.467 301.565 126.545 301.678 126.648C301.802 126.74 301.863 126.9 301.863 127.127C301.863 128.157 301.4 128.961 300.472 129.538C299.555 130.105 298.205 130.388 296.423 130.388Z" fill="#4A2120"/>
<path d="M274.707 124.437C274.707 124.86 274.764 125.19 274.877 125.427C274.99 125.664 275.129 125.844 275.294 125.968C275.459 126.081 275.639 126.163 275.835 126.215C276.041 126.256 276.227 126.302 276.392 126.354C276.557 126.405 276.696 126.483 276.809 126.586C276.922 126.678 276.979 126.838 276.979 127.065C276.979 128.24 276.371 129.09 275.155 129.615C273.939 130.13 272.182 130.388 269.885 130.388C268.782 130.388 267.803 130.326 266.948 130.202C266.093 130.079 265.371 129.883 264.784 129.615C264.197 129.337 263.749 128.992 263.439 128.58C263.141 128.157 262.991 127.652 262.991 127.065C262.991 126.838 263.043 126.678 263.146 126.586C263.259 126.483 263.398 126.405 263.563 126.354C263.738 126.302 263.919 126.256 264.104 126.215C264.3 126.174 264.48 126.096 264.645 125.983C264.82 125.859 264.959 125.689 265.062 125.473C265.176 125.246 265.232 124.922 265.232 124.499V107.127C265.232 106.704 265.176 106.385 265.062 106.168C264.959 105.942 264.82 105.772 264.645 105.658C264.48 105.535 264.3 105.452 264.104 105.411C263.919 105.37 263.738 105.323 263.563 105.272C263.398 105.22 263.259 105.148 263.146 105.055C263.043 104.952 262.991 104.788 262.991 104.561C262.991 103.974 263.141 103.474 263.439 103.062C263.749 102.639 264.197 102.294 264.784 102.026C265.371 101.748 266.093 101.547 266.948 101.423C267.803 101.3 268.782 101.238 269.885 101.238C270.997 101.238 271.873 101.294 272.512 101.408C273.151 101.521 273.63 101.717 273.95 101.995C274.279 102.263 274.485 102.629 274.568 103.093C274.661 103.556 274.707 104.138 274.707 104.839V124.437Z" fill="#4A2120"/>
<path d="M252.125 116.107C252.332 115.695 252.517 115.313 252.682 114.963C252.847 114.613 253.017 114.314 253.192 114.067C253.367 113.809 253.568 113.613 253.795 113.479C254.021 113.335 254.3 113.263 254.629 113.263C255.186 113.263 255.665 113.386 256.067 113.634C256.479 113.871 256.814 114.185 257.071 114.577C257.329 114.968 257.52 115.421 257.643 115.937C257.767 116.442 257.829 116.962 257.829 117.498C257.829 118.044 257.767 118.575 257.643 119.09C257.52 119.605 257.329 120.063 257.071 120.465C256.814 120.857 256.479 121.176 256.067 121.424C255.665 121.661 255.186 121.779 254.629 121.779C254.3 121.779 254.021 121.712 253.795 121.578C253.568 121.434 253.367 121.238 253.192 120.991C253.017 120.733 252.847 120.434 252.682 120.094C252.517 119.744 252.332 119.358 252.125 118.935L250.518 118.765V123.897C250.518 124.35 250.58 124.705 250.704 124.963C250.827 125.21 250.982 125.401 251.167 125.535C251.353 125.659 251.554 125.746 251.77 125.798C251.986 125.849 252.187 125.906 252.373 125.968C252.558 126.019 252.713 126.102 252.836 126.215C252.96 126.318 253.022 126.493 253.022 126.74C253.022 127.379 252.852 127.931 252.512 128.394C252.182 128.858 251.693 129.239 251.044 129.538C250.394 129.827 249.596 130.043 248.648 130.187C247.71 130.321 246.633 130.388 245.418 130.388C244.202 130.388 243.12 130.321 242.172 130.187C241.234 130.043 240.441 129.827 239.792 129.538C239.153 129.239 238.663 128.858 238.323 128.394C237.993 127.931 237.829 127.379 237.829 126.74C237.829 126.493 237.89 126.318 238.014 126.215C238.138 126.102 238.287 126.019 238.462 125.968C238.648 125.906 238.844 125.849 239.05 125.798C239.266 125.746 239.462 125.659 239.637 125.535C239.822 125.401 239.977 125.21 240.101 124.963C240.224 124.716 240.286 124.36 240.286 123.897V112.243C240.286 111.789 240.224 111.439 240.101 111.192C239.977 110.934 239.822 110.743 239.637 110.62C239.462 110.486 239.266 110.393 239.05 110.342C238.844 110.29 238.648 110.239 238.462 110.187C238.287 110.125 238.138 110.043 238.014 109.94C237.89 109.826 237.829 109.646 237.829 109.399C237.829 108.76 237.993 108.214 238.323 107.76C238.663 107.297 239.153 106.921 239.792 106.632C240.441 106.333 241.234 106.117 242.172 105.983C243.12 105.839 244.202 105.767 245.418 105.767H258.107C258.859 105.767 259.513 105.973 260.07 106.385C260.626 106.797 261.085 107.317 261.445 107.946C261.816 108.564 262.089 109.234 262.265 109.955C262.45 110.676 262.543 111.346 262.543 111.964C262.543 112.377 262.476 112.748 262.342 113.077C262.218 113.407 262.038 113.685 261.801 113.912C261.574 114.139 261.301 114.314 260.982 114.437C260.673 114.561 260.338 114.623 259.977 114.623C259.658 114.623 259.343 114.571 259.034 114.468C258.725 114.355 258.432 114.18 258.153 113.943C257.875 113.696 257.618 113.381 257.381 113C257.154 112.608 256.963 112.135 256.809 111.578V108.997H250.518V116.277L252.125 116.107Z" fill="#4A2120"/>
<path d="M216.561 110.357C216.561 109.615 216.633 108.889 216.778 108.178C216.922 107.457 217.149 106.777 217.458 106.138C217.767 105.489 218.164 104.891 218.648 104.345C219.142 103.789 219.735 103.315 220.425 102.923C221.126 102.521 221.93 102.207 222.836 101.98C223.743 101.753 224.774 101.64 225.928 101.64C226.989 101.64 227.994 101.728 228.942 101.903C229.89 102.068 230.719 102.346 231.43 102.738C232.141 103.119 232.703 103.629 233.115 104.268C233.537 104.896 233.748 105.669 233.748 106.586C233.748 106.875 233.692 107.194 233.578 107.544C233.475 107.884 233.295 108.209 233.037 108.518C232.78 108.817 232.435 109.069 232.002 109.275C231.579 109.482 231.054 109.585 230.425 109.585C229.756 109.585 229.189 109.497 228.725 109.322C228.272 109.147 227.896 108.92 227.597 108.642C227.308 108.364 227.097 108.054 226.963 107.714C226.84 107.364 226.778 107.019 226.778 106.679C226.778 106.483 226.798 106.246 226.84 105.968C226.891 105.69 226.989 105.391 227.133 105.071C226.7 105.071 226.34 105.092 226.051 105.133C225.773 105.174 225.546 105.241 225.371 105.334C225.206 105.417 225.088 105.52 225.016 105.643C224.944 105.767 224.908 105.911 224.908 106.076C224.908 106.292 224.954 106.55 225.047 106.849C225.139 107.137 225.242 107.462 225.356 107.823C225.469 108.183 225.572 108.575 225.665 108.997C225.758 109.42 225.804 109.873 225.804 110.357H227.442C227.566 110.357 227.715 110.368 227.891 110.388C228.066 110.399 228.231 110.45 228.385 110.543C228.54 110.636 228.668 110.785 228.772 110.991C228.885 111.187 228.942 111.47 228.942 111.841C228.942 112.191 228.9 112.475 228.818 112.691C228.735 112.897 228.627 113.057 228.493 113.17C228.37 113.273 228.231 113.34 228.076 113.371C227.932 113.402 227.793 113.418 227.659 113.418H225.928V124.469C225.928 124.891 225.984 125.221 226.098 125.458C226.211 125.695 226.35 125.875 226.515 125.999C226.68 126.112 226.86 126.195 227.056 126.246C227.262 126.287 227.447 126.334 227.612 126.385C227.777 126.437 227.916 126.514 228.03 126.617C228.143 126.71 228.2 126.87 228.2 127.096C228.2 128.271 227.592 129.116 226.376 129.631C225.17 130.136 223.419 130.388 221.121 130.388C220.008 130.388 219.024 130.327 218.169 130.203C217.313 130.079 216.592 129.889 216.005 129.631C215.417 129.363 214.969 129.023 214.66 128.611C214.361 128.189 214.212 127.684 214.212 127.096C214.212 126.87 214.269 126.71 214.382 126.617C214.495 126.514 214.634 126.437 214.799 126.385C214.964 126.334 215.144 126.287 215.34 126.246C215.536 126.205 215.716 126.128 215.881 126.014C216.046 125.891 216.185 125.721 216.298 125.504C216.412 125.278 216.468 124.953 216.468 124.531V113.449H215.711C215.577 113.449 215.423 113.443 215.247 113.433C215.072 113.413 214.907 113.351 214.753 113.248C214.598 113.145 214.47 112.985 214.366 112.769C214.263 112.552 214.212 112.243 214.212 111.841C214.212 111.47 214.263 111.187 214.366 110.991C214.48 110.785 214.614 110.636 214.768 110.543C214.923 110.45 215.088 110.399 215.263 110.388C215.438 110.368 215.587 110.357 215.711 110.357H216.561Z" fill="#4A2120"/>
<path d="M200.796 130.774C199.57 130.774 198.441 130.63 197.411 130.342C196.391 130.053 195.469 129.662 194.644 129.167C193.83 128.662 193.114 128.07 192.496 127.39C191.878 126.709 191.363 125.978 190.95 125.195C190.538 124.401 190.229 123.577 190.023 122.722C189.817 121.867 189.714 121.011 189.714 120.156C189.714 119.28 189.822 118.42 190.038 117.575C190.265 116.72 190.6 115.911 191.043 115.148C191.496 114.386 192.058 113.685 192.728 113.046C193.398 112.407 194.181 111.856 195.077 111.392C195.984 110.929 196.999 110.568 198.122 110.311C199.255 110.043 200.502 109.909 201.862 109.909C203.058 109.909 204.15 110.043 205.139 110.311C206.139 110.578 207.04 110.949 207.844 111.423C208.648 111.887 209.348 112.438 209.946 113.077C210.554 113.716 211.059 114.412 211.461 115.164C211.862 115.916 212.161 116.709 212.357 117.544C212.563 118.379 212.666 119.218 212.666 120.063C212.666 120.939 212.558 121.815 212.342 122.691C212.125 123.567 211.795 124.401 211.352 125.195C210.92 125.988 210.373 126.725 209.714 127.405C209.055 128.085 208.282 128.678 207.396 129.182C206.52 129.677 205.531 130.069 204.428 130.357C203.326 130.635 202.115 130.774 200.796 130.774ZM201.491 126.818C201.831 126.818 202.115 126.72 202.341 126.524C202.578 126.318 202.769 126.024 202.913 125.643C203.058 125.262 203.161 124.803 203.222 124.267C203.284 123.721 203.315 123.113 203.315 122.444C203.315 121.856 203.31 121.238 203.3 120.589C203.289 119.929 203.264 119.285 203.222 118.657C203.181 118.018 203.114 117.41 203.022 116.833C202.929 116.256 202.795 115.746 202.62 115.303C202.455 114.86 202.244 114.509 201.986 114.252C201.728 113.994 201.414 113.865 201.043 113.865C200.683 113.865 200.373 113.968 200.116 114.175C199.868 114.37 199.662 114.649 199.498 115.009C199.333 115.37 199.209 115.803 199.127 116.308C199.054 116.812 199.018 117.369 199.018 117.977C199.018 118.543 199.029 119.157 199.049 119.816C199.07 120.475 199.111 121.135 199.173 121.794C199.235 122.444 199.322 123.072 199.436 123.68C199.559 124.288 199.709 124.824 199.884 125.287C200.069 125.751 200.291 126.122 200.549 126.4C200.816 126.679 201.131 126.818 201.491 126.818Z" fill="#4A2120"/>
<path d="M163.176 111.81C163.351 111.696 163.578 111.537 163.856 111.331C164.145 111.114 164.567 110.903 165.123 110.697C165.68 110.481 166.417 110.295 167.334 110.141C168.251 109.986 169.431 109.909 170.873 109.909C171.955 109.909 172.898 110.037 173.702 110.295C174.505 110.553 175.19 110.903 175.757 111.346C176.334 111.789 176.808 112.315 177.179 112.923C177.55 113.52 177.844 114.169 178.06 114.87C178.277 115.56 178.426 116.282 178.508 117.034C178.591 117.786 178.632 118.533 178.632 119.275V119.43C178.622 120.656 178.611 121.604 178.601 122.274C178.601 122.933 178.601 123.417 178.601 123.726C178.601 124.036 178.601 124.221 178.601 124.283C178.601 124.334 178.601 124.36 178.601 124.36C178.601 124.793 178.658 125.133 178.771 125.38C178.884 125.617 179.024 125.803 179.188 125.937C179.364 126.06 179.549 126.148 179.745 126.199C179.951 126.241 180.136 126.292 180.301 126.354C180.476 126.405 180.621 126.483 180.734 126.586C180.847 126.679 180.904 126.838 180.904 127.065C180.904 127.652 180.755 128.157 180.456 128.58C180.167 128.992 179.74 129.337 179.173 129.615C178.606 129.883 177.906 130.079 177.071 130.203C176.247 130.326 175.299 130.388 174.227 130.388C173.186 130.388 172.259 130.326 171.445 130.203C170.641 130.079 169.961 129.883 169.405 129.615C168.848 129.337 168.426 128.992 168.137 128.58C167.849 128.157 167.705 127.652 167.705 127.065C167.705 126.838 167.741 126.679 167.813 126.586C167.895 126.483 167.993 126.405 168.106 126.354C168.22 126.302 168.343 126.256 168.477 126.215C168.611 126.174 168.735 126.096 168.848 125.983C168.962 125.859 169.054 125.689 169.127 125.473C169.209 125.246 169.25 124.922 169.25 124.499V117.853C169.25 117.225 169.209 116.663 169.127 116.168C169.054 115.674 168.931 115.256 168.756 114.916C168.58 114.576 168.343 114.319 168.045 114.144C167.756 113.958 167.39 113.865 166.947 113.865C166.267 113.865 165.773 114.082 165.463 114.515C165.165 114.937 165.015 115.488 165.015 116.168V124.314C165.015 124.757 165.056 125.102 165.139 125.349C165.221 125.597 165.324 125.787 165.448 125.921C165.582 126.045 165.721 126.132 165.865 126.184C166.02 126.235 166.159 126.292 166.283 126.354C166.417 126.405 166.525 126.483 166.607 126.586C166.69 126.679 166.731 126.838 166.731 127.065C166.731 127.652 166.612 128.157 166.375 128.58C166.149 128.992 165.788 129.337 165.293 129.615C164.809 129.883 164.181 130.079 163.408 130.203C162.645 130.326 161.723 130.388 160.641 130.388C159.6 130.388 158.673 130.326 157.859 130.203C157.055 130.079 156.375 129.883 155.819 129.615C155.262 129.337 154.84 128.992 154.551 128.58C154.263 128.157 154.119 127.652 154.119 127.065C154.119 126.838 154.155 126.679 154.227 126.586C154.309 126.483 154.407 126.405 154.521 126.354C154.634 126.302 154.758 126.256 154.892 126.215C155.036 126.174 155.165 126.096 155.278 125.983C155.391 125.859 155.484 125.689 155.556 125.473C155.639 125.246 155.68 124.922 155.68 124.499V117.853C155.68 116.596 155.525 115.622 155.216 114.932C154.917 114.242 154.376 113.896 153.593 113.896C153.284 113.896 152.99 113.953 152.712 114.066C152.434 114.18 152.187 114.345 151.97 114.561C151.754 114.767 151.584 115.014 151.46 115.303C151.337 115.591 151.275 115.906 151.275 116.246V124.437C151.275 124.86 151.316 125.19 151.398 125.427C151.491 125.664 151.605 125.844 151.738 125.968C151.872 126.081 152.017 126.163 152.171 126.215C152.336 126.256 152.486 126.302 152.619 126.354C152.753 126.405 152.862 126.483 152.944 126.586C153.037 126.679 153.083 126.838 153.083 127.065C153.083 128.24 152.496 129.09 151.321 129.615C150.157 130.13 148.477 130.388 146.282 130.388C145.221 130.388 144.273 130.326 143.439 130.203C142.604 130.079 141.898 129.883 141.321 129.615C140.754 129.337 140.316 128.992 140.007 128.58C139.708 128.157 139.559 127.652 139.559 127.065C139.559 126.838 139.616 126.679 139.729 126.586C139.842 126.483 139.982 126.405 140.146 126.354C140.311 126.302 140.492 126.256 140.687 126.215C140.883 126.174 141.063 126.096 141.228 125.983C141.393 125.859 141.532 125.689 141.646 125.473C141.759 125.246 141.816 124.922 141.816 124.499V116.246C141.816 115.834 141.759 115.514 141.646 115.287C141.532 115.061 141.393 114.891 141.228 114.777C141.063 114.654 140.883 114.571 140.687 114.53C140.492 114.489 140.311 114.442 140.146 114.391C139.982 114.339 139.842 114.267 139.729 114.175C139.616 114.072 139.559 113.907 139.559 113.68C139.559 113.093 139.708 112.593 140.007 112.181C140.306 111.758 140.739 111.413 141.306 111.145C141.883 110.867 142.583 110.666 143.408 110.542C144.232 110.419 145.164 110.357 146.205 110.357C146.679 110.357 147.107 110.383 147.488 110.434C147.869 110.475 148.204 110.537 148.493 110.62C148.792 110.692 149.049 110.779 149.265 110.882C149.482 110.975 149.667 111.073 149.822 111.176C150.183 111.423 150.435 111.696 150.579 111.995C151.084 111.614 151.692 111.269 152.403 110.96C153.011 110.692 153.753 110.45 154.629 110.233C155.505 110.017 156.53 109.909 157.705 109.909C158.92 109.909 159.997 110.084 160.935 110.434C161.872 110.774 162.62 111.233 163.176 111.81Z" fill="#4A2120"/>
<path d="M126.359 130.774C125.133 130.774 124.005 130.63 122.974 130.342C121.954 130.053 121.032 129.662 120.208 129.167C119.394 128.662 118.678 128.07 118.059 127.39C117.441 126.709 116.926 125.978 116.514 125.195C116.102 124.401 115.793 123.577 115.586 122.722C115.38 121.867 115.277 121.011 115.277 120.156C115.277 119.28 115.386 118.42 115.602 117.575C115.829 116.72 116.163 115.911 116.607 115.148C117.06 114.386 117.622 113.685 118.291 113.046C118.961 112.407 119.744 111.856 120.641 111.392C121.547 110.929 122.562 110.568 123.685 110.311C124.819 110.043 126.066 109.909 127.426 109.909C128.621 109.909 129.713 110.043 130.703 110.311C131.702 110.578 132.604 110.949 133.407 111.423C134.211 111.887 134.912 112.438 135.509 113.077C136.117 113.716 136.622 114.412 137.024 115.164C137.426 115.916 137.725 116.709 137.92 117.544C138.127 118.379 138.23 119.218 138.23 120.063C138.23 120.939 138.121 121.815 137.905 122.691C137.689 123.567 137.359 124.401 136.916 125.195C136.483 125.988 135.937 126.725 135.277 127.405C134.618 128.085 133.845 128.678 132.959 129.182C132.083 129.677 131.094 130.069 129.992 130.357C128.889 130.635 127.678 130.774 126.359 130.774ZM127.055 126.818C127.395 126.818 127.678 126.72 127.905 126.524C128.142 126.318 128.333 126.024 128.477 125.643C128.621 125.262 128.724 124.803 128.786 124.267C128.848 123.721 128.879 123.113 128.879 122.444C128.879 121.856 128.874 121.238 128.863 120.589C128.853 119.929 128.827 119.285 128.786 118.657C128.745 118.018 128.678 117.41 128.585 116.833C128.492 116.256 128.358 115.746 128.183 115.303C128.018 114.86 127.807 114.509 127.549 114.252C127.292 113.994 126.978 113.865 126.607 113.865C126.246 113.865 125.937 113.968 125.679 114.175C125.432 114.37 125.226 114.649 125.061 115.009C124.896 115.37 124.773 115.803 124.69 116.308C124.618 116.812 124.582 117.369 124.582 117.977C124.582 118.543 124.592 119.157 124.613 119.816C124.633 120.475 124.675 121.135 124.736 121.794C124.798 122.444 124.886 123.072 124.999 123.68C125.123 124.288 125.272 124.824 125.447 125.287C125.633 125.751 125.854 126.122 126.112 126.4C126.38 126.679 126.694 126.818 127.055 126.818Z" fill="#4A2120"/>
<path d="M111.754 124.437C111.754 124.86 111.81 125.19 111.924 125.427C112.037 125.664 112.176 125.844 112.341 125.968C112.506 126.081 112.686 126.163 112.882 126.215C113.088 126.256 113.273 126.302 113.438 126.354C113.603 126.405 113.742 126.483 113.856 126.586C113.969 126.678 114.026 126.838 114.026 127.065C114.026 128.24 113.418 129.09 112.202 129.615C110.986 130.13 109.229 130.388 106.931 130.388C106.313 130.388 105.772 130.342 105.308 130.249C104.845 130.156 104.443 130.027 104.103 129.862C103.773 129.687 103.5 129.481 103.284 129.244C103.067 128.997 102.892 128.724 102.758 128.425C102.49 128.672 102.161 128.935 101.769 129.213C101.388 129.491 100.919 129.749 100.362 129.986C99.8164 130.213 99.1827 130.398 98.4614 130.543C97.7504 130.697 96.9364 130.774 96.0193 130.774C94.9786 130.774 94.0564 130.63 93.2527 130.342C92.4593 130.053 91.7689 129.662 91.1816 129.167C90.6045 128.662 90.1202 128.075 89.7287 127.405C89.3371 126.735 89.0229 126.019 88.7859 125.257C88.5489 124.494 88.3789 123.706 88.2758 122.892C88.1831 122.078 88.1367 121.274 88.1367 120.481C88.1367 119.667 88.1934 118.842 88.3067 118.008C88.4304 117.173 88.6262 116.364 88.8941 115.581C89.1723 114.798 89.5226 114.061 89.9451 113.371C90.3779 112.68 90.8982 112.083 91.5061 111.578C92.1244 111.063 92.8405 110.656 93.6545 110.357C94.4789 110.058 95.4114 109.909 96.4521 109.909C97.1837 109.909 97.8483 109.965 98.4459 110.079C99.0436 110.182 99.5794 110.321 100.053 110.496C100.538 110.671 100.96 110.872 101.321 111.099C101.692 111.325 102.011 111.552 102.279 111.779V107.127C102.279 106.704 102.222 106.385 102.109 106.168C102.006 105.942 101.867 105.772 101.692 105.658C101.527 105.535 101.347 105.452 101.151 105.411C100.965 105.37 100.785 105.323 100.61 105.272C100.445 105.22 100.306 105.148 100.192 105.055C100.089 104.952 100.038 104.788 100.038 104.561C100.038 103.974 100.187 103.474 100.486 103.062C100.795 102.639 101.243 102.294 101.831 102.026C102.418 101.748 103.139 101.547 103.995 101.423C104.85 101.3 105.829 101.238 106.931 101.238C108.044 101.238 108.92 101.294 109.559 101.408C110.208 101.521 110.697 101.717 111.027 101.995C111.367 102.263 111.584 102.629 111.676 103.093C111.769 103.556 111.815 104.138 111.815 104.839L111.754 124.437ZM100.038 126.849C100.45 126.849 100.857 126.776 101.259 126.632C101.661 126.488 102.011 126.328 102.31 126.153C102.289 125.885 102.279 125.617 102.279 125.349C102.279 125.071 102.279 124.788 102.279 124.499V114.715C101.929 114.509 101.542 114.319 101.12 114.144C100.697 113.958 100.265 113.865 99.8215 113.865C99.3475 113.865 98.956 113.974 98.6469 114.19C98.348 114.406 98.111 114.772 97.9359 115.287C97.7607 115.792 97.6371 116.477 97.5649 117.343C97.5031 118.198 97.4722 119.265 97.4722 120.542C97.4722 121.315 97.498 122.078 97.5495 122.83C97.601 123.582 97.7143 124.257 97.8895 124.855C98.0647 125.442 98.3223 125.921 98.6623 126.292C99.0023 126.663 99.4609 126.849 100.038 126.849Z" fill="#4A2120"/>
<path d="M78.9559 113.865C78.6262 113.865 78.3171 113.943 78.0286 114.097C77.7401 114.242 77.4876 114.468 77.2712 114.777C77.0651 115.086 76.9003 115.483 76.7766 115.967C76.6633 116.441 76.6066 117.008 76.6066 117.668H81.5371C81.5371 116.946 81.4804 116.344 81.3671 115.859C81.2537 115.365 81.0889 114.973 80.8725 114.685C80.6561 114.386 80.3831 114.175 80.0533 114.051C79.7339 113.927 79.3681 113.865 78.9559 113.865ZM77.8122 109.909C79.1929 109.909 80.4346 110.115 81.5371 110.527C82.6499 110.939 83.5928 111.506 84.3656 112.227C85.1487 112.948 85.7463 113.798 86.1585 114.777C86.5809 115.746 86.7922 116.792 86.7922 117.915C86.7922 118.379 86.7252 118.739 86.5912 118.997C86.4676 119.254 86.2873 119.445 86.0503 119.569C85.8133 119.692 85.5196 119.77 85.1693 119.801C84.8189 119.831 84.4222 119.847 83.9792 119.847H76.5448C76.5448 120.98 76.6581 121.903 76.8848 122.614C77.1218 123.314 77.4464 123.86 77.8586 124.252C78.2707 124.643 78.7653 124.911 79.3423 125.056C79.9194 125.19 80.5582 125.257 81.2589 125.257C81.6298 125.257 82.0111 125.221 82.4026 125.148C82.8045 125.076 83.1858 124.984 83.5464 124.87C83.9173 124.757 84.2574 124.638 84.5665 124.515C84.8756 124.391 85.1332 124.273 85.3393 124.159C85.5042 124.066 85.6639 124.02 85.8184 124.02C86.0554 124.02 86.2409 124.123 86.3749 124.329C86.5088 124.525 86.5758 124.747 86.5758 124.994C86.5758 125.076 86.5706 125.154 86.5603 125.226C86.55 125.298 86.5294 125.37 86.4985 125.442C86.1997 126.205 85.7927 126.91 85.2775 127.56C84.7623 128.209 84.1337 128.775 83.3918 129.26C82.6602 129.734 81.8102 130.105 80.8416 130.373C79.873 130.64 78.7859 130.774 77.5803 130.774C76.4263 130.774 75.3701 130.64 74.4119 130.373C73.4639 130.094 72.6035 129.713 71.8307 129.229C71.0682 128.734 70.3984 128.157 69.8214 127.498C69.2444 126.838 68.7652 126.122 68.384 125.349C68.0027 124.566 67.7142 123.752 67.5184 122.907C67.333 122.052 67.2402 121.192 67.2402 120.326C67.2402 119.45 67.3381 118.585 67.5339 117.729C67.7297 116.864 68.0233 116.045 68.4149 115.272C68.8064 114.499 69.2959 113.788 69.8832 113.139C70.4706 112.48 71.1558 111.913 71.9389 111.439C72.722 110.955 73.603 110.578 74.5819 110.311C75.5608 110.043 76.6375 109.909 77.8122 109.909Z" fill="#4A2120"/>
<path d="M58.1517 113.865C57.822 113.865 57.5129 113.943 57.2244 114.097C56.9359 114.242 56.6834 114.468 56.467 114.777C56.2609 115.086 56.0961 115.483 55.9724 115.967C55.8591 116.441 55.8024 117.008 55.8024 117.668H60.7329C60.7329 116.946 60.6762 116.344 60.5629 115.859C60.4495 115.365 60.2847 114.973 60.0683 114.685C59.8519 114.386 59.5788 114.175 59.2491 114.051C58.9297 113.927 58.5639 113.865 58.1517 113.865ZM57.008 109.909C58.3887 109.909 59.6304 110.115 60.7329 110.527C61.8457 110.939 62.7886 111.506 63.5614 112.227C64.3445 112.948 64.9421 113.798 65.3543 114.777C65.7767 115.746 65.988 116.792 65.988 117.915C65.988 118.379 65.921 118.739 65.787 118.997C65.6634 119.254 65.4831 119.445 65.2461 119.569C65.0091 119.692 64.7154 119.77 64.3651 119.801C64.0147 119.831 63.618 119.847 63.175 119.847H55.7406C55.7406 120.98 55.8539 121.903 56.0806 122.614C56.3176 123.314 56.6422 123.86 57.0544 124.252C57.4665 124.643 57.9611 124.911 58.5381 125.056C59.1152 125.19 59.754 125.257 60.4547 125.257C60.8256 125.257 61.2069 125.221 61.5984 125.148C62.0003 125.076 62.3815 124.984 62.7422 124.87C63.1131 124.757 63.4532 124.638 63.7623 124.515C64.0714 124.391 64.329 124.273 64.5351 124.159C64.7 124.066 64.8597 124.02 65.0142 124.02C65.2512 124.02 65.4367 124.123 65.5707 124.329C65.7046 124.525 65.7716 124.747 65.7716 124.994C65.7716 125.076 65.7664 125.154 65.7561 125.226C65.7458 125.298 65.7252 125.37 65.6943 125.442C65.3955 126.205 64.9885 126.91 64.4733 127.56C63.9581 128.209 63.3295 128.775 62.5876 129.26C61.856 129.734 61.006 130.105 60.0374 130.373C59.0688 130.64 57.9817 130.774 56.7761 130.774C55.6221 130.774 54.5659 130.64 53.6077 130.373C52.6597 130.094 51.7993 129.713 51.0265 129.229C50.264 128.734 49.5942 128.157 49.0172 127.498C48.4402 126.838 47.961 126.122 47.5798 125.349C47.1985 124.566 46.91 123.752 46.7142 122.907C46.5288 122.052 46.436 121.192 46.436 120.326C46.436 119.45 46.5339 118.585 46.7297 117.729C46.9255 116.864 47.2191 116.045 47.6107 115.272C48.0022 114.499 48.4917 113.788 49.079 113.139C49.6664 112.48 50.3516 111.913 51.1347 111.439C51.9178 110.955 52.7988 110.578 53.7777 110.311C54.7566 110.043 55.8333 109.909 57.008 109.909Z" fill="#4A2120"/>
<path d="M37.348 124.438C37.348 124.861 37.4047 125.19 37.518 125.427C37.6314 125.664 37.7705 125.845 37.9354 125.968C38.1105 126.082 38.296 126.164 38.4918 126.216C38.6876 126.257 38.8679 126.303 39.0327 126.355C39.2079 126.406 39.3522 126.484 39.4655 126.587C39.5789 126.679 39.6355 126.839 39.6355 127.066C39.6355 128.24 39.0276 129.09 37.8117 129.616C36.5958 130.131 34.839 130.389 32.5412 130.389C31.4284 130.389 30.4443 130.327 29.5891 130.203C28.7338 130.08 28.0126 129.884 27.4252 129.616C26.8379 129.338 26.3897 128.993 26.0805 128.58C25.7817 128.158 25.6323 127.653 25.6323 127.066C25.6323 126.839 25.689 126.679 25.8023 126.587C25.9157 126.484 26.0548 126.406 26.2197 126.355C26.3845 126.303 26.5648 126.257 26.7606 126.216C26.9564 126.174 27.1367 126.097 27.3016 125.984C27.4664 125.86 27.6055 125.69 27.7189 125.474C27.8322 125.247 27.8889 124.922 27.8889 124.5V116.246C27.8889 115.834 27.8322 115.515 27.7189 115.288C27.6055 115.061 27.4664 114.891 27.3016 114.778C27.1367 114.654 26.9564 114.572 26.7606 114.531C26.5648 114.49 26.3845 114.443 26.2197 114.392C26.0548 114.34 25.9157 114.268 25.8023 114.175C25.689 114.072 25.6323 113.907 25.6323 113.681C25.6323 113.093 25.7817 112.594 26.0805 112.181C26.3897 111.759 26.8379 111.414 27.4252 111.146C28.0126 110.868 28.7338 110.667 29.5891 110.543C30.4443 110.419 31.4284 110.358 32.5412 110.358C33.5613 110.358 34.3753 110.461 34.9832 110.667C35.6015 110.863 36.0858 111.156 36.4361 111.548C36.7246 111.362 37.0235 111.187 37.3326 111.022C37.6417 110.847 37.9714 110.698 38.3218 110.574C38.6721 110.44 39.0534 110.337 39.4655 110.265C39.8777 110.193 40.3311 110.157 40.8256 110.157C41.4439 110.157 42.0364 110.224 42.6031 110.358C43.1801 110.481 43.6902 110.693 44.1332 110.991C44.5763 111.28 44.9267 111.661 45.1843 112.135C45.4522 112.599 45.5861 113.176 45.5861 113.866C45.5861 114.32 45.5088 114.763 45.3543 115.195C45.1997 115.628 44.9679 116.015 44.6588 116.355C44.3599 116.684 43.9787 116.952 43.515 117.158C43.0616 117.364 42.5361 117.467 41.9385 117.467C41.3408 117.467 40.872 117.38 40.532 117.205C40.1919 117.03 39.9292 116.813 39.7437 116.556C39.5582 116.298 39.4191 116.02 39.3264 115.721C39.244 115.412 39.1512 115.128 39.0482 114.871C38.9555 114.613 38.8267 114.397 38.6618 114.222C38.5072 114.047 38.2702 113.959 37.9508 113.959C37.6314 113.959 37.4202 114 37.3171 114.083C37.2141 114.155 37.1626 114.263 37.1626 114.407C37.1626 114.593 37.1986 114.83 37.2708 115.118C37.3429 115.407 37.3789 115.757 37.3789 116.169L37.348 124.438Z" fill="#4A2120"/>
<path d="M14.3496 116.107C14.5557 115.695 14.7412 115.313 14.906 114.963C15.0709 114.613 15.2409 114.314 15.4161 114.067C15.5912 113.809 15.7922 113.613 16.0189 113.479C16.2456 113.335 16.5238 113.263 16.8535 113.263C17.4099 113.263 17.889 113.386 18.2909 113.634C18.7031 113.871 19.0379 114.185 19.2955 114.577C19.5532 114.968 19.7438 115.421 19.8674 115.937C19.9911 116.442 20.0529 116.962 20.0529 117.498C20.0529 118.044 19.9911 118.575 19.8674 119.09C19.7438 119.605 19.5532 120.063 19.2955 120.465C19.0379 120.857 18.7031 121.176 18.2909 121.424C17.889 121.661 17.4099 121.779 16.8535 121.779C16.5238 121.779 16.2456 121.712 16.0189 121.578C15.7922 121.434 15.5912 121.238 15.4161 120.991C15.2409 120.733 15.0709 120.434 14.906 120.094C14.7412 119.744 14.5557 119.358 14.3496 118.935L12.7422 118.765V123.897C12.7422 124.35 12.804 124.705 12.9276 124.963C13.0513 125.21 13.2059 125.401 13.3913 125.535C13.5768 125.659 13.7777 125.746 13.9941 125.798C14.2105 125.849 14.4114 125.906 14.5969 125.968C14.7824 126.019 14.9369 126.102 15.0606 126.215C15.1842 126.318 15.2461 126.493 15.2461 126.74C15.2461 127.379 15.076 127.931 14.736 128.394C14.4063 128.858 13.9168 129.239 13.2677 129.538C12.6185 129.827 11.82 130.043 10.872 130.187C9.93432 130.321 8.85755 130.388 7.64167 130.388C6.42579 130.388 5.34386 130.321 4.39589 130.187C3.45822 130.043 2.66481 129.827 2.01566 129.538C1.3768 129.239 0.887362 128.858 0.547329 128.394C0.217599 127.931 0.0527344 127.379 0.0527344 126.74C0.0527344 126.493 0.114559 126.318 0.238207 126.215C0.361856 126.102 0.511265 126.019 0.686433 125.968C0.871906 125.906 1.06768 125.849 1.27376 125.798C1.49015 125.746 1.68593 125.659 1.8611 125.535C2.04657 125.401 2.20113 125.21 2.32478 124.963C2.44843 124.716 2.51025 124.36 2.51025 123.897V112.243C2.51025 111.789 2.44843 111.439 2.32478 111.192C2.20113 110.934 2.04657 110.743 1.8611 110.62C1.68593 110.486 1.49015 110.393 1.27376 110.342C1.06768 110.29 0.871906 110.239 0.686433 110.187C0.511265 110.125 0.361856 110.043 0.238207 109.94C0.114559 109.826 0.0527344 109.646 0.0527344 109.399C0.0527344 108.76 0.217599 108.214 0.547329 107.76C0.887362 107.297 1.3768 106.921 2.01566 106.632C2.66481 106.333 3.45822 106.117 4.39589 105.983C5.34386 105.839 6.42579 105.767 7.64167 105.767H20.3311C21.0833 105.767 21.7376 105.973 22.294 106.385C22.8504 106.797 23.309 107.317 23.6696 107.946C24.0406 108.564 24.3136 109.234 24.4888 109.955C24.6743 110.676 24.767 111.346 24.767 111.964C24.767 112.377 24.7 112.748 24.5661 113.077C24.4424 113.407 24.2621 113.685 24.0251 113.912C23.7984 114.139 23.5254 114.314 23.2059 114.437C22.8968 114.561 22.5619 114.623 22.2013 114.623C21.8819 114.623 21.5676 114.571 21.2585 114.468C20.9493 114.355 20.6557 114.18 20.3775 113.943C20.0993 113.696 19.8417 113.381 19.6047 113C19.378 112.608 19.1874 112.135 19.0328 111.578V108.997H12.7422V116.277L14.3496 116.107Z" fill="#4A2120"/>
</svg>
