<svg width="443" height="260" viewBox="0 0 443 260" fill="none" xmlns="http://www.w3.org/2000/svg">
<path d="M23.469 4.2583V243.571" stroke="#F0F0F0" stroke-width="0.885621"/>
<path d="M59.7794 4.2583V243.571" stroke="#F0F0F0" stroke-width="0.885621"/>
<path d="M96.0898 4.2583V243.571" stroke="#F0F0F0" stroke-width="0.885621"/>
<path d="M132.4 4.2583V243.571" stroke="#F0F0F0" stroke-width="0.885621"/>
<path d="M169.596 4.2583V243.571" stroke="#F0F0F0" stroke-width="0.885621"/>
<path d="M205.907 4.2583V243.571" stroke="#F0F0F0" stroke-width="0.885621"/>
<path d="M242.217 4.2583V243.571" stroke="#F0F0F0" stroke-width="0.885621"/>
<path d="M278.528 4.2583V243.571" stroke="#F0F0F0" stroke-width="0.885621"/>
<path d="M314.838 4.2583V243.571" stroke="#F0F0F0" stroke-width="0.885621"/>
<path d="M351.149 4.2583V243.571" stroke="#F0F0F0" stroke-width="0.885621"/>
<path d="M387.459 4.2583V243.571" stroke="#F0F0F0" stroke-width="0.885621"/>
<path d="M423.77 4.2583V243.571" stroke="#F0F0F0" stroke-width="0.885621"/>
<path d="M23.9117 243.997H442.81" stroke="#F0F0F0" stroke-width="0.885621"/>
<path d="M23.9117 196.304H442.81" stroke="#F0F0F0" stroke-width="0.885621"/>
<path d="M23.9117 148.612H442.81" stroke="#F0F0F0" stroke-width="0.885621"/>
<path d="M23.9117 100.068H442.81" stroke="#F0F0F0" stroke-width="0.885621"/>
<path d="M23.9117 52.3765H442.81" stroke="#F0F0F0" stroke-width="0.885621"/>
<path d="M23.9117 3.83203H442.81" stroke="#F0F0F0" stroke-width="0.885621"/>
<path d="M23.9117 243.997H442.81" stroke="#F0F0F0" stroke-width="0.885621"/>
<path d="M23.469 4.2583V243.571" stroke="#F0F0F0" stroke-width="0.885621"/>
<path d="M25.7397 254.734V255.694C25.7397 256.21 25.6936 256.645 25.6014 257C25.5091 257.355 25.3765 257.64 25.2035 257.856C25.0306 258.072 24.8215 258.23 24.5765 258.328C24.3343 258.423 24.0605 258.47 23.7549 258.47C23.5127 258.47 23.2893 258.44 23.0846 258.379C22.8799 258.319 22.6954 258.222 22.5311 258.09C22.3697 257.954 22.2313 257.778 22.116 257.562C22.0007 257.346 21.9127 257.084 21.8522 256.775C21.7916 256.467 21.7614 256.106 21.7614 255.694V254.734C21.7614 254.218 21.8075 253.786 21.8997 253.437C21.9949 253.088 22.1289 252.808 22.3019 252.598C22.4749 252.385 22.6825 252.232 22.9246 252.139C23.1697 252.047 23.4435 252.001 23.7462 252.001C23.9913 252.001 24.2161 252.031 24.4208 252.092C24.6284 252.15 24.8129 252.243 24.9743 252.373C25.1358 252.5 25.2727 252.67 25.3852 252.883C25.5005 253.094 25.5884 253.352 25.6489 253.657C25.7095 253.963 25.7397 254.322 25.7397 254.734ZM24.9354 255.824V254.6C24.9354 254.317 24.9181 254.07 24.8835 253.856C24.8518 253.64 24.8043 253.456 24.7408 253.303C24.6774 253.15 24.5967 253.026 24.4987 252.931C24.4035 252.836 24.2925 252.766 24.1657 252.723C24.0417 252.677 23.9019 252.654 23.7462 252.654C23.556 252.654 23.3873 252.69 23.2403 252.762C23.0933 252.831 22.9693 252.942 22.8684 253.095C22.7704 253.248 22.6954 253.448 22.6435 253.696C22.5916 253.944 22.5657 254.245 22.5657 254.6V255.824C22.5657 256.106 22.5816 256.356 22.6133 256.572C22.6479 256.788 22.6983 256.976 22.7646 257.134C22.8309 257.29 22.9116 257.418 23.0068 257.519C23.1019 257.62 23.2115 257.695 23.3354 257.744C23.4623 257.79 23.6021 257.813 23.7549 257.813C23.9509 257.813 24.1225 257.776 24.2695 257.701C24.4165 257.626 24.539 257.509 24.637 257.35C24.7379 257.189 24.8129 256.983 24.8619 256.732C24.9109 256.478 24.9354 256.176 24.9354 255.824Z" fill="#A3A3A3"/>
<path d="M134.135 252.079H134.205V252.758H134.135C133.712 252.758 133.357 252.827 133.072 252.965C132.786 253.101 132.56 253.284 132.393 253.515C132.226 253.742 132.104 253.999 132.029 254.284C131.957 254.57 131.921 254.859 131.921 255.154V256.079C131.921 256.359 131.955 256.606 132.021 256.823C132.087 257.036 132.178 257.216 132.293 257.363C132.409 257.51 132.538 257.621 132.682 257.696C132.829 257.771 132.982 257.809 133.141 257.809C133.325 257.809 133.49 257.774 133.634 257.705C133.778 257.633 133.899 257.533 133.997 257.406C134.098 257.277 134.174 257.124 134.226 256.948C134.278 256.772 134.304 256.579 134.304 256.369C134.304 256.181 134.281 256.001 134.235 255.828C134.189 255.652 134.118 255.497 134.023 255.361C133.928 255.223 133.808 255.115 133.664 255.037C133.523 254.956 133.354 254.916 133.158 254.916C132.936 254.916 132.729 254.97 132.535 255.08C132.345 255.187 132.188 255.328 132.064 255.504C131.943 255.677 131.874 255.866 131.856 256.07L131.433 256.066C131.473 255.743 131.548 255.468 131.658 255.24C131.77 255.009 131.908 254.822 132.073 254.678C132.24 254.531 132.426 254.424 132.631 254.358C132.838 254.289 133.057 254.254 133.288 254.254C133.602 254.254 133.873 254.313 134.101 254.431C134.329 254.55 134.516 254.708 134.663 254.907C134.81 255.103 134.918 255.325 134.987 255.573C135.059 255.818 135.095 256.07 135.095 256.33C135.095 256.627 135.054 256.905 134.97 257.164C134.886 257.424 134.761 257.652 134.594 257.848C134.429 258.044 134.226 258.196 133.984 258.306C133.742 258.416 133.461 258.47 133.141 258.47C132.801 258.47 132.504 258.401 132.25 258.263C131.996 258.121 131.786 257.934 131.619 257.701C131.451 257.467 131.326 257.208 131.242 256.922C131.159 256.637 131.117 256.347 131.117 256.053V255.677C131.117 255.233 131.162 254.797 131.251 254.371C131.34 253.944 131.495 253.558 131.714 253.212C131.936 252.866 132.243 252.591 132.635 252.386C133.027 252.181 133.527 252.079 134.135 252.079Z" fill="#A3A3A3"/>
<path d="M240.325 252.053V258.384H239.525V253.052L237.912 253.64V252.918L240.199 252.053H240.325ZM246.802 257.726V258.384H242.681V257.809L244.744 255.512C244.998 255.23 245.194 254.991 245.332 254.795C245.473 254.596 245.571 254.418 245.626 254.263C245.684 254.104 245.713 253.943 245.713 253.778C245.713 253.571 245.669 253.383 245.583 253.216C245.499 253.046 245.375 252.911 245.211 252.81C245.047 252.709 244.848 252.658 244.614 252.658C244.335 252.658 244.101 252.713 243.914 252.823C243.729 252.929 243.591 253.079 243.499 253.272C243.406 253.466 243.36 253.688 243.36 253.938H242.56C242.56 253.584 242.638 253.259 242.794 252.965C242.949 252.671 243.18 252.438 243.486 252.265C243.791 252.089 244.168 252.001 244.614 252.001C245.012 252.001 245.352 252.072 245.635 252.213C245.917 252.351 246.134 252.547 246.284 252.801C246.436 253.052 246.513 253.346 246.513 253.683C246.513 253.868 246.481 254.055 246.418 254.245C246.357 254.433 246.272 254.62 246.162 254.808C246.056 254.995 245.93 255.179 245.786 255.361C245.645 255.543 245.494 255.721 245.332 255.897L243.646 257.726H246.802Z" fill="#A3A3A3"/>
<path d="M349.603 252.053V258.384H348.803V253.052L347.19 253.64V252.918L349.477 252.053H349.603ZM355.925 256.68C355.925 257.063 355.835 257.389 355.657 257.657C355.481 257.923 355.241 258.124 354.939 258.263C354.639 258.401 354.3 258.47 353.923 258.47C353.545 258.47 353.205 258.401 352.902 258.263C352.599 258.124 352.36 257.923 352.184 257.657C352.008 257.389 351.92 257.063 351.92 256.68C351.92 256.429 351.968 256.2 352.063 255.992C352.161 255.782 352.298 255.599 352.474 255.443C352.653 255.288 352.863 255.168 353.105 255.084C353.35 254.998 353.62 254.955 353.914 254.955C354.3 254.955 354.645 255.03 354.947 255.179C355.25 255.326 355.488 255.53 355.661 255.789C355.837 256.049 355.925 256.346 355.925 256.68ZM355.12 256.663C355.12 256.429 355.07 256.223 354.969 256.044C354.868 255.863 354.727 255.721 354.545 255.621C354.364 255.52 354.153 255.469 353.914 255.469C353.669 255.469 353.457 255.52 353.278 255.621C353.102 255.721 352.965 255.863 352.867 256.044C352.769 256.223 352.72 256.429 352.72 256.663C352.72 256.905 352.768 257.112 352.863 257.285C352.961 257.456 353.1 257.587 353.278 257.679C353.46 257.768 353.675 257.813 353.923 257.813C354.17 257.813 354.384 257.768 354.563 257.679C354.741 257.587 354.878 257.456 354.973 257.285C355.071 257.112 355.12 256.905 355.12 256.663ZM355.778 253.726C355.778 254.032 355.697 254.307 355.536 254.552C355.374 254.797 355.154 254.991 354.874 255.132C354.594 255.273 354.277 255.344 353.923 255.344C353.562 255.344 353.241 255.273 352.958 255.132C352.679 254.991 352.46 254.797 352.301 254.552C352.142 254.307 352.063 254.032 352.063 253.726C352.063 253.36 352.142 253.049 352.301 252.792C352.462 252.536 352.683 252.34 352.963 252.204C353.242 252.069 353.561 252.001 353.918 252.001C354.279 252.001 354.599 252.069 354.878 252.204C355.158 252.34 355.377 252.536 355.536 252.792C355.697 253.049 355.778 253.36 355.778 253.726ZM354.978 253.739C354.978 253.529 354.933 253.343 354.844 253.182C354.754 253.02 354.63 252.893 354.472 252.801C354.313 252.706 354.129 252.658 353.918 252.658C353.708 252.658 353.523 252.703 353.365 252.792C353.209 252.879 353.087 253.003 352.997 253.164C352.911 253.326 352.867 253.517 352.867 253.739C352.867 253.956 352.911 254.145 352.997 254.306C353.087 254.467 353.21 254.593 353.369 254.682C353.528 254.772 353.712 254.816 353.923 254.816C354.133 254.816 354.316 254.772 354.472 254.682C354.63 254.593 354.754 254.467 354.844 254.306C354.933 254.145 354.978 253.956 354.978 253.739Z" fill="#A3A3A3"/>
<path d="M423.951 257.726V258.384H419.83V257.809L421.892 255.512C422.146 255.23 422.342 254.991 422.481 254.795C422.622 254.596 422.72 254.418 422.775 254.263C422.832 254.104 422.861 253.943 422.861 253.778C422.861 253.571 422.818 253.383 422.731 253.216C422.648 253.046 422.524 252.911 422.359 252.81C422.195 252.709 421.996 252.658 421.763 252.658C421.483 252.658 421.25 252.713 421.062 252.823C420.878 252.929 420.739 253.079 420.647 253.272C420.555 253.466 420.509 253.688 420.509 253.938H419.709C419.709 253.584 419.787 253.259 419.942 252.965C420.098 252.671 420.329 252.438 420.634 252.265C420.94 252.089 421.316 252.001 421.763 252.001C422.161 252.001 422.501 252.072 422.783 252.213C423.066 252.351 423.282 252.547 423.432 252.801C423.585 253.052 423.661 253.346 423.661 253.683C423.661 253.868 423.629 254.055 423.566 254.245C423.505 254.433 423.42 254.62 423.311 254.808C423.204 254.995 423.079 255.179 422.935 255.361C422.793 255.543 422.642 255.721 422.481 255.897L420.794 257.726H423.951ZM429.062 256.265V256.922H424.513V256.451L427.332 252.088H427.985L427.285 253.35L425.421 256.265H429.062ZM428.184 252.088V258.384H427.384V252.088H428.184Z" fill="#A3A3A3"/>
<path d="M14.2359 243.663V244.623C14.2359 245.139 14.1897 245.574 14.0975 245.929C14.0052 246.283 13.8726 246.569 13.6997 246.785C13.5267 247.001 13.3177 247.158 13.0726 247.256C12.8305 247.351 12.5566 247.399 12.251 247.399C12.0089 247.399 11.7854 247.369 11.5807 247.308C11.3761 247.248 11.1916 247.151 11.0272 247.018C10.8658 246.883 10.7274 246.707 10.6121 246.491C10.4968 246.275 10.4089 246.012 10.3483 245.704C10.2878 245.395 10.2575 245.035 10.2575 244.623V243.663C10.2575 243.147 10.3036 242.714 10.3959 242.365C10.491 242.017 10.6251 241.737 10.798 241.527C10.971 241.313 11.1786 241.16 11.4207 241.068C11.6658 240.976 11.9397 240.93 12.2424 240.93C12.4874 240.93 12.7123 240.96 12.917 241.021C13.1245 241.078 13.309 241.172 13.4705 241.302C13.6319 241.429 13.7688 241.599 13.8813 241.812C13.9966 242.022 14.0845 242.28 14.1451 242.586C14.2056 242.892 14.2359 243.251 14.2359 243.663ZM13.4316 244.753V243.529C13.4316 243.246 13.4143 242.998 13.3797 242.785C13.3479 242.569 13.3004 242.384 13.237 242.231C13.1735 242.079 13.0928 241.955 12.9948 241.86C12.8997 241.764 12.7887 241.695 12.6618 241.652C12.5379 241.606 12.398 241.583 12.2424 241.583C12.0521 241.583 11.8834 241.619 11.7364 241.691C11.5894 241.76 11.4654 241.871 11.3645 242.024C11.2665 242.177 11.1916 242.377 11.1397 242.625C11.0878 242.873 11.0618 243.174 11.0618 243.529V244.753C11.0618 245.035 11.0777 245.284 11.1094 245.501C11.144 245.717 11.1944 245.904 11.2607 246.063C11.327 246.218 11.4078 246.347 11.5029 246.448C11.598 246.549 11.7076 246.623 11.8316 246.673C11.9584 246.719 12.0982 246.742 12.251 246.742C12.447 246.742 12.6186 246.704 12.7656 246.629C12.9126 246.554 13.0352 246.438 13.1332 246.279C13.2341 246.118 13.309 245.911 13.358 245.661C13.407 245.407 13.4316 245.104 13.4316 244.753Z" fill="#A3A3A3"/>
<path d="M9.11351 198.112V198.769H4.99243V198.194L7.05513 195.898C7.30883 195.615 7.50486 195.376 7.64324 195.18C7.7845 194.981 7.88252 194.804 7.9373 194.648C7.99495 194.489 8.02378 194.328 8.02378 194.164C8.02378 193.956 7.98054 193.769 7.89405 193.601C7.81045 193.431 7.68648 193.296 7.52216 193.195C7.35784 193.094 7.15892 193.044 6.9254 193.044C6.64576 193.044 6.41225 193.098 6.22486 193.208C6.04036 193.315 5.90198 193.465 5.80973 193.658C5.71748 193.851 5.67135 194.073 5.67135 194.324H4.87135C4.87135 193.969 4.94919 193.645 5.10487 193.351C5.26054 193.057 5.49117 192.823 5.79676 192.65C6.10234 192.474 6.47856 192.386 6.9254 192.386C7.32324 192.386 7.66342 192.457 7.94594 192.598C8.22847 192.737 8.44468 192.933 8.59459 193.186C8.74738 193.437 8.82378 193.731 8.82378 194.069C8.82378 194.253 8.79207 194.44 8.72865 194.631C8.66811 194.818 8.58306 195.005 8.47351 195.193C8.36684 195.38 8.24144 195.565 8.0973 195.746C7.95603 195.928 7.80468 196.107 7.64324 196.283L5.95676 198.112H9.11351ZM10.9816 195.772L10.3416 195.608L10.6573 192.473H13.8876V193.212H11.3362L11.1459 194.925C11.2613 194.858 11.4068 194.796 11.5827 194.739C11.7614 194.681 11.9661 194.652 12.1968 194.652C12.4879 194.652 12.7488 194.703 12.9795 194.804C13.2101 194.902 13.4061 195.043 13.5676 195.227C13.7319 195.412 13.8573 195.634 13.9438 195.893C14.0303 196.153 14.0735 196.443 14.0735 196.763C14.0735 197.065 14.0317 197.343 13.9481 197.597C13.8674 197.851 13.7449 198.073 13.5805 198.263C13.4162 198.45 13.2086 198.596 12.9578 198.7C12.7099 198.804 12.4173 198.856 12.08 198.856C11.8263 198.856 11.5856 198.821 11.3578 198.752C11.133 198.68 10.9312 198.572 10.7524 198.427C10.5766 198.28 10.4324 198.099 10.32 197.883C10.2104 197.663 10.1413 197.407 10.1124 197.113H10.8735C10.9081 197.349 10.9773 197.548 11.0811 197.71C11.1849 197.871 11.3204 197.994 11.4876 198.077C11.6577 198.158 11.8551 198.198 12.08 198.198C12.2703 198.198 12.4389 198.165 12.5859 198.099C12.733 198.032 12.8569 197.937 12.9578 197.813C13.0587 197.689 13.1351 197.539 13.187 197.364C13.2418 197.188 13.2692 196.99 13.2692 196.771C13.2692 196.572 13.2418 196.388 13.187 196.218C13.1322 196.048 13.0501 195.899 12.9405 195.772C12.8339 195.645 12.7027 195.547 12.547 195.478C12.3913 195.406 12.2126 195.37 12.0108 195.37C11.7427 195.37 11.5395 195.406 11.4011 195.478C11.2656 195.55 11.1258 195.648 10.9816 195.772Z" fill="#A3A3A3"/>
<path d="M6 148.079L5.36 147.915L5.67568 144.78H8.90594V145.519H6.35459L6.16432 147.232C6.27964 147.166 6.42522 147.104 6.60108 147.046C6.77982 146.988 6.9845 146.959 7.21513 146.959C7.5063 146.959 7.76721 147.01 7.99784 147.111C8.22847 147.209 8.4245 147.35 8.58594 147.535C8.75027 147.719 8.87567 147.941 8.96216 148.2C9.04865 148.46 9.09189 148.75 9.09189 149.07C9.09189 149.372 9.05009 149.651 8.96648 149.904C8.88576 150.158 8.76324 150.38 8.59892 150.57C8.43459 150.758 8.22702 150.903 7.97621 151.007C7.72829 151.111 7.43567 151.163 7.09838 151.163C6.84468 151.163 6.60396 151.128 6.37622 151.059C6.15135 150.987 5.94955 150.879 5.77081 150.735C5.59495 150.588 5.45081 150.406 5.33838 150.19C5.22883 149.971 5.15964 149.714 5.13081 149.42H5.89189C5.92649 149.656 5.99568 149.855 6.09946 150.017C6.20324 150.178 6.33874 150.301 6.50595 150.384C6.67604 150.465 6.87351 150.505 7.09838 150.505C7.28865 150.505 7.4573 150.472 7.60432 150.406C7.75135 150.34 7.87531 150.244 7.97621 150.12C8.07711 149.997 8.15351 149.847 8.2054 149.671C8.26018 149.495 8.28757 149.297 8.28757 149.078C8.28757 148.879 8.26018 148.695 8.2054 148.525C8.15063 148.355 8.06847 148.206 7.95892 148.079C7.85225 147.953 7.72108 147.855 7.5654 147.785C7.40973 147.713 7.23099 147.677 7.02919 147.677C6.76108 147.677 6.55784 147.713 6.41946 147.785C6.28396 147.857 6.14414 147.955 6 148.079ZM13.9222 147.426V148.386C13.9222 148.902 13.876 149.338 13.7838 149.692C13.6915 150.047 13.5589 150.332 13.3859 150.549C13.213 150.765 13.004 150.922 12.7589 151.02C12.5168 151.115 12.2429 151.163 11.9373 151.163C11.6951 151.163 11.4717 151.132 11.267 151.072C11.0623 151.011 10.8778 150.915 10.7135 150.782C10.5521 150.647 10.4137 150.471 10.2984 150.255C10.1831 150.038 10.0951 149.776 10.0346 149.468C9.97405 149.159 9.94378 148.799 9.94378 148.386V147.426C9.94378 146.91 9.98991 146.478 10.0822 146.129C10.1773 145.78 10.3113 145.501 10.4843 145.29C10.6573 145.077 10.8649 144.924 11.107 144.832C11.3521 144.74 11.6259 144.693 11.9286 144.693C12.1737 144.693 12.3986 144.724 12.6032 144.784C12.8108 144.842 12.9953 144.936 13.1568 145.065C13.3182 145.192 13.4551 145.362 13.5676 145.576C13.6829 145.786 13.7708 146.044 13.8313 146.35C13.8919 146.655 13.9222 147.014 13.9222 147.426ZM13.1178 148.516V147.292C13.1178 147.01 13.1005 146.762 13.0659 146.549C13.0342 146.332 12.9867 146.148 12.9232 145.995C12.8598 145.842 12.7791 145.718 12.6811 145.623C12.5859 145.528 12.4749 145.459 12.3481 145.416C12.2241 145.37 12.0843 145.346 11.9286 145.346C11.7384 145.346 11.5697 145.382 11.4227 145.455C11.2757 145.524 11.1517 145.635 11.0508 145.788C10.9528 145.94 10.8778 146.141 10.8259 146.389C10.774 146.637 10.7481 146.938 10.7481 147.292V148.516C10.7481 148.799 10.764 149.048 10.7957 149.264C10.8303 149.48 10.8807 149.668 10.947 149.826C11.0133 149.982 11.094 150.11 11.1892 150.211C11.2843 150.312 11.3939 150.387 11.5178 150.436C11.6447 150.482 11.7845 150.505 11.9373 150.505C12.1333 150.505 12.3049 150.468 12.4519 150.393C12.5989 150.318 12.7214 150.201 12.8195 150.043C12.9204 149.881 12.9953 149.675 13.0443 149.424C13.0933 149.171 13.1178 148.868 13.1178 148.516Z" fill="#A3A3A3"/>
<path d="M9.05729 97.0876V97.5373L6.44973 103.384H5.60649L8.20973 97.7449H4.80216V97.0876H9.05729ZM10.9816 100.387L10.3416 100.223L10.6573 97.0876H13.8876V97.827H11.3362L11.1459 99.5395C11.2613 99.4732 11.4068 99.4112 11.5827 99.3535C11.7614 99.2959 11.9661 99.267 12.1968 99.267C12.4879 99.267 12.7488 99.3175 12.9795 99.4184C13.2101 99.5164 13.4061 99.6577 13.5676 99.8422C13.7319 100.027 13.8573 100.249 13.9438 100.508C14.0303 100.768 14.0735 101.057 14.0735 101.377C14.0735 101.68 14.0317 101.958 13.9481 102.212C13.8674 102.466 13.7449 102.688 13.5805 102.878C13.4162 103.065 13.2086 103.211 12.9578 103.315C12.7099 103.418 12.4173 103.47 12.08 103.47C11.8263 103.47 11.5856 103.436 11.3578 103.366C11.133 103.294 10.9312 103.186 10.7524 103.042C10.5766 102.895 10.4324 102.714 10.32 102.497C10.2104 102.278 10.1413 102.022 10.1124 101.728H10.8735C10.9081 101.964 10.9773 102.163 11.0811 102.324C11.1849 102.486 11.3204 102.608 11.4876 102.692C11.6577 102.773 11.8551 102.813 12.08 102.813C12.2703 102.813 12.4389 102.78 12.5859 102.714C12.733 102.647 12.8569 102.552 12.9578 102.428C13.0587 102.304 13.1351 102.154 13.187 101.978C13.2418 101.803 13.2692 101.605 13.2692 101.386C13.2692 101.187 13.2418 101.003 13.187 100.832C13.1322 100.662 13.0501 100.514 12.9405 100.387C12.8339 100.26 12.7027 100.162 12.547 100.093C12.3913 100.021 12.2126 99.9849 12.0108 99.9849C11.7427 99.9849 11.5395 100.021 11.4011 100.093C11.2656 100.165 11.1258 100.263 10.9816 100.387Z" fill="#A3A3A3"/>
<path d="M3.20758 49.3616V55.6924H2.40758V50.3605L0.794606 50.9486V50.2264L3.08217 49.3616H3.20758ZM9.51244 52.0427V53.0027C9.51244 53.5187 9.46631 53.954 9.37406 54.3086C9.28181 54.6632 9.14919 54.9486 8.97622 55.1648C8.80325 55.381 8.59424 55.5381 8.34919 55.6362C8.10703 55.7313 7.83316 55.7789 7.52757 55.7789C7.28541 55.7789 7.06199 55.7486 6.8573 55.6881C6.65262 55.6275 6.46811 55.5309 6.30379 55.3983C6.14235 55.2628 6.00397 55.087 5.88866 54.8708C5.77334 54.6545 5.68541 54.3922 5.62487 54.0837C5.56433 53.7753 5.53406 53.4149 5.53406 53.0027V52.0427C5.53406 51.5266 5.58019 51.0942 5.67244 50.7454C5.76757 50.3965 5.90163 50.1169 6.0746 49.9064C6.24757 49.6931 6.45514 49.5403 6.6973 49.4481C6.94235 49.3558 7.21622 49.3097 7.51892 49.3097C7.76397 49.3097 7.98883 49.34 8.19352 49.4005C8.40109 49.4582 8.58559 49.5518 8.74703 49.6816C8.90847 49.8084 9.04541 49.9785 9.15784 50.1918C9.27316 50.4023 9.36109 50.6603 9.42163 50.9659C9.48217 51.2715 9.51244 51.6304 9.51244 52.0427ZM8.70811 53.1324V51.9086C8.70811 51.6261 8.69082 51.3782 8.65622 51.1648C8.62451 50.9486 8.57694 50.7641 8.51352 50.6113C8.4501 50.4585 8.36937 50.3345 8.27136 50.2394C8.17622 50.1443 8.06523 50.0751 7.93838 50.0318C7.81442 49.9857 7.6746 49.9627 7.51892 49.9627C7.32865 49.9627 7.16001 49.9987 7.01298 50.0708C6.86595 50.14 6.74199 50.2509 6.64109 50.4037C6.54307 50.5565 6.46811 50.7569 6.41622 51.0048C6.36433 51.2527 6.33839 51.554 6.33839 51.9086V53.1324C6.33839 53.4149 6.35424 53.6643 6.38595 53.8805C6.42055 54.0967 6.471 54.2841 6.5373 54.4427C6.60361 54.5983 6.68433 54.7266 6.77947 54.8275C6.8746 54.9284 6.98415 55.0034 7.10811 55.0524C7.23496 55.0985 7.37478 55.1216 7.52757 55.1216C7.72361 55.1216 7.89514 55.0841 8.04217 55.0091C8.18919 54.9342 8.31172 54.8174 8.40973 54.6589C8.51064 54.4974 8.58559 54.2913 8.6346 54.0405C8.68361 53.7868 8.70811 53.4841 8.70811 53.1324ZM14.4941 52.0427V53.0027C14.4941 53.5187 14.4479 53.954 14.3557 54.3086C14.2634 54.6632 14.1308 54.9486 13.9578 55.1648C13.7849 55.381 13.5759 55.5381 13.3308 55.6362C13.0886 55.7313 12.8148 55.7789 12.5092 55.7789C12.267 55.7789 12.0436 55.7486 11.8389 55.6881C11.6342 55.6275 11.4497 55.5309 11.2854 55.3983C11.124 55.2628 10.9856 55.087 10.8703 54.8708C10.755 54.6545 10.667 54.3922 10.6065 54.0837C10.5459 53.7753 10.5157 53.4149 10.5157 53.0027V52.0427C10.5157 51.5266 10.5618 51.0942 10.6541 50.7454C10.7492 50.3965 10.8832 50.1169 11.0562 49.9064C11.2292 49.6931 11.4368 49.5403 11.6789 49.4481C11.924 49.3558 12.1978 49.3097 12.5005 49.3097C12.7456 49.3097 12.9705 49.34 13.1751 49.4005C13.3827 49.4582 13.5672 49.5518 13.7286 49.6816C13.8901 49.8084 14.027 49.9785 14.1395 50.1918C14.2548 50.4023 14.3427 50.6603 14.4032 50.9659C14.4638 51.2715 14.4941 51.6304 14.4941 52.0427ZM13.6897 53.1324V51.9086C13.6897 51.6261 13.6724 51.3782 13.6378 51.1648C13.6061 50.9486 13.5586 50.7641 13.4951 50.6113C13.4317 50.4585 13.351 50.3345 13.253 50.2394C13.1578 50.1443 13.0468 50.0751 12.92 50.0318C12.796 49.9857 12.6562 49.9627 12.5005 49.9627C12.3103 49.9627 12.1416 49.9987 11.9946 50.0708C11.8476 50.14 11.7236 50.2509 11.6227 50.4037C11.5247 50.5565 11.4497 50.7569 11.3978 51.0048C11.3459 51.2527 11.32 51.554 11.32 51.9086V53.1324C11.32 53.4149 11.3359 53.6643 11.3676 53.8805C11.4022 54.0967 11.4526 54.2841 11.5189 54.4427C11.5852 54.5983 11.6659 54.7266 11.7611 54.8275C11.8562 54.9284 11.9658 55.0034 12.0897 55.0524C12.2166 55.0985 12.3564 55.1216 12.5092 55.1216C12.7052 55.1216 12.8768 55.0841 13.0238 55.0091C13.1708 54.9342 13.2933 54.8174 13.3914 54.6589C13.4923 54.4974 13.5672 54.2913 13.6162 54.0405C13.6652 53.7868 13.6897 53.4841 13.6897 53.1324Z" fill="#A3A3A3"/>
<path d="M3.20758 1.66919V8H2.40758V2.66811L0.794606 3.25622V2.53406L3.08217 1.66919H3.20758ZM9.68541 7.3427V8H5.56433V7.42487L7.62703 5.12865C7.88073 4.84613 8.07676 4.60685 8.21514 4.41081C8.3564 4.2119 8.45442 4.0346 8.50919 3.87892C8.56685 3.72036 8.59568 3.55892 8.59568 3.3946C8.59568 3.18703 8.55244 2.99964 8.46595 2.83244C8.38235 2.66235 8.25838 2.52685 8.09406 2.42595C7.92974 2.32505 7.73082 2.2746 7.4973 2.2746C7.21766 2.2746 6.98415 2.32937 6.79676 2.43892C6.61226 2.54559 6.47388 2.6955 6.38163 2.88865C6.28938 3.08181 6.24325 3.30379 6.24325 3.5546H5.44325C5.44325 3.2 5.52109 2.87568 5.67676 2.58163C5.83244 2.28757 6.06307 2.05406 6.36866 1.88109C6.67424 1.70523 7.05046 1.6173 7.4973 1.6173C7.89514 1.6173 8.23532 1.68793 8.51784 1.82919C8.80037 1.96757 9.01658 2.16361 9.16649 2.4173C9.31928 2.66811 9.39568 2.96217 9.39568 3.29946C9.39568 3.48397 9.36397 3.67135 9.30054 3.86163C9.24 4.04901 9.15496 4.2364 9.04541 4.42379C8.93874 4.61117 8.81334 4.79568 8.66919 4.9773C8.52793 5.15892 8.37658 5.33766 8.21514 5.51352L6.52866 7.3427H9.68541ZM11.5535 5.00325L10.9135 4.83892L11.2292 1.70379H14.4595V2.44325H11.9081L11.7178 4.15568C11.8332 4.08937 11.9787 4.02739 12.1546 3.96973C12.3333 3.91208 12.538 3.88325 12.7687 3.88325C13.0598 3.88325 13.3207 3.9337 13.5514 4.0346C13.782 4.13262 13.978 4.27388 14.1395 4.45838C14.3038 4.64289 14.4292 4.86487 14.5157 5.12433C14.6022 5.38379 14.6454 5.67352 14.6454 5.99352C14.6454 6.29622 14.6036 6.57442 14.52 6.82811C14.4393 7.0818 14.3168 7.30378 14.1524 7.49405C13.9881 7.68144 13.7805 7.82703 13.5297 7.93081C13.2818 8.03459 12.9892 8.08649 12.6519 8.08649C12.3982 8.08649 12.1575 8.05189 11.9297 7.9827C11.7049 7.91063 11.5031 7.80252 11.3243 7.65838C11.1485 7.51135 11.0043 7.32973 10.8919 7.11351C10.7823 6.89442 10.7132 6.63784 10.6843 6.34379H11.4454C11.48 6.58018 11.5492 6.7791 11.653 6.94054C11.7568 7.10198 11.8923 7.22451 12.0595 7.30811C12.2296 7.38883 12.427 7.42919 12.6519 7.42919C12.8422 7.42919 13.0108 7.39604 13.1578 7.32973C13.3049 7.26342 13.4288 7.16829 13.5297 7.04433C13.6306 6.92036 13.707 6.77045 13.7589 6.5946C13.8137 6.41874 13.8411 6.22126 13.8411 6.00216C13.8411 5.80325 13.8137 5.61874 13.7589 5.44865C13.7041 5.27856 13.622 5.13009 13.5124 5.00325C13.4058 4.8764 13.2746 4.77838 13.1189 4.70919C12.9632 4.63712 12.7845 4.60108 12.5827 4.60108C12.3146 4.60108 12.1114 4.63712 11.973 4.70919C11.8375 4.78126 11.6977 4.87928 11.5535 5.00325Z" fill="#A3A3A3"/>
<path d="M23.9117 134.444C23.9117 134.444 34.8395 135.976 42.1247 157.418C49.4099 178.861 53.0525 241.656 60.3377 241.656C67.6229 241.656 71.2655 241.656 78.5507 241.656C85.8359 241.656 89.4785 204.515 96.7637 168.905C104.049 133.296 107.691 67.4368 114.977 63.6078C122.262 59.7788 125.904 59.7788 133.19 59.7788C140.475 59.7788 144.117 126.786 151.403 147.846C158.688 168.905 162.33 154.355 169.616 168.905C176.901 183.455 180.543 220.597 187.829 220.597C195.114 220.597 198.756 204.132 206.042 182.307C213.327 160.481 216.969 128.701 224.255 111.47C231.54 94.2398 235.182 94.2398 242.468 94.2398C249.753 94.2398 253.395 94.2398 260.681 111.47C267.966 128.701 271.608 218.682 278.894 218.682C286.179 218.682 289.821 180.009 297.107 159.333C304.392 138.656 308.034 115.299 315.32 115.299C322.605 115.299 326.247 122.957 333.533 122.957" stroke="#FF927C" stroke-width="1.77124"/>
<path d="M23.9117 137.967C22.9724 137.967 22.0715 137.608 21.4071 136.97C20.7428 136.331 20.3695 135.465 20.3693 134.561C20.369 133.658 20.7419 132.791 21.4059 132.152C22.0699 131.513 22.9706 131.154 23.91 131.154C24.8493 131.153 25.7504 131.512 26.4151 132.15C27.0797 132.788 27.4535 133.654 27.4542 134.558C27.4549 135.461 27.0825 136.328 26.4189 136.967C25.7552 137.606 24.8547 137.966 23.9153 137.967H23.9117Z" fill="#FF927C"/>
<path d="M41.6241 160.962C40.6848 160.962 39.7839 160.603 39.1195 159.964C38.4552 159.325 38.0819 158.459 38.0817 157.556C38.0814 156.653 38.4543 155.786 39.1183 155.147C39.7823 154.508 40.683 154.149 41.6224 154.148C42.5617 154.148 43.4628 154.506 44.1275 155.145C44.7921 155.783 45.1659 156.649 45.1666 157.552C45.1673 158.456 44.7949 159.322 44.1313 159.962C43.4676 160.601 42.5671 160.961 41.6277 160.962H41.6241Z" fill="#FF927C"/>
<path d="M60.2222 245.274C59.2828 245.274 58.3819 244.915 57.7176 244.276C57.0532 243.637 56.6799 242.771 56.6797 241.868C56.6795 240.965 57.0523 240.098 57.7163 239.459C58.3803 238.82 59.281 238.461 60.2204 238.46C61.1598 238.46 62.0609 238.818 62.7255 239.457C63.3902 240.095 63.7639 240.961 63.7647 241.864C63.7654 242.768 63.3929 243.634 62.7293 244.274C62.0656 244.913 61.1651 245.273 60.2257 245.274H60.2222Z" fill="#FF927C"/>
<path d="M77.9347 245.274C76.9953 245.274 76.0944 244.915 75.4301 244.276C74.7658 243.637 74.3924 242.771 74.3922 241.868C74.392 240.965 74.7649 240.098 75.4288 239.459C76.0928 238.82 76.9936 238.461 77.9329 238.46C78.8723 238.46 79.7734 238.818 80.438 239.457C81.1027 240.095 81.4765 240.961 81.4772 241.864C81.4779 242.768 81.1055 243.634 80.4418 244.274C79.7781 244.913 78.8776 245.273 77.9382 245.274H77.9347Z" fill="#FF927C"/>
<path d="M96.5327 172.032C95.5933 172.032 94.6924 171.673 94.0281 171.034C93.3638 170.396 92.9905 169.53 92.9902 168.626C92.99 167.723 93.3629 166.856 94.0269 166.217C94.6908 165.578 95.5916 165.219 96.5309 165.219C97.4703 165.218 98.3714 165.577 99.0361 166.215C99.7007 166.853 100.074 167.719 100.075 168.623C100.076 169.526 99.7035 170.393 99.0398 171.032C98.3762 171.671 97.4756 172.031 96.5363 172.032H96.5327Z" fill="#FF927C"/>
<path d="M114.245 67.28C113.306 67.28 112.405 66.9212 111.741 66.2825C111.076 65.6438 110.703 64.7776 110.703 63.8742C110.702 62.9709 111.075 62.1045 111.739 61.4655C112.403 60.8265 113.304 60.4672 114.243 60.4668C115.183 60.4663 116.084 60.8247 116.748 61.4631C117.413 62.1014 117.787 62.9675 117.788 63.8708C117.788 64.7742 117.416 65.6408 116.752 66.2801C116.089 66.9194 115.188 67.2791 114.249 67.28H114.245Z" fill="#FF927C"/>
<path d="M132.843 63.0221C131.904 63.0221 131.003 62.6634 130.339 62.0247C129.674 61.386 129.301 60.5198 129.301 59.6164C129.3 58.7131 129.673 57.8466 130.337 57.2077C131.001 56.5687 131.902 56.2094 132.841 56.209C133.781 56.2085 134.682 56.5669 135.346 57.2052C136.011 57.8436 136.385 58.7097 136.386 59.613C136.386 60.5163 136.014 61.383 135.35 62.0223C134.687 62.6616 133.786 63.0212 132.847 63.0221H132.843Z" fill="#FF927C"/>
<path d="M150.556 151.592C149.616 151.592 148.715 151.234 148.051 150.595C147.387 149.956 147.013 149.09 147.013 148.187C147.013 147.283 147.386 146.417 148.05 145.778C148.714 145.139 149.614 144.78 150.554 144.779C151.493 144.779 152.394 145.137 153.059 145.776C153.724 146.414 154.097 147.28 154.098 148.183C154.099 149.087 153.726 149.953 153.063 150.593C152.399 151.232 151.498 151.592 150.559 151.592H150.556Z" fill="#FF927C"/>
<path d="M169.154 172.032C168.214 172.032 167.313 171.673 166.649 171.034C165.985 170.396 165.611 169.53 165.611 168.626C165.611 167.723 165.984 166.856 166.648 166.217C167.312 165.578 168.212 165.219 169.152 165.219C170.091 165.218 170.992 165.577 171.657 166.215C172.322 166.853 172.695 167.719 172.696 168.623C172.697 169.526 172.324 170.393 171.661 171.032C170.997 171.671 170.096 172.031 169.157 172.032H169.154Z" fill="#FF927C"/>
<path d="M187.752 223.983C186.812 223.983 185.911 223.624 185.247 222.986C184.583 222.347 184.209 221.481 184.209 220.577C184.209 219.674 184.582 218.808 185.246 218.169C185.91 217.53 186.81 217.17 187.75 217.17C188.689 217.169 189.59 217.528 190.255 218.166C190.92 218.805 191.293 219.671 191.294 220.574C191.295 221.477 190.922 222.344 190.259 222.983C189.595 223.623 188.695 223.982 187.755 223.983H187.752Z" fill="#FF927C"/>
<path d="M205.464 185.659C204.525 185.659 203.624 185.301 202.96 184.662C202.295 184.023 201.922 183.157 201.922 182.254C201.921 181.35 202.294 180.484 202.958 179.845C203.622 179.206 204.523 178.847 205.462 178.846C206.402 178.846 207.303 179.204 207.967 179.842C208.632 180.481 209.006 181.347 209.007 182.25C209.007 183.154 208.635 184.02 207.971 184.659C207.308 185.299 206.407 185.658 205.468 185.659H205.464Z" fill="#FF927C"/>
<path d="M224.062 114.972C223.123 114.972 222.222 114.613 221.558 113.974C220.893 113.336 220.52 112.469 220.52 111.566C220.519 110.663 220.892 109.796 221.556 109.157C222.22 108.518 223.121 108.159 224.06 108.159C225 108.158 225.901 108.517 226.565 109.155C227.23 109.793 227.604 110.659 227.605 111.563C227.605 112.466 227.233 113.333 226.569 113.972C225.906 114.611 225.005 114.971 224.066 114.972H224.062Z" fill="#FF927C"/>
<path d="M241.775 97.9391C240.835 97.9391 239.934 97.5804 239.27 96.9417C238.606 96.303 238.232 95.4367 238.232 94.5334C238.232 93.6301 238.605 92.7636 239.269 92.1246C239.933 91.4856 240.833 91.1264 241.773 91.126C242.712 91.1255 243.613 91.4839 244.278 92.1222C244.943 92.7606 245.316 93.6267 245.317 94.53C245.318 95.4333 244.945 96.3 244.282 96.9393C243.618 97.5786 242.717 97.9382 241.778 97.9391H241.775Z" fill="#FF927C"/>
<path d="M260.373 114.972C259.433 114.972 258.532 114.613 257.868 113.974C257.204 113.336 256.83 112.469 256.83 111.566C256.83 110.663 257.203 109.796 257.867 109.157C258.531 108.518 259.431 108.159 260.371 108.159C261.31 108.158 262.211 108.517 262.876 109.155C263.541 109.793 263.914 110.659 263.915 111.563C263.916 112.466 263.543 113.333 262.88 113.972C262.216 114.611 261.315 114.971 260.376 114.972H260.373Z" fill="#FF927C"/>
<path d="M278.085 222.28C277.146 222.28 276.245 221.921 275.58 221.282C274.916 220.644 274.543 219.778 274.542 218.874C274.542 217.971 274.915 217.104 275.579 216.465C276.243 215.826 277.144 215.467 278.083 215.467C279.023 215.466 279.924 215.825 280.588 216.463C281.253 217.101 281.627 217.967 281.627 218.871C281.628 219.774 281.256 220.641 280.592 221.28C279.928 221.919 279.028 222.279 278.089 222.28H278.085Z" fill="#FF927C"/>
<path d="M296.683 162.665C295.744 162.665 294.843 162.306 294.178 161.667C293.514 161.029 293.141 160.162 293.141 159.259C293.14 158.356 293.513 157.489 294.177 156.85C294.841 156.211 295.742 155.852 296.681 155.852C297.621 155.851 298.522 156.209 299.186 156.848C299.851 157.486 300.225 158.352 300.225 159.256C300.226 160.159 299.854 161.026 299.19 161.665C298.526 162.304 297.626 162.664 296.687 162.665H296.683Z" fill="#FF927C"/>
<path d="M315.281 118.379C314.342 118.379 313.441 118.02 312.776 117.381C312.112 116.742 311.739 115.876 311.739 114.973C311.738 114.07 312.111 113.203 312.775 112.564C313.439 111.925 314.34 111.566 315.279 111.565C316.219 111.565 317.12 111.923 317.784 112.562C318.449 113.2 318.823 114.066 318.823 114.969C318.824 115.873 318.452 116.739 317.788 117.379C317.124 118.018 316.224 118.378 315.285 118.379H315.281Z" fill="#FF927C"/>
<path d="M332.993 126.043C332.054 126.043 331.153 125.684 330.489 125.046C329.824 124.407 329.451 123.541 329.451 122.637C329.451 121.734 329.824 120.868 330.488 120.229C331.152 119.59 332.052 119.23 332.992 119.23C333.931 119.23 334.832 119.588 335.497 120.226C336.161 120.865 336.535 121.731 336.536 122.634C336.537 123.537 336.164 124.404 335.501 125.043C334.837 125.683 333.936 126.042 332.997 126.043H332.993Z" fill="#FF927C"/>
</svg>
