<svg width="154" height="157" viewBox="0 0 154 157" fill="none" xmlns="http://www.w3.org/2000/svg">
<path d="M12.2871 66.8965C10.4464 72.7417 11.4624 86.3952 30.2518 94.2476" stroke="#4A2120" stroke-width="9.29104" stroke-linecap="round" stroke-linejoin="round"/>
<path d="M122.294 76.2251C127.771 76.6601 139.914 80.5451 144.666 92.6053" stroke="#4A2120" stroke-width="9.29104" stroke-linecap="round" stroke-linejoin="round"/>
<path d="M44.9665 141.911L61.1521 141.505L62.5601 120.203" stroke="#4A2120" stroke-width="9.29104" stroke-linecap="round" stroke-linejoin="round"/>
<path d="M110.31 134.506L117.573 120.152L96.116 110.382" stroke="#4A2120" stroke-width="9.29104" stroke-linecap="round" stroke-linejoin="round"/>
<path d="M38.379 41.9352C45.8996 20.6276 61.0149 15.6937 68.6326 14.738C78.9535 13.4433 88.7389 14.6325 101.868 28.1939C123.777 50.824 126.177 91.2293 124.901 96.4433C123.624 101.657 111.432 120.929 78.116 126.349C44.8005 131.769 32.6899 118.245 30.3434 108.486C27.9968 98.7279 29.915 65.9158 38.379 41.9352Z" fill="#FFE886" stroke="#4A2120" stroke-width="3.42302" stroke-linecap="round" stroke-linejoin="round"/>
<g opacity="0.2">
<path d="M60.2799 17.5291C51.8188 30.1109 38.0229 66.1293 50.5271 109.549" stroke="#4A2120" stroke-width="1.46701" stroke-linecap="round" stroke-linejoin="round"/>
<path d="M65.1384 15.8527C64.0986 43.9257 64.0073 103.209 71.9605 115.759" stroke="#4A2120" stroke-width="1.46701"/>
<path d="M71.1417 14.605C79.5187 41.1957 94.7652 97.0601 88.7351 107.792" stroke="#4A2120" stroke-width="1.46701"/>
<path d="M76.9221 15.2061C85.8791 24.0486 104.937 51.3856 109.511 89.993" stroke="#4A2120" stroke-width="1.46701"/>
<path d="M43.2058 31.4434C56.9208 28.1086 86.7593 22.0079 96.3928 24.2835" stroke="#4A2120" stroke-width="1.46701"/>
<path d="M33.0471 55.052C51.5488 49.2123 93.1228 39.0485 111.405 45.1107" stroke="#4A2120" stroke-width="1.46701"/>
<path d="M27.622 78.2942C45.3319 69.4593 88.2986 54.4212 118.486 64.9476" stroke="#4A2120" stroke-width="1.46701"/>
<path d="M30.5747 98.8293C43.4903 91.3127 78.5122 77.5637 115.274 82.7011" stroke="#4A2120" stroke-width="1.46701"/>
</g>
<path d="M44.1374 91.202C31.197 89.6395 25.4469 76.3766 24.5179 69.4304C6.80396 140.343 90.0558 134.064 88.2358 122.623C86.4157 111.182 63.9443 93.5936 44.1374 91.202Z" fill="#539F80" stroke="#4A2120" stroke-width="3.42302" stroke-linejoin="round"/>
<path d="M127.686 81.4738C121.166 59.1945 122.096 50.945 125.615 42.9673C129.133 34.9895 107.197 69.6461 92.4148 83.8205C81.6774 94.1167 68.7711 99.2319 62.7336 107.175C56.6962 115.117 59.6634 121.197 61.8512 124.159C73.4603 139.877 136.566 111.812 127.686 81.4738Z" fill="#539F80" stroke="#4A2120" stroke-width="3.42302" stroke-linejoin="round"/>
<ellipse cx="51.142" cy="62.7655" rx="3.91202" ry="5.08755" transform="rotate(-10.0765 51.142 62.7655)" fill="#4A2120"/>
<ellipse cx="74.8249" cy="58.3808" rx="3.91202" ry="5.08755" transform="rotate(-10.0765 74.8249 58.3808)" fill="#4A2120"/>
<circle cx="44.6282" cy="73.7353" r="6.35703" transform="rotate(-16.3138 44.6282 73.7353)" fill="#FF927C"/>
<circle cx="85.013" cy="65.4814" r="6.35703" transform="rotate(-16.3138 85.013 65.4814)" fill="#FF927C"/>
<path d="M56.8305 70.1641C57.2826 72.5794 59.4861 75.7558 64.3853 75.0862C68.1131 74.5767 70.2974 70.0439 70.1487 67.7947" stroke="#4A2120" stroke-width="3.42302" stroke-linecap="round" stroke-linejoin="round"/>
</svg>
